<svg xmlns="http://www.w3.org/2000/svg" viewBox="0 0 607.5 846.27"><title>Recurso 1</title><g id="Capa_2" data-name="Capa 2"><g id="Capa_1-2" data-name="Capa 1"><path d="M607.5,595.77a25.61,25.61,0,0,1-3.31-1.9c-5.9-4.59-11.39-9.81-17.69-13.74-12.24-7.63-25.43-6.82-38.66-2.6-1.42.45-2.82,1-4.23,1.51-4.79,1.77-6.65,1-8.63-3.88-4.54-11.16-10.56-21.23-20.55-28.44-10.77-7.78-22.77-10.11-35.81-8.43-17.06,2.19-30.53,10.57-40.87,23.93a62.54,62.54,0,0,0-13.3,33.68c-.11,1.49-.13,3-.3,4.48-.63,5.57-4.09,7.54-9.09,5a36.89,36.89,0,0,0-21.69-4.06,29.94,29.94,0,0,0-26.52,29.21c0,1,0,2,0,3-.08,4.76-3.43,7.13-7.8,5.16-8.26-3.73-16.81-5.67-25.86-4.49-12.79,1.67-22.27,8.41-27.12,20.27-2.6,6.34-3.67,13.4-4.69,20.25-.82,5.46-1.61,6.81-7.16,7.62a124.22,124.22,0,0,0-15,2.68c-15.55,4.29-20.71,17.45-18.15,30.8,1.42,7.42,3.95,14.66,6.34,21.86,1.87,5.61.33,8.18-5.59,8.78C243.16,748.35,220.16,771,233,796c2.64,5.16,6.27,9.87,9.79,14.52s3.43,6-.62,10.14a45.59,45.59,0,0,0-6.46,8.19c-3.49,5.78-1.51,12,4.45,15.2a21.83,21.83,0,0,1,2.85,2.19H227.25c-5.69-9.63-4.12-18.68,2.55-27.06,2.35-3,2.81-5,.16-8.23a48.49,48.49,0,0,1-10.61-24.84c-.39-3.09-1.53-3.83-4.57-3.6-5.26.4-10.22-3.84-10.41-8.4.34-.07.74-.28,1-.18,8.24,2.82,9,.34,13.3-5.13,5.36-6.86,10.52-13.91,16.33-20.38,4.64-5.17,10.92-8.35,17.54-10.39,3.08-.95,3-2.19,2.32-4.86a170.38,170.38,0,0,1-4.35-21.58,33.21,33.21,0,0,1,5.77-22.76c1.46-2.13,1.19-3.55-.33-5.59a183.28,183.28,0,0,0-51-46.9c-1.06-.67-2.11-1.35-3.12-2.08-2.48-1.83-3.12-4.13-1.55-6.86s4.06-3.64,7-1.73c6.87,4.53,13.74,9.11,20.3,14.06a177.23,177.23,0,0,1,36.48,37.45c1.27,1.75,2.46,2,4.72,1.19A134.79,134.79,0,0,1,287,673c3.2-.67,4.4-1.85,4.73-5,1.31-12.42,5.63-23.68,14.92-32.27,12-11,26.37-14.18,42.11-10.92,7.33,1.51,7.25,1.87,9.37-5.14,5.22-17.27,19.88-28.48,37.9-28.51,5.18,0,10.38.95,15.51,1.81,2.75.46,2.87-1.14,3.17-2.92a79.42,79.42,0,0,1,11.06-29.23c1.2-1.91,2.47-3.78,4.1-6.27-6.11-.52-11.35-.62-16.45-1.49-5.75-1-11.36-2.78-17.08-4a45.3,45.3,0,0,0-9.48-1.06c-.66,0-1.88,2.3-1.9,3.56-.14,9.37-.09,18.75,0,28.12.06,7.73-4,12.86-11.46,15-5.73,1.65-11.24,4.12-17,5.52-16.41,4-33.18,4.31-49.93,3.6-14.75-.61-29.37-2.39-43.13-8.38-1.69-.74-3.68-.84-5.33-1.65-5.56-2.75-8.31-7.4-8.35-13.57-.06-11.37.06-22.74,0-34.11-.08-7.41,0-7.51-7.37-5.23A98.21,98.21,0,0,1,205,544.79a157.47,157.47,0,0,1-58.08-16.08c-1.79-.89-3.53-1.87-5.24-2.9-2.75-1.66-3.17-4.08-1.83-6.79s4.1-3.58,7-1.94a132.66,132.66,0,0,0,37.72,14.14c11.93,2.57,24,5.22,36.35,3.94,7.16-.74,14.42-1.69,20.76-5.71,5.64-3.57,8.31-8.45,8.25-15.31-.1-12.34-5.67-22.46-12.84-31.69-9.41-12.13-19.53-23.7-29.31-35.54-2.31-2.79-4.49-5.69-6.69-8.56-1.56-2-2.52-4.08-.16-6.27s5.51-2.57,7.67-.18c3.67,4.08,7,8.48,10.49,12.7q12.36,14.81,24.78,29.57a10,10,0,0,0,1.65,1.14c1.7-4.54,2.82-8.83,1.06-13.2-3-7.47-2-12.92,5-16.6a77.14,77.14,0,0,1,19.1-7.16c25.64-5.62,51.62-5,77.59-2.84,11,.9,21.79,2.84,32,7.29a41.9,41.9,0,0,1,5.52,3.14,11,11,0,0,1,5.43,11.11c-.45,5.09-.76,10.2-1,15.31-.05,1.23.41,2.48.84,4.84,3.47-4.18,6.09-7.56,8.95-10.75q13.25-14.79,26.64-29.46c2.55-2.79,5.51-2.89,7.9-.54,2,1.94,1.86,5.16-.47,7.75-8.21,9.08-16.69,17.92-24.67,27.2C400.27,482,391.79,493.16,386,506.07c-2.41,5.4-4,10.89-3,17.05a16,16,0,0,0,9.34,12.74c5.94,2.77,12.2,5.42,18.59,6.51,8.57,1.47,17.4,1.53,26.12,1.88a9.78,9.78,0,0,0,5.81-1.88,71.94,71.94,0,0,1,29.34-13.48,65.7,65.7,0,0,1,33.64,1.77c3.51,1.15,3.87,1,3.64-2.8-1.36-22.38-6.92-43.8-14.79-64.72-10.24-27.2-24.42-52.5-37.65-78.26-12-23.44-21.88-47.74-26.65-73.7-4.33-23.56-7.6-47.31-11.2-71-2.75-18.15-5.49-36.3-12.14-53.55-7.67-19.9-20.3-35.47-38.93-46.34-23.58-13.76-48.69-17.69-75.43-14-23.87,3.31-45.76,11.44-64.65,26.58-22.27,17.86-35.62,41.1-38.53,69.53-1.65,16.11-1.23,32.43-2,48.64-1.58,34-6.6,67.27-20.65,98.73-9.17,20.51-18.29,41.07-26.26,62.06a584.27,584.27,0,0,0-19,58.3,577.77,577.77,0,0,0-12.71,61.94,372.57,372.57,0,0,0-1.17,102.37,359.13,359.13,0,0,0,15.47,67,14.45,14.45,0,0,0,.88,2.07c.27.53.64,1,1.19,1.88.85-.78,1.6-1.34,2.21-2,3.75-4.25,5.36-4.3,9.37-.13,2.34,2.42,4.61,4.92,7,7.34.92.95,2,1.8,3.25,3,3.91-5.35,7.43-10.45,11.25-15.33a46.52,46.52,0,0,1,15.9-13.41c5.73-2.86,8.23-1.39,8.23,4.92,0,8.87,0,17.74,0,26.62,0,3.53.72,4.06,4,2.82,3.85-1.45,7.62-3.14,11.46-4.61,5.15-2,7.48-.25,7.69,5.26.39,10.41-2,20.32-5.14,30.11a23.84,23.84,0,0,1-1.22,2.74c-1.19,2.56-3.09,3.58-5.78,2.42-2.54-1.09-2.42-3.11-1.77-5.37,1.73-6,3.51-12,5-18,.58-2.34.47-4.84.73-8.05-3.83,1.38-6.79,2.57-9.82,3.5a40.52,40.52,0,0,1-7.27,1.67c-4.58.51-6.2-1.09-6.2-5.64q0-12.37,0-24.75A5.69,5.69,0,0,0,172.7,715c-2.92,3.06-6.13,5.9-8.7,9.24-3.8,4.94-7.18,10.2-10.67,15.37-3.79,5.62-6,5.95-10.92,1.29-2.63-2.48-5.19-5.07-7.6-7.77-1.91-2.14-3.24-2-4.39.57-5.6,12.69-4.78,25.27.67,37.76.25.57.61,1.09.83,1.67,1,2.65.29,4.75-2.28,5.92s-4-.29-5.09-2.4c-5.09-9.59-6.4-19.91-5.55-30.53A23.16,23.16,0,0,0,117.55,735,314.37,314.37,0,0,1,101,677.86a359.2,359.2,0,0,1-6.2-89.11c1.31-24.35,4-48.61,9.87-72.3,5.53-22.53,12.22-44.76,18.48-67.11.84-3,2.19-5.83,3.16-8.78s.27-3.84-2.66-3.19c-9.5,2.1-19.23,3.51-28.42,6.57-9.45,3.15-19.31,3.79-28.8,6.44s-19.39,4.74-29,7.34c-12.51,3.38-25,7-37.42,10.55v-9c9.26-2.47,18.5-5,27.78-7.4,13.41-3.46,26.84-6.83,40.27-10.2,3.74-.95,7.52-1.78,11.28-2.66a3.82,3.82,0,0,0,3.36-4.21q-.07-9.75.12-19.5c.06-2.8-.88-4.1-3.89-4-14.88.37-29.71-.19-44.42-2.79-8-1.43-15.89-3.23-22.92-7.64-6.09-3.83-8.28-9-4.79-15.34,4.57-8.25,10.13-16,15.37-23.83,3.8-5.7,7.86-11.23,11.59-17,1.09-1.68,1.47-3.82,2.56-6.83-2.58.56-4.08.8-5.53,1.21-3.23.9-6.4,2.14-9.68,2.77-7.59,1.45-13.23-3.23-13.88-10.91-.8-9.49,4.18-16.83,9.09-24,7.76-11.33,16.27-22.14,23.92-33.53,3.44-5.12,5.58-11.1,8.24-16.73a10.35,10.35,0,0,0,.39-2.77c-1.06-.09-1.89-.25-2.71-.23-7.42.18-12.69-5.35-10.75-12.61,3-11.42,6.6-22.75,10.72-33.83,7-18.94,14.73-37.62,22-56.47,4.16-10.8,8-21.71,12-32.57a5.52,5.52,0,0,1,2.06-2.92C78.49,128,75,140.77,71,153.39c-6.58,20.81-13.61,41.47-20.23,62.27-2.68,8.43-4.73,17.07-7.11,25.59-.67,2.38.35,3.32,2.58,3.28,1.12,0,2.24-.22,3.36-.35,6.48-.76,10.3,3.31,9.1,9.72A63.35,63.35,0,0,1,49,278.06c-8.57,12.59-17.67,24.82-26.28,37.39a55.17,55.17,0,0,0-5.45,11.41c-.53,1.38-.36,3.84.54,4.74s3.17.59,4.73.27c4-.8,7.93-2.32,12-2.8,6.12-.73,11,3.93,10,10a27.71,27.71,0,0,1-4.42,11.71c-6.78,9.41-14.27,18.31-21.37,27.49a56.06,56.06,0,0,0-5.49,8.45c-2.6,5-1.82,7.19,2.9,10.3,6.94,4.56,14.8,6.68,22.78,8.12C49,407,59.12,408.39,69.28,409.51c3.78.42,7.73-.24,11.52-.9.87-.15,1.92-2.34,2-3.62.38-12.87.43-25.74.83-38.6.52-16.73,1.27-33.44,1.93-50.16,0-.36.18-.71.93-1.13.22,2.67.55,5.34.64,8q1.36,40.61,2.65,81.22c.07,2.31.33,3.89,3.29,3.58a273.33,273.33,0,0,0,41.53-7.64c9.83-2.62,12.68-10.1,15.24-18,.62-1.9-1.46-4.8-2.55-7.12-2.07-4.39-4.6-8.59-6.44-13.06a20.1,20.1,0,0,1,.41-16.78,15.93,15.93,0,0,1,7.77-6.88c10-4.05,10.94-5.54,5.15-14.49-10.24-15.81-21.13-31.21-31.23-47.11A147.1,147.1,0,0,1,111,253.65c-2.89-7.05.1-11.75,7.53-13.76,2.9-.78,4-2.56,3.68-5.19-.44-4-.6-8.09-1.89-11.8-6.81-19.54-13.89-39-21-58.43-5.24-14.38-10.64-28.7-15.92-43.07a2.45,2.45,0,0,1,.57-2.22q6.87,15.72,13.75,31.43l1.11.07c19.1-38,42.21-73.5,68.49-107.83,1.91,3.25,3.67,5.91,5.09,8.73,8.85,17.62,17.6,35.28,26.48,52.88a4.61,4.61,0,0,0,2.7,2.32c12.49,2.44,21.83,10.72,32.15,17.17.42.27.82.58,1.24.85,5.54,3.68,10.71,5.21,17.64,1.94,17.84-8.43,37-12,56.7-12.09,3.43,0,5.13-.19,6.17-4.74a105.72,105.72,0,0,1,8.93-23.35C335.63,64.25,347.38,42.23,358.75,20c2.5-4.87,4.34-10.06,6.49-15.1.32-.74.71-1.44,1.46-2.95,1.11,2.31,2,3.87,2.64,5.52,6,15.11,15.89,27.62,25.76,40.23q16.51,21.06,32.42,42.61c3.67,5,6.79,10.7,6.25,17.28-.2,2.54-1.8,5-2.59,7.47-.35,1.1-.8,2.72-.28,3.47,4.48,6.52,8.41,13.28,10.42,21,.1.42.52.77,1.57,2.21,20-49,44.64-94.8,68.25-141.77A17.17,17.17,0,0,1,513,2.36c12.2,23.48,25.2,46.59,36.33,70.57,11.65,25.1,22.06,50.82,32,76.66a388.9,388.9,0,0,1,21.85,82c2.81,18.74,3.88,37.6.31,56.35-4.64,24.37-17.82,38.62-44.06,42.89-13,2.12-26.31,2.45-39.5,3.31-5.7.37-5.72,0-5.58,5.82.47,19.36.56,38.73.79,58.09.1,8.41-.53,7.09,7.33,7.21,18.49.28,37,.25,55.48.65,9.85.21,19.69,1.06,29.54,1.61v8.25c-13.58-.7-27.15-1.81-40.74-2-23-.34-46-.14-68.95,0-4.38,0-8.76.54-13.21.84a10,10,0,0,0,.29,1.72c6.14,13.78,12.65,27.41,18.35,41.36,10.08,24.7,16.14,50.35,16.82,77.16a7.59,7.59,0,0,0,2.44,5,68.39,68.39,0,0,1,18.91,24.8c1.34,2.9,2.64,3.43,5.72,2.5,15.6-4.73,30.81-4.49,45,4.65,5.21,3.36,10.25,7,15.37,10.51ZM479.28,166.55l1.11-.81c11.12,12.91,18.54,28.38,28.07,42.4l1.41-.27V122.26h1.49l1.42,84.9.92.38q9.36-11.39,18.7-22.78l.84.66c-1,1.72-1.92,3.47-3,5.15-5.17,8.25-10.49,16.41-15.48,24.76a14.09,14.09,0,0,0-2,7c.08,22.49.38,45,.61,67.46,0,4.17,0,8.33,0,12.49l1.71.64q12.72-18.19,25.45-36.37a3.72,3.72,0,0,1-.46,2.9c-6.94,11.56-13.68,23.25-21,34.57-3.35,5.18-6.06,10.06-5.36,16.54.32,2.89,1,4.15,3.87,4.07,15.47-.42,31-.32,46.1-4.52,11.49-3.19,20.77-9.15,25.91-20.31,4.75-10.3,5.81-21.35,6.12-32.51.69-25-4.14-49.2-10.52-73.14-6.66-25-15.43-49.3-25.22-73.22a1015.27,1015.27,0,0,0-46-96.7,16.24,16.24,0,0,0-2-2.5,13.79,13.79,0,0,0-2.32,2.6c-5.2,10.1-10.55,20.14-15.42,30.4C481,82.86,467.41,111,454.62,139.43a447.68,447.68,0,0,0-25.51,74.28c-.9,3.59-2.15,7.38-1.79,10.94,1,10.18,2.66,20.3,4.22,30.41,2.7,17.52,5.59,35,8.24,52.53a8.51,8.51,0,0,0,5.9,7.39c1.4.52,2.76,1.15,4.16,1.67,18,6.71,36.89,7.2,55.75,7.75a3.5,3.5,0,0,0,2.55-2.24c.49-3.11.13-6-2.39-8.58A141.76,141.76,0,0,1,494,300c-13.45-18-23.67-37.84-33.23-58.07q-3.32-7-6.61-14.1c.71-.08,1,.09,1.16.34,4.74,8.07,9.53,16.1,14.2,24.21,10.85,18.85,22.17,37.37,36,54.23.53.65,1.44,1,3,2,0-4.52,0-8.08,0-11.65.38-24.73.84-49.47,1.06-74.2a15.37,15.37,0,0,0-2.27-7.21C498.07,199.16,488.65,182.87,479.28,166.55ZM167,57.92a27.15,27.15,0,0,0-1.94,2.32c-9,13.94-18.08,27.85-27,41.85-10.87,17-21.55,34.22-32.45,51.24-2.27,3.54-2.16,6.56-.55,10.39,7.53,17.81,15,35.67,21.89,53.72,2.12,5.5,3,11.59,3.67,17.5.81,7.54-1.85,11.06-9,13.41-1.91.64-2.78,1.58-1.8,3.58,1.36,2.8,2.41,5.81,4.12,8.38,6.34,9.57,13.07,18.88,19.31,28.51,7.52,11.61,15,23.26,21.87,35.27,4.88,8.57.48,17.59-7.33,20.86-1.95.82-4.17,1.1-6,2.14a6.93,6.93,0,0,0-3.22,3.66c-1.94,7.69,1.88,13.86,5.8,21a47.44,47.44,0,0,0,2.54-5c3.87-11.18,8.29-22.21,11.3-33.61a215,215,0,0,0,6.55-34.88c1.75-19.26,2.4-38.62,3.11-58,.62-17.2,2.23-34.16,9.36-50.08,1.29-2.88,1.08-4.83-.91-7.41-11.15-14.47-16.7-31-15.9-49.22.56-12.43,7-23,20.47-26.4,2.25-.56,4.58-.76,7.36-1.2ZM267.42,525l-.36,1.31a21,21,0,0,1-4.56-.06c-3.22-.74-4.07.62-3.82,3.53q.31,3.72.3,7.46c-.05,14.36-.26,28.73-.11,43.09a6.85,6.85,0,0,0,3,5.13,44.4,44.4,0,0,0,11.88,4.25c10.51,2,21.08,4.21,31.71,4.88,16.2,1,32.5,1,48.41-3.12,5.52-1.44,10.84-3.62,16.31-5.27,4.78-1.43,5.84-2.61,5.84-7.57,0-9.25.14-18.5-.06-27.74-.06-2.72-1.08-5.43-1.66-8.14-.91-.15-.65-.43-.51-.76.68-1.58,1.82-3.19,1.76-4.74,0-.72-2.37-1.5-3.77-2-2.37-.8-4.83-1.37-7.25-2-.05-.45-.11-.9-.17-1.34,1.73-1,3.41-2.19,5.2-3.12,3.92-2,4.32-4,1.7-7.53l-9.58,1.51c0-1.59.23-2.14.61-2.56,3.87-4.22,7.85-8.35,11.57-12.69a10.18,10.18,0,0,0,2-4.73c.36-2-.29-3.16-3-2.7a116.5,116.5,0,0,1-32.46,1.28c-14.21-1.54-28.25-1.58-42.3,2.43a36.52,36.52,0,0,1-23.22-1.22,129.94,129.94,0,0,0-13.21-3.87c-.78-.21-1.76.33-2.65.52a9.05,9.05,0,0,0,1,2.57,25.59,25.59,0,0,0,2.81,2.47c3.54,3.22,7.07,6.47,10.6,9.7l-.35,1.37-12.67-1.11C260.77,519,264.24,521.93,267.42,525Zm99-498.69c-10.23,17-20.27,33.36-30,49.93-6.19,10.54-12.07,21.27-17.74,32.1-2.4,4.6-1.13,6.11,4,6.85,10.85,1.57,21.71,3.09,32.49,5.07,3,.54,3.44-.2,3.63-2.73.53-7,1.1-13.94,1.92-20.88.53-4.47,1.52-8.89,2.31-13.33l1.36.07a198.36,198.36,0,0,1,4.46,39.15c1.73-.93,2.78-1.48,3.81-2.05,8.88-4.88,17.9-9.4,28.06-11a37.47,37.47,0,0,1,19.88,1.88c1.54.59,4.35,1.12,4.92.39,1.17-1.51,1.54-3.88,1.63-5.92a7.3,7.3,0,0,0-1.5-4.16c-5.12-7.21-10-14.65-15.67-21.41C395.63,63.12,380.07,47,368.25,27.83A7.9,7.9,0,0,0,366.44,26.31Zm78.71,299c-.23.63-.53,1-.45,1.3.45,1.67,1,3.31,1.49,5,7.13,25.74,20.05,48.87,32.56,72.17a5.06,5.06,0,0,0,3.81,2.07c6.62.06,13.24-.41,19.85-.29,3.84.07,4.94-1.46,5-5.07q.25-31.29.81-62.56c.05-3-1.08-3.75-4-3.82C484.28,333.63,464.39,332.67,445.15,325.33ZM315.55,465.81c12.74-.63,23.52-.73,34.19-1.81,9.16-.92,18.24-2.8,27.28-4.61,1.77-.35,3.21-2.33,4.8-3.56-1.18-1.17-2.16-2.7-3.56-3.44-8.77-4.64-18.46-6.13-28.11-7.27a251.72,251.72,0,0,0-58.71-.54c-11.18,1.28-22.36,2.57-32.66,7.52-1.55.74-2.55,2.63-3.81,4,1.52,1.15,2.9,2.88,4.61,3.32,5.79,1.5,11.65,3.08,17.57,3.64C290.58,464.32,304.05,465,315.55,465.81ZM193.12,175.75l1.49-.39a63.13,63.13,0,0,1,3.86-5.91c2.22-2.71,2.36-4.11-1.36-5.9-7.7-3.7-8.81-10.93-3.41-17.72a4,4,0,0,0,.43-3c-1.15-4.94.64-8.25,5.69-10.14,4.69-1.76,11,0,12.69,3.54.31.64.28,2-.09,2.27a3.29,3.29,0,0,1-2.65.27c-1.23-.53-2.18-1.67-3.38-2.3-3.12-1.64-5.64-.07-7.7,2s-.28,3.77,1.14,5.44c1.83,2.15,1.09,3.56-1.48,4.37s-4.49,2.31-3.92,5.45,5,7.48,8,7.75a4.11,4.11,0,0,0,3-1.05c8.49-8.79,17.09-17.43,28.43-23.91-1.95-1.34-3.39-2.41-4.91-3.35-7.84-4.85-15.37-10.36-23.64-14.33-12.34-5.92-23.72,1.45-24.6,15.11-.68,10.63,2.26,20.51,6.47,30.07C188.88,168,191.1,171.85,193.12,175.75ZM374.91,131c.35.93.36,1.27.53,1.38,9.55,6.24,18.3,13.39,25.37,22.46a2.77,2.77,0,0,0,2.53.79c2.31-1.37,4.17-3.23,3.82-6.3s-2.47-3.81-5.05-4c-.86,0-1.81.32-2.59.07a22.77,22.77,0,0,1-3.4-1.67c.7-.9,1.44-1.77,2.09-2.7,1-1.48,2-3,3-4.51-2.13-.63-4.26-1.67-6.42-1.74-1.15,0-2.26,1.87-3.58,2.42-1,.4-2.25,0-3.39,0,.23-1,.19-2.14.75-2.84,4-5,11-5.61,15.06-1.13a6.65,6.65,0,0,1,1.62,5.21c-.57,2.24,0,3.09,1.74,4.16,5.12,3.12,5.86,9.25,1.74,13.67-1.26,1.35-2.65,2.55-4.12,4l5,7.09c2.87-3.92,5.53-7.17,7.77-10.69,3.89-6.13,7.42-12.48,8.1-19.92.89-9.71-5.17-16.81-14.86-17.42C397.21,118.48,386.19,124.9,374.91,131ZM89.86,423.6H90c0,3.12.06,6.24,0,9.36-.07,2.56,1.11,3.38,3.5,2.87,11.69-2.52,23.4-5,35.05-7.66a6.23,6.23,0,0,0,3.49-3.29c2.5-5.56,4.71-11.26,6.94-16.94a8.89,8.89,0,0,0,.17-2.75,13,13,0,0,0-2.42.06c-5.36,1.05-10.67,2.56-16.08,3.17-9.15,1.05-18.37,1.59-27.56,2.27-2.33.17-3.34,1.22-3.26,3.56C89.93,417.37,89.86,420.48,89.86,423.6Zm259.41,70.3,0-.71c4.49,0,9,.4,13.45-.11A101.35,101.35,0,0,0,377.32,490c3.14-.85,5.65-2.83,5.93-6.44.18-2.18-.67-3.29-3.19-2.46a37,37,0,0,1-7.23,1.76c-10.88,1.34-21.75,2.81-32.66,3.7a287.83,287.83,0,0,1-79.69-4.37c-5.84-1.16-3.65,3.45-4.71,5.37-1.31,2.41,1.39,2.69,3,2.92,7.65,1.07,15.2,2.22,22.47,5.22,6.54,2.7,13.36.86,19.86-.82,9.11-2.37,18.11-4.26,27.66-2.73C335.52,493.23,342.43,493.35,349.27,493.9Zm-23.53-13.6c7.85-.6,23-1.61,38.19-3,4.69-.42,9.31-1.76,13.91-2.88,3.2-.77,2.11-3.36,1.5-5.2-.32-1-2.13-2.37-2.9-2.16-15.83,4.18-32.07,4.91-48.27,5.23-13.22.26-26.48,0-39.66-1-9.66-.69-19.22-2.84-28.82-4.36-1.54-.24-3.53-2-4.17.94-.5,2.3-1.72,5.08,1.91,6.2,1.43.45,2.87.87,4.33,1.18C280.42,479.23,299.37,480,325.74,480.3ZM422.1,199.61c1-2.17,1.67-3.3,2.08-4.51,5.18-15.06,10.29-30.15,15.51-45.2,1.43-4.14,0-10.14-3.57-13.49a9,9,0,0,0-.6,1.74c-1.41,11.67-6.17,22.32-14.26,30.28-6.79,6.68-6.54,12.28-2.88,19.64C420,191.31,420.65,195,422.1,199.61Z"/><path d="M360.53,368.78a13.79,13.79,0,0,0-1.31,1.88c-6.13,12.37-19.09,14.52-30.61,5.81-2-1.5-3.64-4.36-5.66-4.56s-4,2.36-6.1,3.58c-7.17,4.21-13.48,3-18.55-3.24-.54-.67-2.3-1.21-2.9-.84-9.54,6-18.82,3.54-27.11-1.93-5.7-3.77-10.08-4.06-15.06.24-1.84,1.59-3.4,1.23-4.56-.89-.85-1.54-1.68-3.08-2.53-4.62l.83-.43c.5.79,1,1.57,1.52,2.36,1.25,1.91,3,2.65,4.63.83,5-5.57,10.26-5.45,16.17-1.57a24.19,24.19,0,0,0,6.23,2.47c9.6,3,15.28,1,20.84-7.36.94-1.41,1.91-2.78,3.41-4.95,1.35,3.89,2.3,6.93,3.45,9.89,1.81,4.64,5.18,6,9,3,3.05-2.4,5.3-5.84,7.82-8.89a38.11,38.11,0,0,0,2.48-3.9c1.82,2.46,3,4.64,4.74,6.31,3.27,3.21,6.48,6.66,10.32,9,5.11,3.13,9.35,1.91,12.33-3.35,2-3.51,2.9-7.63,4.22-11.51.43-1.27.61-2.63,1.09-4.78,3.27,2.77,6.09,5.29,9.05,7.63a103.41,103.41,0,0,0,9.91,7.33c4.8,3,7.4,1.86,8.45-3.71.71-3.76.51-7.7.72-11.56.06-1.17.11-2.35.2-4.35a19.92,19.92,0,0,1,2.37,2.17,39.84,39.84,0,0,0,13,11.6c2.55,1.41,4.19,1.12,4.35-1.94.2-3.92,0-7.86,0-12.36a15.28,15.28,0,0,1,2.48,1.31c4.72,3.87,9.49,7.7,14.07,11.73,2.42,2.13,3.55,1,4.32-1.28a55.79,55.79,0,0,0,1.29-5.65l1.44.27-2.21,13.06L409,356.29c-.86,5.53-1.63,10.47-2.46,15.82l-15.41-8.53c-.52,1.43-1,2.51-1.32,3.63-2.43,8.07-8.4,11.29-16.2,8.21C369.16,373.66,365,371.1,360.53,368.78Z"/><path d="M295.5,222.26c4.88.76,9.34,1.27,13.7,2.19,3.43.73,6.58,2.43,7.12,6.29.59,4.27-1.56,7.61-5.21,9.6a55.24,55.24,0,0,1-9.64,4c-3.25,1-4.1,3-3.23,6,1,3.43,3,6.06,6.63,7,4.64,1.18,8.91.43,12.57-2.83.65-.57,1-1.72,1.72-1.91a26.38,26.38,0,0,1,4.65-.54c0,1.45.56,3.24-.09,4.29-4.94,8.1-17.79,10.33-25.48,4.26-2.61-2.07-4.08-1.92-6.57.11-6.91,5.64-19.62,3.79-25-3.37-1.19-1.59-2.7-3.45-.59-5.26s3.77-.54,5.35,1.28c5.49,6.33,14.5,6.17,19-.24,2.32-3.29,1.73-5.92-1.59-8.19a104,104,0,0,1-10.25-7.5c-5.16-4.5-4.05-10.65,2.51-12.67C285.85,223.32,290.9,223,295.5,222.26Zm1.53,6.23c-3,.4-6.08.68-9.12,1.3a41.26,41.26,0,0,0-5.69,2c1.34,1.51,2.45,3.37,4.07,4.45,2.54,1.69,5.63,4.28,8.11,3.92,4.66-.68,9.1-3.08,13.52-5,.9-.39,2-2.19,1.79-2.78a4.71,4.71,0,0,0-2.94-2.35C303.63,229.28,300.4,229,297,228.49Z"/><path d="M211.38,343.67a90.63,90.63,0,0,0,.6,9.16,84,84,0,0,0,2.18,8.12c2.6-1,5.24-1.87,7.77-3a21.66,21.66,0,0,0,3.39-2.24c1.66,5.85,3.22,11.3,5,17.37a80.46,80.46,0,0,1-5.54-5.93c-1.58-2.06-2.62-2.6-5.07-.75-3.42,2.59-7.43,4.4-11.83,6.91-.54-2.83-1-5.18-1.43-7.55-.51-2.91-1.75-3.21-4.42-1.9-6,2.95-12.17,5.48-18.28,8.18-2.82-6.85,3.73-28,12.15-37.8-1.37,7.95-2.73,15.9-4.2,24.46C199.6,355.46,204.74,349.65,211.38,343.67Z"/><path d="M339.31,186.71a6.41,6.41,0,0,1,6.12,6.3,6.13,6.13,0,0,1-5.86,6.05,5.78,5.78,0,0,1-6-5.78A6.24,6.24,0,0,1,339.31,186.71Z"/><path d="M249.05,191.86c.07-3.72,2.19-5.79,5.86-5.73a5.61,5.61,0,0,1,5.65,6.07,6,6,0,0,1-6.16,6.13C251.26,198.17,249,195.41,249.05,191.86Z"/><path d="M510.1,670.23c3.38-4.81,7.06-9.45,10-14.5,1.51-2.59,2-5.89,2.44-9,.5-3.51-.35-4-3.69-2.95-9.57,3-17.87,7.71-23.15,16.64-.25.44-.38,1-1,1.29-2.44-14.11-9-25.11-21.28-33.67,0,6.36-.59,11.95.12,17.37,1.41,10.72,7.41,17.92,18,21.15,6.74,2,11,9.71,9.16,16a13.68,13.68,0,0,1-16.26,9.8,13.47,13.47,0,0,1-10.29-15.22c.92-5.28,4.36-8.8,9.69-11.12-.92-.81-1.41-1.56-2.08-1.79-9.63-3.25-14-11-16.27-20-2.47-9.84-1.88-19.76,1.25-29.78,17.17,6.82,27,18.82,28.51,38.23a32.53,32.53,0,0,0,2.58-3c7-11.39,17.8-15.87,30.59-16.48A3.3,3.3,0,0,1,531,635a29.4,29.4,0,0,1-20.27,35.27A.92.92,0,0,1,510.1,670.23Zm-15.58,9.13a7,7,0,0,0-7.08-7.08,7.15,7.15,0,0,0-7.12,7.1c-.06,3.43,3.68,7.28,7.1,7.29S494.49,682.93,494.52,679.36Z"/><path d="M361.55,700.74c-.76-2.46-1.42-4.28-1.87-6.16-2.63-10.93-1-21.59,2.25-32.11,1.43-4.62,1.81-4.69,7.76-2.68C382.33,664,390.6,675.56,390,688.17c-.36,7.33-4.17,12.64-10.07,16.64a8.32,8.32,0,0,1-2,.89,16.73,16.73,0,0,1-2.46.27c6.69-6.09,9.75-12.75,7.3-20.89-2.08-6.87-6.65-11.78-13.5-15.29-3.32,10.29-6.06,20.32-4.05,31,.63,3.32,2.63,5.32,6.28,5.93,6.44,1.06,11.34,7.52,11.26,14.27a14.62,14.62,0,0,1-12.42,14.31c-6.65,1.11-13.88-2.91-16-9.06a16,16,0,0,1-1-5.84c.15-2.86-1-3.37-3.55-3.23-6.91.38-13.77,0-20.12-3.17-3.48-1.73-6.24-4.17-6.42-8.5s2.46-6.48,5.82-8.36c6.65-3.72,13.62-4,20.65-1.73C353.46,696.63,357,698.69,361.55,700.74Zm-27.85,5c2.87,3.31,14.09,8.5,18.76,8.79.48,0,1.18.12,1.42-.14,2.73-2.89,5.38-5.84,8-8.71C352.35,701.35,339.71,701.27,333.7,705.73Zm42.52,15a8.63,8.63,0,0,0-8.33-8.42c-4.24,0-8.28,4.1-8.38,8.47-.1,4.6,3.75,8.21,8.8,8.27C372.5,729.1,376.23,725.19,376.22,720.74Z"/><path d="M484.24,775.17c3.59-9.32,6.92-18.42,12.56-26.37l1.28.27c-.37,4.49-.31,9.06-1.2,13.44-2.3,11.37-5,22.65-7.55,34a41.44,41.44,0,0,0-.61,5.11c-.79,8.68-1.56,17.35-2.38,26,0,.56-.49,1.08-1.46,1.62a15.06,15.06,0,0,1-.36-3c1.22-18.88-4.37-36.31-11.66-53.27A358.56,358.56,0,0,0,436.3,708.2a6.35,6.35,0,0,1-1.08-3.08C457,724.52,473.9,747.35,484.24,775.17Z"/><path d="M514.14,787.78c-3.37-21.72,23.64-91.5,41.17-106.66a22.91,22.91,0,0,1-.87,3.17,549,549,0,0,0-24.24,65.93C526.34,763.09,520.57,775,514.14,787.78Z"/><path d="M388.55,815.22c-25.83-15.86-53.86-25.93-82.54-36.29C328.66,772.31,380.09,795.21,388.55,815.22Z"/><path d="M386.65,750.16a9.65,9.65,0,0,1-9.83,9.63,10.1,10.1,0,0,1-9.6-9.62c0-5.17,4.6-10,9.63-10.11C382.19,740,386.61,744.51,386.65,750.16Zm-4.5-.27a5.19,5.19,0,0,0-5.26-5.2,5.14,5.14,0,0,0-5.08,5.37c.07,2.63,2.86,5.49,5.27,5.41C379.69,755.39,382.18,752.64,382.15,749.89Z"/><path d="M410.31,735.67a9.78,9.78,0,0,1-19.56,0,10.31,10.31,0,0,1,9.76-9.93C405.42,725.62,410.25,730.51,410.31,735.67Zm-4.68.07a5.14,5.14,0,1,0-10.27-.15c0,2.62,2.61,5.45,5.09,5.49S405.54,738.56,405.63,735.74Z"/><path d="M158,156.4c6.43,48.65,3.27,97.32-.26,146C148.57,253.74,151.32,205.09,158,156.4Z"/><path d="M273.6,528.73c.24,1.25.56,2.5.7,3.77,1.33,12.16,2.73,24.32,3.84,36.5.24,2.63,1.13,4.4,3.5,5.06,8.26,2.29,16.54,4.54,24.87,6.54,4.07,1,8.29,1.37,13.27,2.15-1.26.79-1.85,1.47-2.52,1.54-11.77,1.38-23.56,3.32-35.28-.24a41.9,41.9,0,0,1-6.25-2.43c-4.35-2.14-6.36-5.3-6.74-10.56-1-13.48,1.15-26.64,2.72-39.88a11.17,11.17,0,0,1,1-2.51Z"/></g></g></svg>