<svg xmlns="http://www.w3.org/2000/svg" viewBox="0 0 176.05 192.34"><title>Recurso 3</title><g id="Capa_2" data-name="Capa 2"><g id="Capa_1-2" data-name="Capa 1"><path d="M111.23,148.5l-.55,23.7a.55.55,0,0,0,.4.55c2,.56,10.49,3,9.33,4.19-1,1-4.55,1-6.14,1a.56.56,0,0,0-.55.73c.81,2.52,3.21,10.45,1.63,10.29-1.21-.12-3.43-3.75-4.86-6.32a.56.56,0,0,0-1,.32c.33,3.76.71,9.9-.47,9.37-1.47-.65-3.65-9.7-4.19-12a.56.56,0,0,0-.66-.42c-2,.44-9,1.83-7.89.07s7.09-4.64,8.5-5.3a.54.54,0,0,0,.32-.48l1.09-26a.58.58,0,0,1,.41-.52l4.2-1.15a.56.56,0,0,1,.7.63l-.22,1.34A.25.25,0,0,0,111.23,148.5Z"/><path d="M129.6,142.59l1.29,19.77a.2.2,0,0,1-.13.21c-1.25.54-10.53,4.57-10.35,6.31s9.25-1.53,10.53-2a.19.19,0,0,1,.24.07c.89,1.21,7.69,10.33,9.09,9.8,1.19-.44-2.46-7.27-4-10.06a.22.22,0,0,1,.34-.27c2.12,1.9,7,6.09,8,5.65s-3.79-6.42-5.35-8.26a.22.22,0,0,1,.23-.35c1.88.51,7.08,1.81,8.3.74,1.42-1.24-10.65-5.8-12-6.32a.2.2,0,0,1-.14-.19l-1.28-18.2a.22.22,0,0,0-.35-.17l-4.26,3.08A.2.2,0,0,0,129.6,142.59Z"/><path d="M117,69s1.75-14,.25-25.23c0,0-1.25-14-6.75-16.24S104.05,36,104.05,36s-4.5-23.23-9.75-25.23-9.49,10.5-9.49,10.5-6-20-15.24-19.74-8.49,13-8.49,13S56.08-.49,47.59,0s-2.75,25.73-2.75,25.73S37.1,10.5,27.35,12.5,29.6,41.23,29.6,41.23s-9.24-12.49-18-7.74,3,23.48,3,23.48-5.49-5.75-11.49-.5-2,14,.75,19S9.12,85,9.12,85s-8.5-1.75-5.5,9.49,18,26.23,30,32.73,34,18.23,34,18.23Z" style="fill:#282828"/><path d="M173.92,40.84s-5.18-1.22-7.92.91-1.07,6.1-1.07,6.1,3.66,2,4.88,1.52,5.33-3.5,5.63-4.88-5.94.77-5.94.77Z" style="fill:#f9d05f"/><path d="M141,71c1.47-4.18,2.44-9.14,4.72-14.32s6.55-10.81,10-11.58A97.07,97.07,0,0,0,166,41.75a13.82,13.82,0,0,1,.15,3.81c-.15,2.59,3.35,2.74,4.88,5.79a5.91,5.91,0,0,0,5,3,22.5,22.5,0,0,0-4.87,3.65c-1.37,1.68,3,1.22,3,1.22s-3.81,1.83-5,4.11-6.14,8.17-6.45,11.83c0,0-.75,32.78-6.37,43.65s-19.11,22.48-29.23,25.85-18.36,5.25-30.72,2.44-31.1-5.06-42.72-14.8S29,105.74,34,100.69s9.36-.94,9.36-.94S33.47,82,41.72,75.21s16.86.18,16.86.18-6-18.36,7.31-21.17S84.06,63.4,84.06,63.4s3-12.74,14-10.87,8.43,15.74,8.43,15.74,2.07-4.31,6.19-3.74,4.49,5.43,3.56,9S114.41,87,121.91,87.76,138.21,79,141,71Z" style="fill:#123001"/><path d="M161.29,47.9a7.23,7.23,0,0,0-4.87,2.29c-2.14,2.28-4,4.26-4,1.83s.45-4.88,3.8-5.64S161.75,45,161.29,47.9Z" style="fill:#d10505"/><path d="M143.08,73.83a.42.42,0,0,1-.22,0,.5.5,0,0,1-.23-.67l3.19-6.37a.5.5,0,1,1,.89.45l-3.18,6.37A.51.51,0,0,1,143.08,73.83Z" style="fill:#fff"/><path d="M147,78.14a.45.45,0,0,1-.2,0,.5.5,0,0,1-.25-.67l3-6.55a.49.49,0,0,1,.66-.25.5.5,0,0,1,.25.66l-3,6.56A.52.52,0,0,1,147,78.14Z" style="fill:#fff"/><path d="M154,77.39a.27.27,0,0,1-.13,0,.5.5,0,0,1-.36-.61l1.5-5.62a.5.5,0,0,1,.61-.35.5.5,0,0,1,.36.61L154.43,77A.5.5,0,0,1,154,77.39Z" style="fill:#fff"/><path d="M158.44,81.7h-.07a.51.51,0,0,1-.42-.58l.93-6a.51.51,0,0,1,.58-.42.49.49,0,0,1,.41.57l-.93,6A.5.5,0,0,1,158.44,81.7Z" style="fill:#fff"/><path d="M147.39,86.57a.59.59,0,0,1-.23,0,.51.51,0,0,1-.22-.68l2.81-5.43a.51.51,0,0,1,.68-.22.51.51,0,0,1,.21.68l-2.81,5.43A.5.5,0,0,1,147.39,86.57Z" style="fill:#fff"/><path d="M153.57,92a.35.35,0,0,1-.17,0,.5.5,0,0,1-.3-.64L155,86.27a.5.5,0,0,1,.64-.29.49.49,0,0,1,.29.64L154,91.68A.51.51,0,0,1,153.57,92Z" style="fill:#fff"/><path d="M159,92.38a.5.5,0,0,1-.5-.5V86.63a.51.51,0,0,1,.5-.5.5.5,0,0,1,.5.5v5.25A.5.5,0,0,1,159,92.38Z" style="fill:#fff"/><path d="M153.76,104.75a.45.45,0,0,1-.16,0,.5.5,0,0,1-.31-.64L155.72,97a.5.5,0,1,1,.95.33l-2.44,7.12A.49.49,0,0,1,153.76,104.75Z" style="fill:#fff"/><path d="M139.71,84.32a.48.48,0,0,1-.23,0,.5.5,0,0,1-.22-.67L142.07,78a.49.49,0,0,1,.67-.22.49.49,0,0,1,.22.67l-2.81,5.62A.49.49,0,0,1,139.71,84.32Z" style="fill:#fff"/><path d="M142.33,87.7a.46.46,0,0,1-.23-.06.49.49,0,0,1-.21-.67l2.62-5.06a.5.5,0,0,1,.67-.22.51.51,0,0,1,.22.68l-2.63,5.06A.5.5,0,0,1,142.33,87.7Z" style="fill:#fff"/><path d="M147.58,96.5a.47.47,0,0,1-.17,0,.49.49,0,0,1-.3-.64L149,90.59a.5.5,0,1,1,.94.33l-1.87,5.25A.52.52,0,0,1,147.58,96.5Z" style="fill:#fff"/><path d="M153.38,115.05l-.17,0a.49.49,0,0,1-.29-.64l2.62-7.12a.5.5,0,1,1,.94.34l-2.63,7.12A.48.48,0,0,1,153.38,115.05Z" style="fill:#fff"/><path d="M147.58,107a.58.58,0,0,1-.19,0,.5.5,0,0,1-.28-.65l3-7.5a.5.5,0,0,1,.93.38l-3,7.49A.51.51,0,0,1,147.58,107Z" style="fill:#fff"/><path d="M139,100.44a.53.53,0,0,1-.24-.06.52.52,0,0,1-.21-.68l3.75-7.12a.52.52,0,0,1,.68-.21.51.51,0,0,1,.21.68l-3.75,7.12A.5.5,0,0,1,139,100.44Z" style="fill:#fff"/><path d="M131.84,94.44a.5.5,0,0,1-.34-.86l5.43-5.06a.5.5,0,1,1,.68.73l-5.43,5.06A.5.5,0,0,1,131.84,94.44Z" style="fill:#fff"/><path d="M126.59,90.69a.5.5,0,0,1-.43-.24.51.51,0,0,1,.18-.69l6.93-4.12a.5.5,0,0,1,.68.18.48.48,0,0,1-.17.68l-6.93,4.12A.48.48,0,0,1,126.59,90.69Z" style="fill:#fff"/><path d="M130.53,102.5a.52.52,0,0,1-.37-.16.5.5,0,0,1,0-.71l5.62-5.24a.49.49,0,0,1,.7,0,.5.5,0,0,1,0,.71l-5.62,5.24A.51.51,0,0,1,130.53,102.5Z" style="fill:#fff"/><path d="M139.14,108.31a.5.5,0,0,1-.35-.15.51.51,0,0,1,0-.71l4.87-4.87a.5.5,0,0,1,.71.71l-4.87,4.87A.51.51,0,0,1,139.14,108.31Z" style="fill:#fff"/><path d="M145.51,116a.51.51,0,0,1-.41-.79l3.38-4.87a.5.5,0,1,1,.82.57l-3.37,4.87A.52.52,0,0,1,145.51,116Z" style="fill:#fff"/><path d="M145.33,125.92a.56.56,0,0,1-.32-.11.51.51,0,0,1-.07-.71l4.49-5.62a.52.52,0,0,1,.71-.07.49.49,0,0,1,.07.7l-4.49,5.62A.52.52,0,0,1,145.33,125.92Z" style="fill:#fff"/><path d="M135.59,118.42a.52.52,0,0,1-.38-.17.51.51,0,0,1,0-.71l4.12-3.56a.52.52,0,0,1,.71.06.49.49,0,0,1-.06.7l-4.12,3.56A.49.49,0,0,1,135.59,118.42Z" style="fill:#fff"/><path d="M127.53,112.05a.5.5,0,0,1-.26-.93l5.06-3a.51.51,0,0,1,.69.18.49.49,0,0,1-.18.68l-5.06,3A.45.45,0,0,1,127.53,112.05Z" style="fill:#fff"/><path d="M120.41,99.69a.5.5,0,0,1-.49-.4.49.49,0,0,1,.39-.59l5.43-1.13a.5.5,0,1,1,.2,1l-5.43,1.13Z" style="fill:#fff"/><path d="M113.29,92.57a.5.5,0,0,1,0-1l6.74-.19a.48.48,0,0,1,.51.49.5.5,0,0,1-.48.51l-6.75.19Z" style="fill:#fff"/><path d="M133.9,129.48a.51.51,0,0,1-.4-.2.5.5,0,0,1,.1-.7l5.43-4.12a.5.5,0,1,1,.6.79l-5.43,4.12A.5.5,0,0,1,133.9,129.48Z" style="fill:#fff"/><path d="M124.16,140.53a.51.51,0,0,1-.45-.27.51.51,0,0,1,.21-.67l7.12-3.75a.5.5,0,0,1,.47.89l-7.12,3.74A.49.49,0,0,1,124.16,140.53Z" style="fill:#fff"/><path d="M124.53,128.35a.49.49,0,0,1-.35-.14.5.5,0,0,1,0-.7l4.87-5.06a.5.5,0,1,1,.72.69l-4.87,5.06A.51.51,0,0,1,124.53,128.35Z" style="fill:#fff"/><path d="M126.4,117.86a.49.49,0,0,1-.41-.22.51.51,0,0,1,.14-.7l5.43-3.56a.5.5,0,1,1,.55.84l-5.43,3.56A.57.57,0,0,1,126.4,117.86Z" style="fill:#fff"/><path d="M86.87,105.93s10.49-7.49,21.92-4.12,11.81,16.11,10.49,23.79-17,27.17-20.6,31.86-9.93,11-11.62,8.43.56-10.68.56-10.68-7.87,12-12.18,10.11a7.08,7.08,0,0,1-4.12-9.18c1.13-3.37,3.94-10.68,3.94-10.68s-5.62,8.81-8.44,4.88S70.38,117.74,86.87,105.93Z" style="fill:#301b02"/><path d="M76.38,144.84a.48.48,0,0,1-.26-.07.49.49,0,0,1-.16-.69c.54-.88,13.32-21.39,14.43-23.06a.5.5,0,0,1,.69-.14.49.49,0,0,1,.14.69c-1.1,1.66-14.28,22.82-14.42,23A.48.48,0,0,1,76.38,144.84Z"/><path d="M87.81,155.89a.42.42,0,0,1-.22,0,.5.5,0,0,1-.23-.67c.32-.64,7.94-15.85,12.06-20.71s5.25-6.18,5.25-6.18a.49.49,0,0,1,.7-.06.51.51,0,0,1,.06.71s-1.13,1.31-5.25,6.18-11.85,20.35-11.92,20.51A.51.51,0,0,1,87.81,155.89Z"/><path d="M93.62,66h-.08a.51.51,0,0,1-.42-.57l.94-6a.51.51,0,0,1,.57-.42.51.51,0,0,1,.42.57l-.94,6A.49.49,0,0,1,93.62,66Z" style="fill:#fff"/><path d="M99.61,66.52h-.09a.51.51,0,0,1-.4-.59l1.13-6a.49.49,0,0,1,.58-.4.5.5,0,0,1,.4.58l-1.13,6A.49.49,0,0,1,99.61,66.52Z" style="fill:#fff"/><path d="M96.61,73.27a.51.51,0,0,1-.5-.49l-.18-6.93a.5.5,0,0,1,.48-.51h0a.5.5,0,0,1,.5.48l.18,6.94a.5.5,0,0,1-.48.51Z" style="fill:#fff"/><path d="M109.92,76.27a.43.43,0,0,1-.19,0,.5.5,0,0,1-.28-.65L111.7,70a.5.5,0,1,1,.93.37L110.38,76A.49.49,0,0,1,109.92,76.27Z" style="fill:#fff"/><path d="M71.7,67.65a.5.5,0,0,1-.44-.25l-3.75-6.56a.5.5,0,0,1,.19-.68.49.49,0,0,1,.68.18l3.75,6.56a.49.49,0,0,1-.19.68A.42.42,0,0,1,71.7,67.65Z" style="fill:#fff"/><path d="M76,67.09a.5.5,0,0,1-.44-.27l-3.18-6.19a.5.5,0,0,1,.21-.67.49.49,0,0,1,.67.22l3.19,6.18a.49.49,0,0,1-.22.67A.46.46,0,0,1,76,67.09Z" style="fill:#fff"/><path d="M67,73.27a.49.49,0,0,1-.46-.32L64.3,67.33a.49.49,0,0,1,.28-.64.5.5,0,0,1,.65.27l2.25,5.62a.51.51,0,0,1-.28.65A.43.43,0,0,1,67,73.27Z" style="fill:#fff"/><path d="M76,76.64a.51.51,0,0,1-.46-.31l-2.06-5.25a.5.5,0,0,1,.28-.65.51.51,0,0,1,.65.28L76.47,76a.51.51,0,0,1-.28.65A.58.58,0,0,1,76,76.64Z" style="fill:#fff"/><path d="M88.37,76.08a.51.51,0,0,1-.5-.45l-.56-6a.5.5,0,0,1,1-.09l.56,6a.51.51,0,0,1-.45.55Z" style="fill:#fff"/><path d="M53.9,82.45a.53.53,0,0,1-.4-.19L50,77.76a.49.49,0,0,1,.08-.7.5.5,0,0,1,.7.08l3.56,4.5a.5.5,0,0,1-.08.7A.51.51,0,0,1,53.9,82.45Z" style="fill:#fff"/><path d="M48.84,85.45a.52.52,0,0,1-.37-.16l-4.68-5.06a.5.5,0,0,1,0-.71.51.51,0,0,1,.71,0l4.69,5.06a.51.51,0,0,1,0,.71A.55.55,0,0,1,48.84,85.45Z" style="fill:#fff"/><path d="M56.33,91.44a.51.51,0,0,1-.42-.23L52.54,86a.5.5,0,0,1,.15-.69.49.49,0,0,1,.69.15l3.37,5.24a.49.49,0,0,1-.15.69A.43.43,0,0,1,56.33,91.44Z" style="fill:#fff"/><path d="M49.59,94.25a.49.49,0,0,1-.4-.2l-4.31-5.81a.5.5,0,0,1,.1-.7.51.51,0,0,1,.7.11L50,93.46a.51.51,0,0,1-.1.7A.55.55,0,0,1,49.59,94.25Z" style="fill:#fff"/><path d="M43.59,109.43a.46.46,0,0,1-.29-.1l-4.87-3.56a.48.48,0,0,1-.11-.69A.49.49,0,0,1,39,105l4.87,3.56a.5.5,0,0,1-.3.9Z" style="fill:#fff"/><path d="M51.46,108.87a.52.52,0,0,1-.29-.09L45.92,105a.51.51,0,0,1-.11-.7.5.5,0,0,1,.7-.12L51.75,108a.5.5,0,0,1-.29.91Z" style="fill:#fff"/><path d="M51.65,120.3a.54.54,0,0,1-.3-.1l-7.87-5.81a.5.5,0,1,1,.6-.8l7.87,5.8a.51.51,0,0,1,.1.7A.49.49,0,0,1,51.65,120.3Z" style="fill:#fff"/><path d="M158.58,54.6a8.41,8.41,0,0,1-1.15-.07A.5.5,0,0,1,157,54a.51.51,0,0,1,.57-.42c.78.11,2.95.19,3.67-.78.4-.55.31-1.44-.26-2.63a.5.5,0,1,1,.9-.43c.75,1.55.8,2.78.16,3.65C161.28,54.4,159.68,54.6,158.58,54.6Z" style="fill:#fff"/><path d="M35.35,111.43a.49.49,0,0,1-.28-.09c-.2-.13-19.92-13.46-26.4-26.16a.52.52,0,0,1,.22-.68.5.5,0,0,1,.67.22c6.36,12.48,25.87,25.66,26.07,25.79a.5.5,0,0,1,.13.7A.49.49,0,0,1,35.35,111.43Z"/><path d="M38.1,85.2a.5.5,0,0,1-.34-.13c-.15-.14-15.32-13.87-22.52-26.29a.5.5,0,0,1,.87-.5c7.12,12.28,22.17,25.91,22.32,26.05a.49.49,0,0,1,0,.7A.51.51,0,0,1,38.1,85.2Z"/><path d="M51.09,72.46a.49.49,0,0,1-.41-.21c-.14-.2-14.82-20.12-21.5-30.75A.5.5,0,1,1,30,41c6.65,10.6,21.31,30.49,21.46,30.69a.5.5,0,0,1-.11.7A.46.46,0,0,1,51.09,72.46Z"/><path d="M60.58,57a.47.47,0,0,1-.42-.24A241.27,241.27,0,0,1,44.38,25.94a.5.5,0,1,1,.92-.39A241.21,241.21,0,0,0,61,56.2a.49.49,0,0,1-.16.69A.42.42,0,0,1,60.58,57Z"/><path d="M77.07,55.72a.49.49,0,0,1-.44-.26c-.11-.2-11.08-20.53-16-40.84A.5.5,0,0,1,61,14a.48.48,0,0,1,.6.36c4.93,20.19,15.84,40.4,16,40.6a.5.5,0,0,1-.21.68A.46.46,0,0,1,77.07,55.72Z"/><path d="M92.8,53.22a.49.49,0,0,1-.48-.39c0-.23-5-23.3-8-31.41a.5.5,0,0,1,.3-.64.49.49,0,0,1,.64.3c3,8.18,8,31.3,8,31.54a.49.49,0,0,1-.38.59Z"/><path d="M105.79,59.72h0a.52.52,0,0,1-.49-.51,135.94,135.94,0,0,0-1.74-23.14.5.5,0,1,1,1-.17,137.6,137.6,0,0,1,1.75,23.33A.49.49,0,0,1,105.79,59.72Z"/><path d="M111,41a.5.5,0,0,1-.5-.5V34a.5.5,0,1,1,1,0v6.49A.5.5,0,0,1,111,41Z" style="fill:#fff"/><path d="M93.55,26.24a.49.49,0,0,1-.48-.38l-2-8.5a.5.5,0,0,1,1-.23l2,8.5a.5.5,0,0,1-.37.6Z" style="fill:#fff"/><path d="M72.82,19a.51.51,0,0,1-.49-.39l-2-8.74a.5.5,0,0,1,.38-.6.5.5,0,0,1,.6.37l2,8.75a.51.51,0,0,1-.38.6Z" style="fill:#fff"/><path d="M53.09,19.5a.5.5,0,0,1-.48-.34L48.87,8.42a.49.49,0,0,1,.3-.64.5.5,0,0,1,.64.31l3.75,10.74a.51.51,0,0,1-.31.64A.45.45,0,0,1,53.09,19.5Z" style="fill:#fff"/><path d="M35.6,30.74a.49.49,0,0,1-.46-.31l-3.75-9.25a.5.5,0,1,1,.92-.37l3.75,9.24a.49.49,0,0,1-.27.65A.46.46,0,0,1,35.6,30.74Z" style="fill:#fff"/><path d="M22.36,50.47a.49.49,0,0,1-.43-.24l-4.75-8a.51.51,0,0,1,.18-.69.5.5,0,0,1,.68.18l4.75,8a.49.49,0,0,1-.18.68A.45.45,0,0,1,22.36,50.47Z" style="fill:#fff"/><path d="M13.37,71.71a.49.49,0,0,1-.44-.26l-5-9a.5.5,0,0,1,.2-.68.51.51,0,0,1,.68.19l5,9a.51.51,0,0,1-.19.69A.53.53,0,0,1,13.37,71.71Z" style="fill:#fff"/><path d="M14.11,101.69a.49.49,0,0,1-.4-.21L8.22,94a.5.5,0,0,1,.1-.7.49.49,0,0,1,.7.11l5.5,7.49a.51.51,0,0,1-.11.7A.54.54,0,0,1,14.11,101.69Z" style="fill:#fff"/></g></g></svg>