<svg xmlns="http://www.w3.org/2000/svg" viewBox="0 0 133.47 223.4"><title>Recurso 7</title><g id="Capa_2" data-name="Capa 2"><g id="Capa_1-2" data-name="Capa 1"><path d="M110.86,133.58s-1.55,23.72-1.11,34.58S116,213,113.3,216.49s-3.77-.66-4.88-9.31-4.43-28.6-4.21-32.59-6.43-20.39-6.43-26.82S110.86,133.58,110.86,133.58Z" style="fill:#33200a"/><path d="M49.23,144.44s1.33,5.32-2.66,13.08a17.34,17.34,0,0,1-11.31,9.09s-1.11,22.61,2.44,31.93,12.64,19.28,11.53,20.39-6.43,1.33-10.64-7.09-10.64-27.71-11.31-37-1.55-17.95-1.55-17.95Z" style="fill:#33200a"/><path d="M133.47,5.88s0-7.53-6.43-5.32-15.51,11.75-18.62,13.53-7.31,7.31-7.31,8.2-6.66,2.22-7.1,4.88,8.2,1.1,8.2,1.1S99.33,60.2,97.34,69.73,88.91,97.89,84,100.1s-20,5.1-24,4.88-19.73-2.22-26.82-.22-12.42,14.41-16.19,26.16S8,153.31,4.89,157.74,1.12,162,.46,169.27-.65,195.21,2.9,205.41s6.87,13.08,8.42,11.75-5.1-14.63-4.88-23.06S7.77,169.94,14,165.5s7.76-3.1,18-8a97.6,97.6,0,0,0,18-11.3s9.76,5.76,15.3,6.87,12,2.21,12,2.21-6.2,60.08-5.1,64.3,4.44,4.65,5.32,2.66,5.1-51.66,12-61.19,15.07-14.85,19.5-19.51,15.75-23.06,16-37.69-6-47.22-4.88-61.41,2.88-21.28,6.21-26.16S133.47,5.88,133.47,5.88Z" style="fill:#513510"/><path d="M29.89,106.59s-9.09.44-9.76,5.76,6.87-.66,6.87-.66Z" style="fill:#513510"/><path d="M113.08,18.13a.5.5,0,0,1-.5-.5.5.5,0,0,1,.5-.5h0a4.9,4.9,0,0,0,4.19-3.24.5.5,0,0,1,.66-.26.49.49,0,0,1,.26.66A5.88,5.88,0,0,1,113.08,18.13Z" style="fill:#fff"/><path d="M105.42,16.69s-17.76-2.46-25.3.62S72,28.11,75.47,31.14s5.71,2.11,5.71,2.11-6.25-4.81-3.12-10.16c3.32-5.68,24.13-4.2,24.13-4.2Z"/><path d="M105.23,16.76s-15.44,5.4-19,9.1c-2.67,2.72-4.65,6.93-2.12,10.87,2.41,3.75,7.8,1.08,7.8,1.08S86.41,36.66,87,32.26c1-6.91,14.83-11.46,14.83-11.46Z"/><path d="M127,.56s2.53-1,3.74-.31a3.3,3.3,0,0,1,1.42,2.23s-1.82,1.12-2.73.71S127,.56,127,.56Z"/><path d="M133.47,5.88S121,17.13,118.12,26.28s2.16,30.43,2.16,30.43-1.35-24.38,3-32.43C129.26,13.2,133.47,5.88,133.47,5.88Z" style="fill:#fff"/><path d="M99,78.73l-.15,0a.5.5,0,0,1-.33-.62l1.43-4.74a.51.51,0,0,1,.63-.33.5.5,0,0,1,.33.62l-1.43,4.74A.51.51,0,0,1,99,78.73Z" style="fill:#fff"/><path d="M100.81,83.32h-.12a.51.51,0,0,1-.36-.61l1.29-5.3a.49.49,0,0,1,.6-.37.5.5,0,0,1,.37.6l-1.29,5.31A.5.5,0,0,1,100.81,83.32Z" style="fill:#fff"/><path d="M105.26,80.6h-.08a.49.49,0,0,1-.41-.57l.71-4.45a.51.51,0,0,1,.58-.41.5.5,0,0,1,.41.57l-.72,4.45A.5.5,0,0,1,105.26,80.6Z" style="fill:#fff"/><path d="M94.65,89.78a.58.58,0,0,1-.19,0,.51.51,0,0,1-.28-.65l1.87-4.73a.5.5,0,1,1,.92.37l-1.86,4.73A.51.51,0,0,1,94.65,89.78Z" style="fill:#fff"/><path d="M100.1,91.21a.41.41,0,0,1-.16,0,.5.5,0,0,1-.32-.63l1.29-3.87a.52.52,0,0,1,.64-.32.5.5,0,0,1,.31.64l-1.29,3.87A.49.49,0,0,1,100.1,91.21Z" style="fill:#fff"/><path d="M105.55,92.07l-.14,0a.49.49,0,0,1-.34-.62l1.43-5a.5.5,0,1,1,1,.28l-1.43,5A.51.51,0,0,1,105.55,92.07Z" style="fill:#fff"/><path d="M94.93,97.23a.44.44,0,0,1-.22,0,.49.49,0,0,1-.22-.67l1.72-3.44a.5.5,0,0,1,.67-.23.52.52,0,0,1,.22.68L95.38,97A.5.5,0,0,1,94.93,97.23Z" style="fill:#fff"/><path d="M101.39,99a.47.47,0,0,1-.17,0,.49.49,0,0,1-.3-.64l1.57-4.3a.52.52,0,0,1,.65-.3.5.5,0,0,1,.29.64l-1.57,4.31A.51.51,0,0,1,101.39,99Z" style="fill:#fff"/><path d="M20.21,131.8l-.18,0a.5.5,0,0,1-.29-.64l2-5.45a.5.5,0,1,1,.93.34l-2,5.45A.52.52,0,0,1,20.21,131.8Z" style="fill:#fff"/><path d="M22.22,135h-.13a.5.5,0,0,1-.36-.61L23,129.45a.5.5,0,0,1,.61-.36.51.51,0,0,1,.36.62l-1.29,4.87A.49.49,0,0,1,22.22,135Z" style="fill:#fff"/><path d="M26.81,131.23a.4.4,0,0,1-.15,0,.49.49,0,0,1-.33-.62L27.76,126a.5.5,0,1,1,1,.3l-1.44,4.58A.49.49,0,0,1,26.81,131.23Z" style="fill:#fff"/><path d="M28.81,138.25a.57.57,0,0,1-.18,0,.51.51,0,0,1-.28-.65l1.86-4.87a.5.5,0,1,1,.93.36l-1.86,4.87A.51.51,0,0,1,28.81,138.25Z" style="fill:#fff"/><path d="M24.84,141.07l-.95-.32s1.44-4.16,1.58-4.59a.5.5,0,1,1,1,.32C26.28,136.91,24.84,141.07,24.84,141.07Z" style="fill:#fff"/><path d="M15.33,144.71a.45.45,0,0,1-.16,0,.5.5,0,0,1-.31-.63l1.58-4.59a.48.48,0,0,1,.63-.31.49.49,0,0,1,.31.63l-1.58,4.59A.49.49,0,0,1,15.33,144.71Z" style="fill:#fff"/></g></g></svg>