<svg xmlns="http://www.w3.org/2000/svg" viewBox="0 0 155.75 217.97"><title>Recurso 1</title><g id="Capa_2" data-name="Capa 2"><g id="Capa_1-2" data-name="Capa 1"><path d="M59,61.38a34.21,34.21,0,0,1,12.65.91,49.1,49.1,0,0,0,12.46,1.62L87,62.11,84.8,59.4,50.66,54.16,29,72,22.48,84.32l-5.23,24.75s-2,39.74-1.81,45A39,39,0,0,0,17.07,164c.36,1.45,8.67,24.21,10.11,28.91S38.74,206.8,42.9,209.32s11,5.06,13,5.06,14.45-13.73,14.45-13.73L71.8,162.9,59.7,102,56.63,69.87Z" style="fill:#fff"/><path d="M22.48,102.21c-.14.4-.27.82-.41,1.25-5.88,18.81-5.37,58.36-5.37,58.36s-11-26.74-13.9-38.66S-1.9,96.43,3.34,71s21.85-45.34,24-48.23S33,13.15,34.77,9.18c1.12-2.46,2.65-6.1,3.66-8.51a.72.72,0,0,1,1.38.19c.33,2.7.81,6.77.92,9,.18,3.61,1.08,9.76,2.17,9.94s4.87-6.33,6.5-9c1.2-2,2.41-7.57,3-10.33A.59.59,0,0,1,53.48.39a11.7,11.7,0,0,1,.62,3.37c.18,3.61-1.81,18.79-1.81,18.79s4.52,1.8,13.37,8.67,6.86,15.35,9.57,19.51S82.43,57.55,85,59c0,0,.92,3-.34,3.38S72,57.59,59.7,57.77,37.3,67.52,31,80A105,105,0,0,0,22.48,102.21Z" style="fill:#bc6404"/><path d="M59,61.38s-6.32,1.45-6.68,14.09S58.07,117,61.68,136s3.62,48.95,2.53,56.54-3.43,18.06-4.69,19.32-4.7.18-6,2.17,4.34,2.89,13.37,2.89,26-1.62,32-3.61,12.65-17.7,11.2-34.86-8.49-29.27-17.88-42.82S65.66,99.68,61.68,86.13A69.6,69.6,0,0,1,59,61.38Z" style="fill:#bc6404"/><path d="M56,48.86a4.55,4.55,0,0,1-3.57-2.17.5.5,0,0,1,.8-.6A3.63,3.63,0,0,0,56,47.86h0a4,4,0,0,0,2.75-1.59.5.5,0,0,1,.81.6,5,5,0,0,1-3.55,2Z"/><path d="M18.78,44.63a.52.52,0,0,1-.35-.14.5.5,0,0,1,0-.71l3.34-3.34a.5.5,0,0,1,.71,0,.5.5,0,0,1,0,.7l-3.34,3.35A.54.54,0,0,1,18.78,44.63Z" style="fill:#fff"/><path d="M27.54,51.59a.47.47,0,0,1-.31-.12.49.49,0,0,1-.07-.7l2.53-3.07a.49.49,0,0,1,.7-.07.5.5,0,0,1,.07.7L27.93,51.4A.51.51,0,0,1,27.54,51.59Z" style="fill:#fff"/><path d="M22.12,49.42a.51.51,0,0,1-.31-.11.5.5,0,0,1-.08-.7L24.62,45a.52.52,0,0,1,.71-.07.49.49,0,0,1,.07.7l-2.89,3.61A.49.49,0,0,1,22.12,49.42Z" style="fill:#fff"/><path d="M13.81,56.1a.52.52,0,0,1-.29-.09.51.51,0,0,1-.11-.7L16.48,51a.49.49,0,0,1,.69-.12.5.5,0,0,1,.12.7l-3.07,4.33A.49.49,0,0,1,13.81,56.1Z" style="fill:#fff"/><path d="M15.44,64.05a.5.5,0,0,1-.4-.8l3.61-4.87a.5.5,0,1,1,.8.59l-3.61,4.88A.51.51,0,0,1,15.44,64.05Z" style="fill:#fff"/><path d="M22.85,64.23a.52.52,0,0,1-.32-.11.5.5,0,0,1-.07-.7l3.25-4a.5.5,0,0,1,.7-.07.49.49,0,0,1,.07.7l-3.25,4A.49.49,0,0,1,22.85,64.23Z" style="fill:#fff"/><path d="M31.34,64.23A.5.5,0,0,1,31,63.4L34,60a.5.5,0,0,1,.75.66l-3.07,3.43A.48.48,0,0,1,31.34,64.23Z" style="fill:#fff"/><path d="M20.5,76.88a.54.54,0,0,1-.3-.1.5.5,0,0,1-.1-.7l3.61-4.88a.5.5,0,0,1,.8.6L20.9,76.67A.49.49,0,0,1,20.5,76.88Z" style="fill:#fff"/><path d="M7.49,71.64a.71.71,0,0,1-.2,0A.51.51,0,0,1,7,70.94l2-4.52a.52.52,0,0,1,.66-.26.51.51,0,0,1,.26.66L8,71.34A.5.5,0,0,1,7.49,71.64Z" style="fill:#fff"/><path d="M8.76,82.66a.53.53,0,0,1-.24-.06.52.52,0,0,1-.21-.68l3.26-6.14a.5.5,0,0,1,.67-.21.5.5,0,0,1,.21.68L9.2,82.39A.5.5,0,0,1,8.76,82.66Z" style="fill:#fff"/><path d="M15.26,72a.45.45,0,0,1-.25-.07.51.51,0,0,1-.18-.69l1.81-3.07a.5.5,0,0,1,.68-.17.49.49,0,0,1,.18.68l-1.81,3.07A.5.5,0,0,1,15.26,72Z" style="fill:#fff"/><path d="M15.26,85.55a.46.46,0,0,1-.23-.06.5.5,0,0,1-.22-.67l2.9-5.6a.5.5,0,0,1,.67-.22.51.51,0,0,1,.21.68l-2.89,5.6A.5.5,0,0,1,15.26,85.55Z" style="fill:#fff"/><path d="M27.36,81.21a.46.46,0,0,1-.23-.06.49.49,0,0,1-.21-.67L29.27,76a.5.5,0,1,1,.88.46l-2.34,4.51A.51.51,0,0,1,27.36,81.21Z" style="fill:#fff"/><path d="M20.68,93.13a.46.46,0,0,1-.23,0,.51.51,0,0,1-.22-.68l3.08-6a.5.5,0,0,1,.88.46l-3.07,6A.5.5,0,0,1,20.68,93.13Z" style="fill:#fff"/><path d="M14,97.29a.54.54,0,0,1-.21-.05.5.5,0,0,1-.24-.66l2.17-4.7a.49.49,0,0,1,.66-.24.5.5,0,0,1,.25.66L14.45,97A.52.52,0,0,1,14,97.29Z" style="fill:#fff"/><path d="M6.77,94.94a.54.54,0,0,1-.22,0,.51.51,0,0,1-.23-.67l3.25-6.51a.51.51,0,0,1,.67-.22.5.5,0,0,1,.23.67l-3.25,6.5A.5.5,0,0,1,6.77,94.94Z" style="fill:#fff"/><path d="M2.43,92.59a.3.3,0,0,1-.13,0A.5.5,0,0,1,2,92l1.63-5.78a.5.5,0,0,1,.62-.35.5.5,0,0,1,.34.62L2.92,92.23A.51.51,0,0,1,2.43,92.59Z" style="fill:#fff"/><path d="M7.85,105.78a.45.45,0,0,1-.16,0,.5.5,0,0,1-.31-.63l2.35-6.87a.5.5,0,0,1,.63-.31.5.5,0,0,1,.31.64l-2.34,6.86A.5.5,0,0,1,7.85,105.78Z" style="fill:#fff"/><path d="M2.62,106H2.54a.5.5,0,0,1-.42-.57l.9-6A.51.51,0,0,1,3.59,99a.5.5,0,0,1,.42.57l-.9,6A.5.5,0,0,1,2.62,106Z" style="fill:#fff"/><path d="M9.48,115.71a.34.34,0,0,1-.14,0,.49.49,0,0,1-.34-.62l2.17-7.4a.49.49,0,0,1,.62-.34.5.5,0,0,1,.34.62L10,115.35A.5.5,0,0,1,9.48,115.71Z" style="fill:#fff"/><path d="M11.47,126.19h0a.5.5,0,0,1-.46-.53l.54-8.49a.49.49,0,0,1,.53-.47.51.51,0,0,1,.47.53L12,125.72A.5.5,0,0,1,11.47,126.19Z" style="fill:#fff"/><path d="M56.81,95.84a.49.49,0,0,1-.5-.47L56,88.14a.49.49,0,0,1,.47-.52.47.47,0,0,1,.52.47l.37,7.23a.5.5,0,0,1-.48.52Z" style="fill:#fff"/><path d="M61.14,94.4a.51.51,0,0,1-.49-.41l-1.08-5.6a.48.48,0,0,1,.39-.58.51.51,0,0,1,.59.39l1.08,5.6a.5.5,0,0,1-.39.59Z" style="fill:#fff"/><path d="M63.67,107.58a.49.49,0,0,1-.47-.34l-1.81-5.42a.49.49,0,0,1,.32-.63.5.5,0,0,1,.63.32l1.8,5.42a.5.5,0,0,1-.31.63A.44.44,0,0,1,63.67,107.58Z" style="fill:#fff"/><path d="M63.49,117.88a.5.5,0,0,1-.48-.34l-2.71-8.31a.5.5,0,0,1,.32-.63.51.51,0,0,1,.64.32l2.71,8.3a.51.51,0,0,1-.33.64Z" style="fill:#fff"/><path d="M71.08,120.41a.51.51,0,0,1-.45-.27l-3.43-6.5a.51.51,0,0,1,.21-.68.52.52,0,0,1,.68.21l3.43,6.51a.5.5,0,0,1-.21.67A.53.53,0,0,1,71.08,120.41Z" style="fill:#fff"/><path d="M77.76,123.12a.52.52,0,0,1-.43-.24l-2.89-4.7a.5.5,0,0,1,.86-.52l2.89,4.7a.51.51,0,0,1-.17.69A.48.48,0,0,1,77.76,123.12Z" style="fill:#fff"/><path d="M70.9,129.44a.51.51,0,0,1-.43-.23l-4-6.32a.5.5,0,0,1,.84-.54l4,6.33a.48.48,0,0,1-.16.68A.42.42,0,0,1,70.9,129.44Z" style="fill:#fff"/><path d="M68.73,139.92a.51.51,0,0,1-.46-.3L64.84,132a.5.5,0,0,1,.25-.66.49.49,0,0,1,.66.25l3.43,7.58a.49.49,0,0,1-.25.66A.46.46,0,0,1,68.73,139.92Z" style="fill:#fff"/><path d="M76.68,140.82a.51.51,0,0,1-.47-.31l-2.89-7a.51.51,0,0,1,.28-.66.5.5,0,0,1,.65.28l2.89,7a.5.5,0,0,1-.27.65A.46.46,0,0,1,76.68,140.82Z" style="fill:#fff"/><path d="M82.46,133.05a.51.51,0,0,1-.41-.2l-4-5.42a.5.5,0,0,1,.11-.7.51.51,0,0,1,.7.11l4,5.42a.5.5,0,0,1-.11.7A.52.52,0,0,1,82.46,133.05Z" style="fill:#fff"/><path d="M85,143.71a.48.48,0,0,1-.42-.24l-4.34-7a.5.5,0,0,1,.17-.69.51.51,0,0,1,.69.16l4.33,7a.5.5,0,0,1-.16.69A.52.52,0,0,1,85,143.71Z" style="fill:#fff"/><path d="M83.54,151.84a.51.51,0,0,1-.47-.33l-2.71-7.4a.52.52,0,0,1,.3-.65.5.5,0,0,1,.64.3L84,151.17a.5.5,0,0,1-.3.64A.47.47,0,0,1,83.54,151.84Z" style="fill:#fff"/><path d="M74,151.12a.52.52,0,0,1-.49-.37l-2-7a.5.5,0,1,1,1-.27l2,7a.51.51,0,0,1-.35.62Z" style="fill:#fff"/><path d="M80.11,158.52a.51.51,0,0,1-.5-.41l-1.26-7.59a.51.51,0,0,1,.41-.58.51.51,0,0,1,.58.41l1.26,7.59a.51.51,0,0,1-.41.58Z" style="fill:#fff"/><path d="M94.38,149.85a.51.51,0,0,1-.45-.27L90.5,142.9a.5.5,0,1,1,.89-.46l3.43,6.68a.51.51,0,0,1-.21.68A.48.48,0,0,1,94.38,149.85Z" style="fill:#fff"/><path d="M89.32,160.69a.5.5,0,0,1-.5-.46l-.54-7a.5.5,0,0,1,1-.07l.54,7a.5.5,0,0,1-.46.54Z" style="fill:#fff"/><path d="M85,168.1a.49.49,0,0,1-.49-.47l-.37-6.69a.5.5,0,0,1,.48-.52.47.47,0,0,1,.52.47l.36,6.68a.5.5,0,0,1-.47.53Z" style="fill:#fff"/><path d="M73.78,168.46a.49.49,0,0,1-.49-.47l-.55-8.13a.52.52,0,0,1,.47-.53.5.5,0,0,1,.53.47l.54,8.13a.5.5,0,0,1-.46.53Z" style="fill:#fff"/><path d="M67.46,170.63a.51.51,0,0,1-.5-.5v-7.41a.5.5,0,0,1,.5-.5.5.5,0,0,1,.5.5v7.41A.5.5,0,0,1,67.46,170.63Z" style="fill:#fff"/><path d="M77.76,180.74h-.09a.5.5,0,0,1-.4-.58l1.26-6.86a.5.5,0,0,1,1,.18l-1.27,6.86A.49.49,0,0,1,77.76,180.74Z" style="fill:#fff"/><path d="M96.73,164.67a.5.5,0,0,1-.5-.48l-.36-7.59a.49.49,0,0,1,.47-.52.48.48,0,0,1,.52.48l.37,7.58a.5.5,0,0,1-.48.52Z" style="fill:#fff"/><path d="M98.17,178.21h-.08a.5.5,0,0,1-.41-.58L98.76,171a.51.51,0,0,1,.58-.41.5.5,0,0,1,.41.57l-1.09,6.68A.49.49,0,0,1,98.17,178.21Z" style="fill:#fff"/><path d="M90.4,181.1h-.11a.5.5,0,0,1-.37-.6l1.8-7.94a.5.5,0,0,1,.6-.38.5.5,0,0,1,.38.6l-1.81,7.94A.49.49,0,0,1,90.4,181.1Z" style="fill:#fff"/><path d="M81.55,191.58a.51.51,0,0,1-.17,0,.5.5,0,0,1-.29-.65l2.7-7.22a.5.5,0,0,1,.65-.29.49.49,0,0,1,.29.64L82,191.26A.49.49,0,0,1,81.55,191.58Z" style="fill:#fff"/><path d="M91.67,194.47a.43.43,0,0,1-.19,0,.5.5,0,0,1-.28-.64l2.9-7.23a.5.5,0,1,1,.92.37l-2.89,7.23A.5.5,0,0,1,91.67,194.47Z" style="fill:#fff"/><path d="M84.8,207.3a.54.54,0,0,1-.21-.05.5.5,0,0,1-.24-.67l3.25-6.86a.5.5,0,1,1,.91.43L85.26,207A.52.52,0,0,1,84.8,207.3Z" style="fill:#fff"/><path d="M74.33,204.59l-.13,0a.51.51,0,0,1-.36-.61l1.63-6.32a.5.5,0,0,1,1,.25l-1.63,6.32A.5.5,0,0,1,74.33,204.59Z" style="fill:#fff"/><path d="M148.51,49.4s-9.2,20.42-6.33,37.11,14.39,39.12,13.52,65.87-13.23,41.14-25.6,48.9-29.34,10.93-29.34,10.93,15.82-19.27,14.1-37.68-17-29.34-17-55.23-1.72-36,11.22-51.78S148.51,49.4,148.51,49.4Z" style="fill:#bc6404"/><path d="M148.51,49.4s-6.61,15.53-6.61,22.44,1.15,17,1.15,17l-6.62-10.07L131,87.66l-4.61-11.51-9.78,12.37-.57-17-15,9.78S112,51.41,148.51,49.4Z" style="fill:#fff"/><path d="M140.75,58a.65.65,0,0,1-.2,0,.5.5,0,0,1-.26-.66l1.72-4a.5.5,0,0,1,.92.4l-1.72,4A.52.52,0,0,1,140.75,58Z"/><path d="M137.29,67.74l-.12,0a.5.5,0,0,1-.36-.61l1.44-5.75a.48.48,0,0,1,.6-.36.5.5,0,0,1,.37.6l-1.44,5.76A.51.51,0,0,1,137.29,67.74Z"/><path d="M130.68,67.16a.45.45,0,0,1-.2,0,.51.51,0,0,1-.26-.66l2.88-6.61a.5.5,0,0,1,.91.39l-2.87,6.62A.51.51,0,0,1,130.68,67.16Z"/><path d="M122.05,69.46a.54.54,0,0,1-.28-.08.51.51,0,0,1-.14-.7l4-6a.49.49,0,0,1,.69-.13.5.5,0,0,1,.14.69l-4,6A.49.49,0,0,1,122.05,69.46Z"/><path d="M132.69,77.23h-.05a.49.49,0,0,1-.45-.54l.58-5.47a.48.48,0,0,1,.55-.44.49.49,0,0,1,.44.55l-.57,5.46A.51.51,0,0,1,132.69,77.23Z"/><path d="M114.86,67.16a.52.52,0,0,1-.38-.17.51.51,0,0,1,0-.71l4-3.45a.49.49,0,0,1,.7.05.51.51,0,0,1-.05.71l-4,3.45A.49.49,0,0,1,114.86,67.16Z"/><path d="M128.66,58.82a.49.49,0,0,1-.39-.2.5.5,0,0,1,.09-.7l3.74-2.87a.5.5,0,1,1,.61.79L129,58.72A.57.57,0,0,1,128.66,58.82Z"/><path d="M53.72,215.53l-.11,0a11.41,11.41,0,0,0-1.35-.21c-.6-.06-.76-.1-2.86-1a.52.52,0,0,1-.27-.66.51.51,0,0,1,.66-.26c2,.86,2.11.87,2.56.91a14.14,14.14,0,0,1,1.47.24.5.5,0,0,1-.1,1Z" style="fill:#fff"/><path d="M43.61,211a.48.48,0,0,1-.26-.07,50.37,50.37,0,0,1-8.85-7.46.5.5,0,1,1,.71-.69,49.8,49.8,0,0,0,8.66,7.3.5.5,0,0,1-.26.92Z" style="fill:#fff"/><path d="M26.85,189.86a.51.51,0,0,1-.47-.33c-1.07-3-2.38-6.49-3.56-9.66-1.66-4.48-3-8-3.14-8.67a11.3,11.3,0,0,0-.69-1.67,31.06,31.06,0,0,1-2.55-7.27.5.5,0,1,1,1-.22,30,30,0,0,0,2.47,7.06,11.07,11.07,0,0,1,.76,1.86c.15.6,1.59,4.47,3.11,8.56,1.18,3.17,2.49,6.7,3.56,9.67a.5.5,0,0,1-.3.64A.47.47,0,0,1,26.85,189.86Z" style="fill:#fff"/><path d="M143.05,89.31a.48.48,0,0,1-.42-.23l-6.19-9.41-5.05,8.25a.49.49,0,0,1-.47.24.51.51,0,0,1-.42-.31l-4.28-10.71L117,88.83a.5.5,0,0,1-.55.17.52.52,0,0,1-.35-.46l-.54-16.09-14.22,9.3a.5.5,0,0,1-.74-.59c.11-.3,11.47-30.25,47.9-32.26a.49.49,0,0,1,.44.21.51.51,0,0,1,.05.49c-.06.15-6.57,15.52-6.57,22.24s1.13,16.81,1.14,16.91a.5.5,0,0,1-.32.53ZM116,71.05a.46.46,0,0,1,.23.06.49.49,0,0,1,.27.42L117,87.14,126,75.84a.51.51,0,0,1,.47-.18.49.49,0,0,1,.39.31l4.23,10.58L136,78.48a.5.5,0,0,1,.85,0l5.48,8.34c-.33-3.32-.93-10-.93-15,0-6.14,5-18.68,6.34-21.89-18.22,1.22-29.76,9.61-36.27,16.48A52.28,52.28,0,0,0,102.16,80l13.57-8.88A.57.57,0,0,1,116,71.05Z" style="fill:#fff"/><path d="M49.44,157.86a4.38,4.38,0,0,0-3.56,4.82c.46,4.34,1.35,13.24,1.35,17.38,0,5.6.36,15.54-1.08,22.58s-4,10.48-3.8,12.83,3.26,3.25,4.88,1.8,7.77-12.82,8.49-22,2.89-32.16,1.45-34.87C56.21,158.57,52.54,157.33,49.44,157.86Z"/><path d="M23.53,158.37a4.32,4.32,0,0,1,3.83,2.78c2.28,5.76,8.1,21.29,8,29.57-.18,10.3-2.17,25.65-4.88,25.65s-3.79.54-3.43-3.25.54-23.85-1.26-29.27-7-15.89-7-20.23C18.69,160.22,20.36,158.26,23.53,158.37Z"/><path d="M79,66a24.18,24.18,0,0,1-7.58-1.36A53.91,53.91,0,0,0,59.66,62a.5.5,0,1,1,.08-1,54.47,54.47,0,0,1,12,2.68c8.18,2.7,12.46.41,13.58-.36l-1-1.82a.5.5,0,0,1,.88-.48l1.19,2.2a.5.5,0,0,1-.1.61C86.2,64,83.94,66,79,66Z" style="fill:#fff"/><path d="M84.8,59.4s2.53.72,2.17,2.71-2.89,1.8-2.89,1.8Z"/><path d="M84.3,64.42h-.25a.52.52,0,0,1-.36-.19.5.5,0,0,1-.1-.39l.72-4.51a.49.49,0,0,1,.23-.35.47.47,0,0,1,.4,0c1,.29,2.87,1.35,2.52,3.28C87.14,64,85.38,64.42,84.3,64.42Zm.9-4.33-.53,3.3A1.84,1.84,0,0,0,86.48,62,1.87,1.87,0,0,0,85.2,60.09Z"/></g></g></svg>