<svg xmlns="http://www.w3.org/2000/svg" viewBox="0 0 176.61 155.88"><title>Recurso 2</title><g id="Capa_2" data-name="Capa 2"><g id="Capa_1-2" data-name="Capa 1"><ellipse cx="88.3" cy="130.91" rx="88.3" ry="18.61"/><path d="M141.68,145.76s0,10.83,1.65,9.54,2-10.72,2-10.72Z"/><path d="M136.62,146.23s0,10.83,1.65,9.54,2-10.72,2-10.72Z"/><path d="M146.22,143.34s0,10.84,1.65,9.54,2-10.72,2-10.72Z"/><path d="M162.12,138.39s0,10.84,1.65,9.54,2-10.71,2-10.71Z"/><path d="M157.82,138.39s0,10.84,1.65,9.54,2-10.71,2-10.71Z"/><path d="M165.77,136s0,10.83,1.65,9.54,2-10.72,2-10.72Z"/><path d="M171.78,125.38c-1.94-2.3-11-4.24-16.08-3a12.92,12.92,0,0,0-3.25,1.24c-3.13-2.8-5.78-7.78-4.8-16.61,2.13-19.13,17-49.95,19.13-58.45S171,37.92,170,33.67a26.36,26.36,0,0,0-3.19-7.44s4.25-2.12,3.19-8.5-14.88-17-14.88-17S116.84,8.17,103,16.67A67.59,67.59,0,0,0,90.81,27L88.56,29.9a19.3,19.3,0,0,0-5.66,3c-1.94,1.76-1.8,5.15-1.8,5.15-7,8.63-13.15,17.4-16.34,22.18-6.37,9.57-22.31,43.57-25.5,53.14-2,6-3.57,14.87-4.48,20.69-.53,3.44-4.35,10.21-1.06,11.33,9.17,3.14,31,3.65,46.88,4,13.91.31,22.21.7,43.06-1.42,7.45-.75,4.42-.41,12.05-1.32,1.35,1.51,7.62.42,10.21-.21,3.18-.76,4.13-2.41,4.13-2.41s.06-3.42.34-5.42a32.65,32.65,0,0,0,4.1-3.46,24.15,24.15,0,0,0,2.8,3.11c5.12,4.88,11.84.64,12.78-.53C171.21,136.32,173.72,127.67,171.78,125.38Z" style="fill:#d1b088"/><path d="M96.5,36.94a.93.93,0,0,1-.4,1.21,12.3,12.3,0,0,1-4.55,1.45c-2.65.19-5.12-1.32-4.36-4,.59-2.06,4.5-3.09,6.21-3.45a1,1,0,0,1,1.14.58Z"/><path d="M122.26,26.68a6.57,6.57,0,0,1-5.05-2.59.5.5,0,0,1,.82-.57A5.36,5.36,0,0,0,124.92,25a4.55,4.55,0,0,0,2.39-5.65.5.5,0,0,1,.31-.64.5.5,0,0,1,.63.31c0,.05,1.6,4.78-2.91,6.89A7.22,7.22,0,0,1,122.26,26.68Z"/><path d="M165.43,5.49A6.71,6.71,0,0,0,159.55.1c-1.65-.17-3.59-.19-4.63.45-2,1.26-1.16,5,2.19,7.09a21.65,21.65,0,0,0,8.22,2.56A13.11,13.11,0,0,0,165.43,5.49Z"/><path d="M170.12,34.21a.74.74,0,0,1-.44-.13c-.88-.61-2.65-5.58-3.37-7.68a.54.54,0,0,1,.08-.48l3.05-3.84a.52.52,0,0,1,.43-.19.49.49,0,0,1,.39.24l4.6,7.51a.5.5,0,0,1-.05.58C172.62,32.87,171,34.21,170.12,34.21Zm-2.77-7.88c1,3,2.37,6.34,2.87,6.89.51-.11,2.09-1.59,3.59-3.36l-4-6.6Z"/><path d="M140.33,44.36a.5.5,0,0,1-.49-.38.5.5,0,0,1,.37-.6c.18-.05,18.18-4.62,26.15-17.41a.5.5,0,0,1,.69-.16.51.51,0,0,1,.16.69C159,39.64,140.63,44.3,140.45,44.35Z"/><path d="M76.54,51.43a.46.46,0,0,1-.23-.06.5.5,0,0,1-.21-.68l3-5.65a.5.5,0,0,1,.89.47l-3,5.65A.5.5,0,0,1,76.54,51.43Z" style="fill:#fff"/><path d="M78.48,56.91a.53.53,0,0,1-.24-.06.5.5,0,0,1-.19-.68l3-5.48a.5.5,0,0,1,.88.48l-3,5.48A.51.51,0,0,1,78.48,56.91Z" style="fill:#fff"/><path d="M83.25,57.26a.59.59,0,0,1-.22,0,.49.49,0,0,1-.22-.67L84.57,53a.51.51,0,0,1,.68-.22.5.5,0,0,1,.22.67L83.7,57A.49.49,0,0,1,83.25,57.26Z" style="fill:#fff"/><path d="M89.26,55a.45.45,0,0,1-.27-.08.5.5,0,0,1-.15-.69l2.3-3.53a.5.5,0,0,1,.84.54l-2.3,3.54A.5.5,0,0,1,89.26,55Z" style="fill:#fff"/><path d="M79,66.09h-.12a.5.5,0,0,1-.36-.61L79.94,60a.5.5,0,1,1,1,.25L79.5,65.72A.5.5,0,0,1,79,66.09Z" style="fill:#fff"/><path d="M75.3,68.39h-.07a.5.5,0,0,1-.42-.57l.88-6.18a.51.51,0,0,1,.57-.43.5.5,0,0,1,.42.57L75.8,68A.51.51,0,0,1,75.3,68.39Z" style="fill:#fff"/><path d="M71.77,61.15a.59.59,0,0,1-.22,0,.5.5,0,0,1-.23-.67L74,55a.5.5,0,1,1,.9.44l-2.65,5.47A.51.51,0,0,1,71.77,61.15Z" style="fill:#fff"/><path d="M68.41,69.81a.51.51,0,0,1-.17,0,.52.52,0,0,1-.3-.65l2-5.3a.5.5,0,0,1,.64-.3.52.52,0,0,1,.3.65l-2,5.3A.5.5,0,0,1,68.41,69.81Z" style="fill:#fff"/><path d="M70.89,75.81h-.11a.49.49,0,0,1-.38-.59l1.41-6.54a.5.5,0,0,1,.6-.38.49.49,0,0,1,.38.59l-1.42,6.54A.49.49,0,0,1,70.89,75.81Z" style="fill:#fff"/><path d="M65.23,78.46h0a.49.49,0,0,1-.44-.55l.7-6.19a.51.51,0,0,1,.56-.44.49.49,0,0,1,.43.56L65.73,78A.5.5,0,0,1,65.23,78.46Z" style="fill:#fff"/><path d="M67.35,87.3h-.06a.49.49,0,0,1-.43-.55l.7-5.83a.5.5,0,0,1,1,.12l-.71,5.83A.51.51,0,0,1,67.35,87.3Z" style="fill:#fff"/><path d="M147.57,70.69h-.1a.51.51,0,0,1-.39-.59l1.42-6.89a.49.49,0,0,1,.59-.39.5.5,0,0,1,.39.59l-1.42,6.89A.49.49,0,0,1,147.57,70.69Z" style="fill:#fff"/><path d="M141.21,76.52h-.09a.5.5,0,0,1-.4-.58L142,69a.5.5,0,0,1,.58-.4.49.49,0,0,1,.4.58l-1.24,6.89A.49.49,0,0,1,141.21,76.52Z" style="fill:#fff"/><path d="M66.47,64.62a.41.41,0,0,1-.21-.05.49.49,0,0,1-.24-.66l2.71-5.77a.5.5,0,1,1,.9.42l-2.71,5.78A.48.48,0,0,1,66.47,64.62Z" style="fill:#fff"/><path d="M62.11,73.81a.47.47,0,0,1-.17,0,.5.5,0,0,1-.3-.64L63.17,69a.5.5,0,0,1,.94.35l-1.53,4.12A.5.5,0,0,1,62.11,73.81Z" style="fill:#fff"/><path d="M59.05,83.82a.57.57,0,0,1-.18,0,.5.5,0,0,1-.29-.65l1.77-4.59a.5.5,0,0,1,.64-.29.5.5,0,0,1,.29.65L59.51,83.5A.48.48,0,0,1,59.05,83.82Z" style="fill:#fff"/><path d="M62.35,85.94a.49.49,0,0,1-.21,0,.51.51,0,0,1-.25-.66l1.89-4.13a.5.5,0,0,1,.9.42L62.8,85.65A.48.48,0,0,1,62.35,85.94Z" style="fill:#fff"/><path d="M58.46,94.07a.47.47,0,0,1-.17,0,.49.49,0,0,1-.3-.64l1.41-3.89a.5.5,0,1,1,.94.35l-1.41,3.88A.5.5,0,0,1,58.46,94.07Z" style="fill:#fff"/><path d="M59.05,104.08a.45.45,0,0,1-.2,0,.49.49,0,0,1-.26-.66l2-4.59a.5.5,0,0,1,.92.4l-2,4.59A.51.51,0,0,1,59.05,104.08Z" style="fill:#fff"/><path d="M54.1,101.26a.65.65,0,0,1-.19,0,.5.5,0,0,1-.27-.66l2.24-5.3a.5.5,0,0,1,.65-.26.49.49,0,0,1,.27.65L54.56,101A.51.51,0,0,1,54.1,101.26Z" style="fill:#fff"/><path d="M54.1,91.72a.46.46,0,0,1-.2,0,.5.5,0,0,1-.26-.66l2-4.48a.5.5,0,0,1,.66-.25.51.51,0,0,1,.25.66l-2,4.48A.51.51,0,0,1,54.1,91.72Z" style="fill:#fff"/><path d="M55.4,83.23a.58.58,0,0,1-.19,0,.51.51,0,0,1-.28-.66l2.12-5.18a.51.51,0,0,1,.66-.27.5.5,0,0,1,.27.65l-2.12,5.18A.49.49,0,0,1,55.4,83.23Z" style="fill:#fff"/><path d="M49.51,96.31a.46.46,0,0,1-.23-.06.49.49,0,0,1-.22-.67l2-3.89a.51.51,0,0,1,.68-.21.5.5,0,0,1,.21.67L50,96A.5.5,0,0,1,49.51,96.31Z" style="fill:#fff"/><path d="M48.92,106.68a.45.45,0,0,1-.16,0,.5.5,0,0,1-.32-.63l2.12-6.59a.51.51,0,0,1,.63-.33.5.5,0,0,1,.32.63l-2.12,6.6A.5.5,0,0,1,48.92,106.68Z" style="fill:#fff"/><path d="M50.68,111.74a.53.53,0,0,1-.24-.06.49.49,0,0,1-.19-.68l2-3.65a.5.5,0,0,1,.68-.2.49.49,0,0,1,.19.68l-2,3.65A.49.49,0,0,1,50.68,111.74Z" style="fill:#fff"/><path d="M54.45,113.74a.53.53,0,0,1-.24-.06A.49.49,0,0,1,54,113l2.35-4.24a.5.5,0,0,1,.68-.19.5.5,0,0,1,.2.68l-2.36,4.24A.5.5,0,0,1,54.45,113.74Z" style="fill:#fff"/><path d="M48.21,122.58a.35.35,0,0,1-.2,0,.49.49,0,0,1-.26-.66l2.6-5.77a.5.5,0,1,1,.91.41l-2.59,5.77A.51.51,0,0,1,48.21,122.58Z" style="fill:#fff"/><path d="M41.85,124a.42.42,0,0,1-.22,0,.5.5,0,0,1-.23-.67l3-6a.5.5,0,1,1,.89.44l-2.94,6A.5.5,0,0,1,41.85,124Z" style="fill:#fff"/><path d="M44.09,110.56a.45.45,0,0,1-.2,0,.49.49,0,0,1-.26-.66l2.47-5.65a.5.5,0,1,1,.92.4l-2.47,5.65A.51.51,0,0,1,44.09,110.56Z" style="fill:#fff"/><path d="M144.21,81.35l-.15,0a.5.5,0,0,1-.32-.63L145.86,74a.5.5,0,0,1,.95.31L144.69,81A.5.5,0,0,1,144.21,81.35Z" style="fill:#fff"/><path d="M147.28,82.06a.65.65,0,0,1-.2,0,.51.51,0,0,1-.26-.66L150,73.94a.5.5,0,0,1,.92.39l-3.18,7.42A.52.52,0,0,1,147.28,82.06Z" style="fill:#fff"/><path d="M149.63,86.18a.43.43,0,0,1-.19,0,.5.5,0,0,1-.27-.66l2.71-6.36a.5.5,0,0,1,.66-.26.5.5,0,0,1,.26.65l-2.71,6.37A.49.49,0,0,1,149.63,86.18Z" style="fill:#fff"/><path d="M145.86,91.48h0a.52.52,0,0,1-.47-.53c.15-2.22.36-5.61.36-5.86a.5.5,0,0,1,.5-.5.5.5,0,0,1,.5.5c0,.36-.32,5.35-.36,5.92A.49.49,0,0,1,145.86,91.48Z" style="fill:#fff"/><path d="M140.8,92.07a.39.39,0,0,1-.18,0,.49.49,0,0,1-.29-.64l2.24-5.77a.5.5,0,1,1,.93.36l-2.24,5.77A.48.48,0,0,1,140.8,92.07Z" style="fill:#fff"/><path d="M139.27,86.65h0a.5.5,0,0,1-.47-.53l.35-5.66a.5.5,0,0,1,.53-.46.49.49,0,0,1,.47.53l-.35,5.65A.5.5,0,0,1,139.27,86.65Z" style="fill:#fff"/><path d="M131.26,95.72a.5.5,0,0,1-.5-.5V87.56a.5.5,0,0,1,.5-.5.51.51,0,0,1,.5.5v7.66A.5.5,0,0,1,131.26,95.72Z" style="fill:#fff"/><path d="M132.91,107.74h0a.5.5,0,0,1-.48-.52l.23-7.07a.49.49,0,0,1,.52-.48.5.5,0,0,1,.48.52l-.23,7.06A.51.51,0,0,1,132.91,107.74Z" style="fill:#fff"/><path d="M137.15,101h0a.49.49,0,0,1-.47-.53L137,93.9a.49.49,0,0,1,.53-.47A.5.5,0,0,1,138,94l-.35,6.6A.51.51,0,0,1,137.15,101Z" style="fill:#fff"/><path d="M141.27,102a.5.5,0,0,1-.5-.48l-.24-5.89a.52.52,0,0,1,.48-.52.51.51,0,0,1,.52.48l.24,5.89a.5.5,0,0,1-.48.52Z" style="fill:#fff"/><path d="M144.45,102h0a.5.5,0,0,1-.49-.5l.12-7.43a.5.5,0,1,1,1,0l-.12,7.42A.51.51,0,0,1,144.45,102Z" style="fill:#fff"/><path d="M144.8,112.57a.51.51,0,0,1-.5-.48l-.35-7.66a.5.5,0,0,1,.48-.52.48.48,0,0,1,.52.48l.35,7.65a.51.51,0,0,1-.47.53Z" style="fill:#fff"/><path d="M148.34,124.35a.51.51,0,0,1-.42-.23l-3.65-5.54a.5.5,0,1,1,.83-.55l3.65,5.54a.49.49,0,0,1-.14.69A.46.46,0,0,1,148.34,124.35Z" style="fill:#fff"/><path d="M140.8,121.87a.51.51,0,0,1-.47-.32l-1.65-4.36a.49.49,0,0,1,.29-.64.5.5,0,0,1,.65.29l1.65,4.35a.52.52,0,0,1-.29.65A.57.57,0,0,1,140.8,121.87Z" style="fill:#fff"/><path d="M136.32,115.16a.51.51,0,0,1-.5-.48l-.35-7.07a.5.5,0,0,1,.47-.52.47.47,0,0,1,.53.47l.35,7.07a.51.51,0,0,1-.47.53Z" style="fill:#fff"/><path d="M140.92,112.57a.5.5,0,0,1-.5-.48l-.24-6a.5.5,0,0,1,.48-.52h0a.5.5,0,0,1,.5.48l.24,6a.52.52,0,0,1-.48.52Z" style="fill:#fff"/><path d="M128.19,115.39h0a.5.5,0,0,1-.48-.52l.24-6.12a.48.48,0,0,1,.52-.48.5.5,0,0,1,.48.52l-.24,6.12A.5.5,0,0,1,128.19,115.39Z" style="fill:#fff"/><path d="M135.5,126.11a.51.51,0,0,1-.47-.31l-1.88-4.71a.5.5,0,0,1,.93-.38l1.88,4.72a.5.5,0,0,1-.28.65A.57.57,0,0,1,135.5,126.11Z" style="fill:#fff"/><path d="M129.61,132.36a.5.5,0,0,1-.49-.42l-1.06-6.12a.5.5,0,1,1,1-.17l1.06,6.12a.5.5,0,0,1-.41.58Z" style="fill:#fff"/><path d="M123.25,123.05a.5.5,0,0,1-.5-.5v-6.36a.5.5,0,0,1,.5-.5.5.5,0,0,1,.5.5v6.36A.5.5,0,0,1,123.25,123.05Z" style="fill:#fff"/><path d="M172.57,31.82a.5.5,0,0,1-.43-.25l-4.06-7a.5.5,0,1,1,.86-.51l4.07,7a.52.52,0,0,1-.18.69A.59.59,0,0,1,172.57,31.82Z"/><path d="M150.28,144.78h-.09a.5.5,0,0,1-.4-.58c0-.12,2.14-11.81-1.64-14.77-1.64-1.28-4.89-1.15-8.93.34a.49.49,0,0,1-.64-.29.5.5,0,0,1,.29-.65c2.57-.95,7.27-2.24,9.89-.18,4.26,3.32,2.11,15.23,2,15.73A.49.49,0,0,1,150.28,144.78Z" style="fill:#fff"/><path d="M169.84,139.13a.46.46,0,0,1-.33-.13.49.49,0,0,1,0-.7c2.46-2.8,3.66-10.57,1.94-12.6s-10.61-4-15.58-2.84c-4.82,1.16-6,3.92-6,3.94a.5.5,0,1,1-.92-.38c.05-.13,1.39-3.25,6.7-4.53,5.07-1.22,14.37.55,16.58,3.16s.71,10.89-1.95,13.91A.51.51,0,0,1,169.84,139.13Z" style="fill:#fff"/></g></g></svg>