<svg xmlns="http://www.w3.org/2000/svg" viewBox="0 0 200.44 117.83"><title>Recurso 5</title><g id="Capa_2" data-name="Capa 2"><g id="Capa_1-2" data-name="Capa 1"><path d="M183.57,7.21s10.19-1.11,13.52,2.21a10.18,10.18,0,0,1,2.66,10.42c-.89,3.33-2.66,2.66-2.66,2.66Z" style="fill:#564002"/><path d="M190.66,38s5.54-1.33,7.09-5.76,1.33-6.88-.66-9.76-8.43-14-16.19-18.62S159.84-.55,149.42,1s-12.63,5.32-18.17,6S104.42.78,88.9,1s-45.67,7.31-63,20S.22,54,0,67.51s15.3,34.58,32.59,42.56,37.25,10.86,54.32,3.55,21.94-12,27-16.63,7.1-8.87,5.1-9.53,0,1.55-13.74,4.65-21.06,6-34.81,6.21S50.55,95.44,43,87.68,19.29,71.28,18.85,68.17s-.67-12.19,8-14.41S47,52,49.44,51.54s10,0,12-.22,6.43-1.77,6-.44-7.32,2.22-7.54,4,2,1.77,1.55,5.76S55,64.85,55,68.39s1.11,4.66,4.44,2.66,4.65-5.54,6.65-4.65,2.66,3.55,2.21,6a3,3,0,0,0,4.88,2.89c2.66-1.78,2.44-4.44,1.33-6.65L73.38,66.4s5.1,2.66,5.77,3.77,5.32,2,6-.45-3.54-5.54-3.54-5.54,4.87.89,6,1.55,4-2.21.67-4.43-8.87-.67-10.42-1.55-3.77-4.21-3.77-4.21,6-3.33,6.65-4.22,10.2,1.33,16.63,1.11,8.2-1.33,8.2-1.33a12.38,12.38,0,0,0,4.21,3.55,4.83,4.83,0,0,1,2.88,4.65c0,.89-4,2.89-5.1,5.32s-.66,5.1,3.11,4,2.21-4,5.76-4.88,2.44,0,2.66,3.32.67,5.77,4.21,5.55,3.55-2.22,3.33-3.77S123,63.07,125,63.29a5.05,5.05,0,0,1,4.21,2.89c.67,1.55,2.44,2.88,4,2.66s3.33-2.22,3.1-2.89-.66-2.21-.66-2.21,1.77-3.11.22-4.44-4.88.23-8.2-1.55S119.94,50,119.94,50s8.64-1.33,14.41-2.88,15.3-3.1,17.51-1.55,3.77,1.33,2.88,3.1-4,4.88-5.09,6.21-6.43.22-8.21,1.55-1.55,4,0,4.44,4.44.88,4.44.88-4.44,3.77-1.55,5.77,3.54,1.33,5.32-.67,2.88-6,6.42-5.76,6.21.66,5.1,2.21-.44,6.66,2.89,5.77a6.21,6.21,0,0,0,4.21-4s2.88,0,2.88-2-2.22-4-4-4.87a52,52,0,0,1-4.88-3.11,12.78,12.78,0,0,0,1.33-5.54,8.58,8.58,0,0,0-.88-4.43s17.07,1.1,21.72-.45S190.66,38,190.66,38Z" style="fill:#564002"/><path d="M152.75,22.34a.5.5,0,0,1-.49-.4A8.25,8.25,0,0,1,153.42,16a8.41,8.41,0,0,1,5.9-3.32c8.34-1.36,12.22,2,12.38,2.11a.5.5,0,1,1-.66.75s-3.73-3.14-11.56-1.88a7.48,7.48,0,0,0-5.23,2.9,7.4,7.4,0,0,0-1,5.16.5.5,0,0,1-.39.59Z"/><path d="M166.88,41.34c-16.09,0-25.17-4.17-25.27-4.23a.51.51,0,0,1-.14-.7.5.5,0,0,1,.69-.14c.21.12,18.33,8.17,48.39,1.26a.5.5,0,1,1,.22,1A106.75,106.75,0,0,1,166.88,41.34Z"/><path d="M183.34,31.21a.5.5,0,0,1-.47-.35A3.42,3.42,0,0,0,181,28.44a2.82,2.82,0,0,0-2.22.45.51.51,0,0,1-.7-.11.5.5,0,0,1,.11-.69,3.75,3.75,0,0,1,3.11-.6c1.13.35,2,1.38,2.54,3.06a.51.51,0,0,1-.32.63A.41.41,0,0,1,183.34,31.21Z"/><path d="M193.1,29.43a.54.54,0,0,1-.36-.14,3.36,3.36,0,0,1-1.23-2.95,3.68,3.68,0,0,1,2.05-2.3.5.5,0,0,1,.4.92s-1.28.58-1.47,1.57a2.45,2.45,0,0,0,1,2,.5.5,0,0,1,0,.71A.52.52,0,0,1,193.1,29.43Z"/><path d="M119.94,50.49a.48.48,0,0,1-.42-.23L114.86,43a.52.52,0,0,1,0-.56.5.5,0,0,1,.51-.2,4.8,4.8,0,0,1,2.5,1.72c.68.81,6.06,1.81,9.66,2.26a.5.5,0,0,1-.12,1c-1.52-.19-9.13-1.2-10.3-2.61l-.18-.21,3.42,5.38a.51.51,0,0,1-.15.7A.54.54,0,0,1,119.94,50.49Z"/><path d="M105.53,51.6a.5.5,0,0,1-.39-.18c-.16-.2-3.85-4.79-4.75-8.4-.82-3.28-.68-7.53,2.18-9.62,1.83-1.32,4.31-1.28,8.05-1.2,1.61,0,3.43.07,5.53,0a45.5,45.5,0,0,1,13.7,1.8.5.5,0,1,1-.31,1,43.55,43.55,0,0,0-13.35-1.75c-2.13.07-4,0-5.59,0-3.54-.07-5.88-.12-7.44,1-2,1.48-2.73,4.84-1.8,8.57.85,3.39,4.52,8,4.56,8a.5.5,0,0,1-.08.7A.45.45,0,0,1,105.53,51.6Z"/><path d="M80.7,51.82a.59.59,0,0,1-.23,0,.51.51,0,0,1-.21-.68c.1-.21,2.57-5.21-3.61-9.33-6.45-4.3-15.6-4.57-15.69-4.57a.5.5,0,0,1-.49-.51.52.52,0,0,1,.51-.49c.39,0,9.53.28,16.23,4.74,6.94,4.63,4,10.56,3.93,10.62A.5.5,0,0,1,80.7,51.82Z"/><path d="M52.38,51.38H52.3c-1.92-.29-4.23-1.79-6.86-4.45l-.12-.12a.5.5,0,0,1,0-.71.5.5,0,0,1,.7,0l.13.13c2.48,2.5,4.6,3.9,6.3,4.17a.49.49,0,0,1,.42.57A.5.5,0,0,1,52.38,51.38Z"/><path d="M79.55,105.39c-13.87,0-33.42-3.78-52.79-17.3C1.07,70.15,5.67,46.14,5.72,45.9a.5.5,0,0,1,1,.2c0,.24-4.49,23.62,20.64,41.17,27.63,19.3,55.6,18.54,66.52,15.45,13-3.69,24.72-15.49,24.84-15.61a.49.49,0,0,1,.7,0,.5.5,0,0,1,0,.71c-.12.12-12,12.11-25.27,15.87A55.77,55.77,0,0,1,79.55,105.39Z"/><path d="M163.88,27a7.43,7.43,0,0,1-5.64-2.31.5.5,0,0,1,.07-.71.5.5,0,0,1,.7.07c.09.1,2.14,2.51,6.35,1.82s4.78-1.8,4.79-1.81a.48.48,0,0,1,.65-.24.51.51,0,0,1,.25.67c-.11.26-.92,1.61-5.53,2.37A10.79,10.79,0,0,1,163.88,27Z"/><path d="M197.28,17.9l-.55,0c-2.47-.26-3.18-1.09-3.25-1.19a.5.5,0,1,1,.79-.61h0a4.36,4.36,0,0,0,2.57.81,2.61,2.61,0,0,0,2.66-1.07.5.5,0,0,1,.89.47A3.47,3.47,0,0,1,197.28,17.9Z"/><path d="M110.44,8.36h-5.38a.5.5,0,0,1-.5-.5.51.51,0,0,1,.5-.5h5.38a.5.5,0,0,1,.5.5A.5.5,0,0,1,110.44,8.36Z" style="fill:#fff"/><path d="M96.67,5.78a.5.5,0,0,1,0-1l4.95-.22a.5.5,0,0,1,.52.48.5.5,0,0,1-.48.52l-5,.22Z" style="fill:#fff"/><path d="M94.51,11.16a.5.5,0,0,1-.08-1l5.17-.86a.5.5,0,0,1,.16,1l-5.16.86Z" style="fill:#fff"/><path d="M102.26,13.31a.5.5,0,0,1-.08-1s3.65-.65,4.48-.85a.5.5,0,0,1,.61.36.5.5,0,0,1-.37.61c-.86.21-4.4.84-4.55.86Z" style="fill:#fff"/><path d="M84.61,7.07a.49.49,0,0,1-.49-.47.5.5,0,0,1,.46-.53L91,5.64a.5.5,0,0,1,.53.47.5.5,0,0,1-.47.53l-6.45.43Z" style="fill:#fff"/><path d="M80.74,11.16a.5.5,0,0,1-.06-1l7.75-.86a.51.51,0,0,1,.56.44.51.51,0,0,1-.45.56l-7.75.86Z" style="fill:#fff"/><path d="M83.54,15.25a.5.5,0,0,1-.09-1l6-1.08a.51.51,0,0,1,.58.41.51.51,0,0,1-.41.58l-6,1.07Z" style="fill:#fff"/><path d="M68.9,8.58a.5.5,0,0,1-.08-1l6.24-1.07a.5.5,0,0,1,.58.41.5.5,0,0,1-.41.57L69,8.57Z" style="fill:#fff"/><path d="M68.69,13.31a.49.49,0,0,1-.5-.45.5.5,0,0,1,.45-.55l6.89-.64a.5.5,0,0,1,.09,1l-6.89.64Z" style="fill:#fff"/><path d="M71.7,17.83a.5.5,0,0,1-.11-1L78,15.34a.5.5,0,0,1,.23,1l-6.46,1.51Z" style="fill:#fff"/><path d="M61.58,16.76a.5.5,0,0,1-.07-1l6.88-1.07a.51.51,0,0,1,.58.41.5.5,0,0,1-.42.57l-6.89,1.08Z" style="fill:#fff"/><path d="M62,11.38a.5.5,0,0,1-.49-.44.5.5,0,0,1,.43-.56l6.45-.86A.51.51,0,0,1,69,10a.51.51,0,0,1-.43.56l-6.46.86Z" style="fill:#fff"/><path d="M54.7,14.6a.51.51,0,0,1-.5-.43.5.5,0,0,1,.43-.56l6-.86a.51.51,0,0,1,.57.42.5.5,0,0,1-.43.57l-6,.86Z" style="fill:#fff"/><path d="M54.26,21.49a.5.5,0,0,1-.49-.44.51.51,0,0,1,.44-.56l8-.86a.5.5,0,1,1,.1,1l-8,.86Z" style="fill:#fff"/><path d="M66.32,23a.5.5,0,0,1-.09-1l7.1-1.29a.49.49,0,0,1,.58.4.5.5,0,0,1-.4.58L66.41,23Z" style="fill:#fff"/><path d="M47.81,17.83a.5.5,0,0,1-.06-1l7.1-.86A.5.5,0,1,1,55,17l-7.1.86Z" style="fill:#fff"/><path d="M50,11.59a.51.51,0,0,1-.48-.35.5.5,0,0,1,.34-.63l7.1-2.15a.5.5,0,0,1,.62.33.51.51,0,0,1-.33.63l-7.1,2.15Z" style="fill:#fff"/><path d="M77.08,4.27a.5.5,0,0,1,0-1l6.89-.64a.5.5,0,1,1,.09,1l-6.88.64Z" style="fill:#fff"/><path d="M42.86,22.57a.5.5,0,0,1-.17-1L49.79,19a.49.49,0,0,1,.64.29.51.51,0,0,1-.3.65L43,22.54A.51.51,0,0,1,42.86,22.57Z" style="fill:#fff"/><path d="M41.78,16.54a.5.5,0,0,1-.15-1L49,13.2a.5.5,0,0,1,.63.32.51.51,0,0,1-.33.63l-7.31,2.37Z" style="fill:#fff"/><path d="M34.89,22.14a.5.5,0,0,1-.46-.32.5.5,0,0,1,.28-.65l7.1-2.8a.5.5,0,0,1,.65.29.49.49,0,0,1-.28.64l-7.1,2.8A.41.41,0,0,1,34.89,22.14Z" style="fill:#fff"/></g></g></svg>