<svg xmlns="http://www.w3.org/2000/svg" viewBox="0 0 137.27 225.09"><title>Recurso 6</title><g id="Capa_2" data-name="Capa 2"><g id="Capa_1-2" data-name="Capa 1"><polygon points="12.01 167.63 8.46 172.28 7.35 182.26 13.12 189.79 13.34 199.33 20.21 204.43 21.54 209.53 43.04 221.05 88.05 221.05 88.94 214.63 110.88 213.52 95.36 190.68 79.84 185.14 75.41 174.28 61.67 149.22 12.01 167.63" style="fill:#dbdddd"/><path d="M33.51,155s-16.85,7.76-18.84,10-3.6,3.39-4.89,6.13c-1,2-2,5.39,0,5.17s3.64-4.78,6.3-7,10.42-8.75,4.12,1.46c-1,1.56.44,3.77,2,2s4.88-5.09,8.21-6.42S45,161.86,45,161.86l-.22-5.76-3.11-5.32Z" style="fill:#383837"/><path d="M58.12,165.41s-9.31,4.43-14.85,5.1S31.74,173.17,32,175.16s6.87,1.78,6.87,1.78-7.31,5.32-8,9.31A5.39,5.39,0,0,0,31,189a1.54,1.54,0,0,0,2.72.21,37.32,37.32,0,0,1,4.89-6.3c3.33-3.32,6.21-4.87,8-4.65s-1.33,4.87-.44,9.09,4.43,3.54,4.43,3.54-3.55-3.76.67-9.09,7.31-5.32,9.31-5.76,4.21-5.32,4.21-5.32Z" style="fill:#383837"/><path d="M83.17,171.62s3.77,17.29,8.43,24.16,12,16.63,16.4,18.4,2.88-.66,2.88-.66,4.44,7.76,6.87,9.31,6.21.22,6.21.22,3.77,4.43,5.32.22.45-12.19-.66-17.51-12.2-31.26-12.2-31.26L98,149.67,86.5,139.47Z"/><path d="M45.7,50.13S43,28.62,43.49,22.42,46.15,8.89,44.15,6,34.84-.2,29.52.69s.22,2.88,1.33,6-4.21,5.76-8.65,8.42-7.75,5.76-7.53,8.65-.22,6.87-3.33,12.19S-.63,51.9,0,71.41,9.79,98,14.89,102.67s11.75,10.2,11.75,10.2.44,10.42.44,18.62,2.44,20.62,4.21,23.5,3.33,4.66,5.32,2.88,2.67-3.77,3.55-1.77,3.55,8.64,7.1,9.75a13.66,13.66,0,0,0,6.87.22s-.44,5.55,2.88,6.43a14.14,14.14,0,0,0,6.21.22s2,4.22,5.76,5.1,5.77-.88,5.77-.88,2,2.66,4.21,1.77a5.16,5.16,0,0,0,2.88-2.88,2.2,2.2,0,0,0,3.55-1.11l1.11-2.88s5.32,5.1,8.2.22-4.21-17.29-6.21-22.39-19.73-32.59-19.73-32.59L33.51,64.32Z" style="fill:#e8c172"/><path d="M38.11,11.23a3.79,3.79,0,0,1-2.23-.71C34,9.17,34.17,7.68,34.52,7.09a.5.5,0,0,1,.68-.18.51.51,0,0,1,.19.68s-.48,1,1.07,2.12a2.79,2.79,0,0,0,2.14.47.51.51,0,0,1,.61.37.5.5,0,0,1-.37.6A2.91,2.91,0,0,1,38.11,11.23Z"/><path d="M45.7,50.13s-6,4.43-12,6-7.09,5.55-6,14.19c0,0,2.66,18.4,22.17,39s32.59,31.26,35.69,35.25,22.83,21.28,27.27,27.71S126,198.44,130,198.22s1.11-15.08,1.11-15.08,4.43,3.77,6,2.66-5.1-19.06-12.86-31.7S107.11,127.5,106,121.74,98.25,90,80.07,74.74A264.76,264.76,0,0,0,45.7,50.13Z"/><path d="M5.91,6.68s-.78,1.88-.33,2.66a12.6,12.6,0,0,0,5.87,4.54,21.84,21.84,0,0,1,5.44,3.74,3.82,3.82,0,0,0,4.95.12l7.4-6L28.8,9.34,12,5.9Z" style="fill:#383837"/><path d="M30.61,3.39a2.24,2.24,0,0,0-1.81-1.6c-1.58-.26-4.31-.66-7-.88C17.55.58,12.12-.75,8.13.58S2.81,7.67,2.81,8.34,7.24,6.79,9.35,6.9s10.31,4.43,14.18,4.76,5.88,1.33,7.65,0C32.5,10.67,31.3,5.81,30.61,3.39Z"/><path d="M17.11,25.13H17a.5.5,0,0,1-.4-.58l.45-2.33a.51.51,0,0,1,.58-.4.51.51,0,0,1,.4.59l-.44,2.33A.5.5,0,0,1,17.11,25.13Z" style="fill:#fff"/><path d="M19,27.24h-.1a.5.5,0,0,1-.39-.59l.55-2.77a.5.5,0,0,1,.59-.39.49.49,0,0,1,.39.59l-.55,2.77A.5.5,0,0,1,19,27.24Z" style="fill:#fff"/><path d="M22,25.47h-.09a.51.51,0,0,1-.4-.59L22.05,22a.5.5,0,0,1,.58-.4.51.51,0,0,1,.4.59l-.56,2.88A.49.49,0,0,1,22,25.47Z" style="fill:#fff"/><path d="M21.54,31.78h-.07a.51.51,0,0,1-.43-.57l.45-3.1a.5.5,0,0,1,.56-.42.49.49,0,0,1,.43.56L22,31.35A.5.5,0,0,1,21.54,31.78Z" style="fill:#fff"/><path d="M18.44,32.89h-.08a.51.51,0,0,1-.42-.58l.56-3.43a.49.49,0,0,1,.57-.42.5.5,0,0,1,.41.58l-.55,3.43A.49.49,0,0,1,18.44,32.89Z" style="fill:#fff"/><path d="M15.33,32.23h-.09a.5.5,0,0,1-.4-.58l.67-3.55a.5.5,0,1,1,1,.18l-.67,3.55A.49.49,0,0,1,15.33,32.23Z" style="fill:#fff"/><path d="M23.76,33.78h-.1a.49.49,0,0,1-.39-.59L24,29.3a.5.5,0,0,1,.59-.39.49.49,0,0,1,.39.59l-.77,3.88A.5.5,0,0,1,23.76,33.78Z" style="fill:#fff"/><path d="M20.65,37.55h-.09a.51.51,0,0,1-.4-.59l.67-3.43a.5.5,0,0,1,.58-.4.51.51,0,0,1,.4.59l-.67,3.43A.49.49,0,0,1,20.65,37.55Z" style="fill:#fff"/><path d="M15.44,38.1h-.12a.5.5,0,0,1-.36-.61l.88-3.55a.51.51,0,0,1,.61-.36.51.51,0,0,1,.37.61l-.89,3.54A.5.5,0,0,1,15.44,38.1Z" style="fill:#fff"/><path d="M17.88,40.54h-.1a.5.5,0,0,1-.39-.59l.78-3.88a.5.5,0,0,1,1,.2l-.78,3.88A.49.49,0,0,1,17.88,40.54Z" style="fill:#fff"/><path d="M23.54,40.54h-.1A.5.5,0,0,1,23,40l.67-3.44a.5.5,0,1,1,1,.19L24,40.14A.5.5,0,0,1,23.54,40.54Z" style="fill:#fff"/><path d="M19.88,44.64h-.13a.51.51,0,0,1-.36-.62l1-3.76a.5.5,0,0,1,1,.25l-1,3.77A.5.5,0,0,1,19.88,44.64Z" style="fill:#fff"/><path d="M14.22,43.76a.44.44,0,0,1-.15,0,.49.49,0,0,1-.32-.62l1.1-3.55a.51.51,0,0,1,.63-.33.5.5,0,0,1,.33.63L14.7,43.41A.5.5,0,0,1,14.22,43.76Z" style="fill:#fff"/><path d="M12.34,39.21l-.14,0a.49.49,0,0,1-.34-.62L13,34.8a.5.5,0,0,1,1,.28l-1.11,3.77A.5.5,0,0,1,12.34,39.21Z" style="fill:#fff"/><path d="M11.23,45a.39.39,0,0,1-.15,0,.5.5,0,0,1-.33-.62l1.11-3.55a.5.5,0,0,1,1,.3l-1.11,3.54A.5.5,0,0,1,11.23,45Z" style="fill:#fff"/><path d="M15.55,48a.59.59,0,0,1-.22,0,.5.5,0,0,1-.22-.68L17,43.48a.5.5,0,1,1,.9.44L16,47.69A.49.49,0,0,1,15.55,48Z" style="fill:#fff"/><path d="M22.65,47.3a.34.34,0,0,1-.14,0,.49.49,0,0,1-.34-.61l.88-3.11a.5.5,0,0,1,1,.28l-.89,3.1A.49.49,0,0,1,22.65,47.3Z" style="fill:#fff"/><path d="M17.88,51.74l-.13,0a.51.51,0,0,1-.35-.62l1-3.55a.49.49,0,0,1,.61-.34.5.5,0,0,1,.35.62l-1,3.54A.5.5,0,0,1,17.88,51.74Z" style="fill:#fff"/><path d="M7.46,47.08a.51.51,0,0,1-.17,0,.5.5,0,0,1-.3-.64l1.22-3.33a.5.5,0,0,1,.94.35L7.93,46.75A.48.48,0,0,1,7.46,47.08Z" style="fill:#fff"/><path d="M11.67,49.52l-.17,0a.5.5,0,0,1-.3-.64l1.22-3.33a.52.52,0,0,1,.65-.3.5.5,0,0,1,.29.65l-1.22,3.32A.5.5,0,0,1,11.67,49.52Z" style="fill:#fff"/><path d="M13.89,54.06h-.1a.49.49,0,0,1-.39-.59l.78-3.76a.49.49,0,0,1,.59-.39.5.5,0,0,1,.39.59l-.78,3.77A.5.5,0,0,1,13.89,54.06Z" style="fill:#fff"/><path d="M7.91,52.07l-.14,0a.49.49,0,0,1-.34-.62l1-3.44a.5.5,0,0,1,1,.28l-1,3.44A.51.51,0,0,1,7.91,52.07Z" style="fill:#fff"/><path d="M7.94,59a.51.51,0,0,1-.5-.44L7,55a.5.5,0,0,1,.44-.55.5.5,0,0,1,.55.44l.41,3.55A.51.51,0,0,1,8,59Z" style="fill:#fff"/><path d="M10.57,57.72a.49.49,0,0,1-.5-.48L10,53.58a.5.5,0,0,1,.48-.52.5.5,0,0,1,.52.49l.11,3.66a.51.51,0,0,1-.49.51Z" style="fill:#fff"/><path d="M28.08,26.69H28a.49.49,0,0,1-.42-.57l.44-3a.51.51,0,0,1,.57-.42.5.5,0,0,1,.42.57l-.45,3A.5.5,0,0,1,28.08,26.69Z" style="fill:#fff"/><path d="M25.09,25.24H25a.5.5,0,0,1-.45-.55L25,20.37a.51.51,0,0,1,.55-.45.5.5,0,0,1,.45.55l-.45,4.33A.49.49,0,0,1,25.09,25.24Z" style="fill:#fff"/><path d="M30.41,32.78h0a.5.5,0,0,1-.47-.53l.22-3.44a.5.5,0,0,1,1,.07l-.22,3.43A.5.5,0,0,1,30.41,32.78Z" style="fill:#fff"/><path d="M27.3,35.33h-.1a.51.51,0,0,1-.39-.59l.78-3.66a.5.5,0,1,1,1,.21l-.78,3.65A.49.49,0,0,1,27.3,35.33Z" style="fill:#fff"/><path d="M31.52,38.88h-.1a.5.5,0,0,1-.39-.59l.77-3.88a.5.5,0,0,1,.59-.39.49.49,0,0,1,.39.59L32,38.48A.51.51,0,0,1,31.52,38.88Z" style="fill:#fff"/><path d="M28.08,41.65H28a.5.5,0,0,1-.43-.56L28,38a.51.51,0,0,1,.56-.43.5.5,0,0,1,.43.57l-.45,3.1A.5.5,0,0,1,28.08,41.65Z" style="fill:#fff"/><path d="M27,49.19l-.14,0a.5.5,0,0,1-.34-.63l1.11-3.66a.5.5,0,0,1,1,.29l-1.11,3.66A.5.5,0,0,1,27,49.19Z" style="fill:#fff"/><path d="M21.43,56.61H21.3A.49.49,0,0,1,21,56l1.1-4.1a.52.52,0,0,1,.62-.35.5.5,0,0,1,.35.61l-1.11,4.11A.49.49,0,0,1,21.43,56.61Z" style="fill:#fff"/><path d="M14.67,64.59a.49.49,0,0,1-.49-.4l-.56-2.88a.5.5,0,1,1,1-.19L15.16,64a.51.51,0,0,1-.4.59Z" style="fill:#fff"/><path d="M16.77,59.27a.5.5,0,0,1-.49-.39l-.66-3.22a.5.5,0,0,1,1-.2l.66,3.21a.49.49,0,0,1-.38.59Z" style="fill:#fff"/><path d="M21.65,63.82a.5.5,0,0,1-.45-.28l-1.55-3.1a.5.5,0,0,1,.23-.67.49.49,0,0,1,.67.22L22.1,63.1a.51.51,0,0,1-.23.67A.54.54,0,0,1,21.65,63.82Z" style="fill:#fff"/><path d="M4.91,57.5a.49.49,0,0,1-.48-.36L3.55,54a.48.48,0,0,1,.34-.61.49.49,0,0,1,.62.34l.88,3.1a.49.49,0,0,1-.34.62A.34.34,0,0,1,4.91,57.5Z" style="fill:#fff"/><path d="M6.46,63.6A.5.5,0,0,1,6,63.26L4.88,60.05a.5.5,0,0,1,1-.33l1.11,3.21a.51.51,0,0,1-.48.67Z" style="fill:#fff"/><path d="M10.57,66a.52.52,0,0,1-.49-.37l-1.1-4a.5.5,0,0,1,.34-.62.52.52,0,0,1,.62.35l1.11,4a.51.51,0,0,1-.35.62Z" style="fill:#fff"/><path d="M6.13,53a.5.5,0,0,1-.48-.37l-.89-3.1a.51.51,0,0,1,.35-.62.5.5,0,0,1,.62.34l.88,3.11a.5.5,0,0,1-.34.62Z" style="fill:#fff"/><path d="M20.43,67.92a.5.5,0,0,1-.46-.31l-1.67-4.1a.51.51,0,0,1,.28-.65.49.49,0,0,1,.65.27l1.66,4.1a.49.49,0,0,1-.27.65A.43.43,0,0,1,20.43,67.92Z" style="fill:#fff"/><path d="M24.64,63.6a.49.49,0,0,1-.46-.33l-1.56-4.1a.51.51,0,0,1,.3-.64.5.5,0,0,1,.64.29l1.55,4.1a.49.49,0,0,1-.29.64A.39.39,0,0,1,24.64,63.6Z" style="fill:#fff"/><path d="M15.11,70.69a.5.5,0,0,1-.49-.39L13.85,67a.49.49,0,0,1,.37-.6.5.5,0,0,1,.6.37l.78,3.33a.5.5,0,0,1-.38.6Z" style="fill:#fff"/><path d="M4.14,68a.49.49,0,0,1-.46-.3L1.9,63.63A.51.51,0,0,1,2.17,63a.5.5,0,0,1,.65.26l1.78,4.1a.5.5,0,0,1-.26.66A.51.51,0,0,1,4.14,68Z" style="fill:#fff"/><path d="M8.13,70.91a.5.5,0,0,1-.48-.34L6.54,67.25a.52.52,0,0,1,.32-.64.5.5,0,0,1,.63.32L8.6,70.25a.5.5,0,0,1-.31.64A.47.47,0,0,1,8.13,70.91Z" style="fill:#fff"/><path d="M1.59,61.49h-.1a.49.49,0,0,1-.39-.59l.55-2.77a.5.5,0,0,1,.59-.39.49.49,0,0,1,.39.59l-.55,2.77A.5.5,0,0,1,1.59,61.49Z" style="fill:#fff"/><path d="M30.13,120.52h0a.5.5,0,0,1-.48-.52c.06-1.38.17-4.09.17-4.47a.5.5,0,0,1,.5-.5.5.5,0,0,1,.5.5c0,.5-.16,4.35-.17,4.51A.5.5,0,0,1,30.13,120.52Z" style="fill:#fff"/><path d="M34.29,124.67a.49.49,0,0,1-.5-.46l-.33-5.33a.5.5,0,0,1,.46-.53.49.49,0,0,1,.53.47l.34,5.32a.5.5,0,0,1-.47.53Z" style="fill:#fff"/><path d="M30.63,129.83a.5.5,0,0,1-.5-.48L30,124.86a.5.5,0,0,1,.48-.52.49.49,0,0,1,.52.48l.17,4.49a.5.5,0,0,1-.48.52Z" style="fill:#fff"/><path d="M36.45,132.82a.5.5,0,0,1-.5-.46l-.33-4a.5.5,0,0,1,.46-.54.51.51,0,0,1,.53.46l.34,4a.51.51,0,0,1-.46.54Z" style="fill:#fff"/><path d="M40.27,123.51a.49.49,0,0,1-.49-.44l-.5-4.33a.5.5,0,1,1,1-.11l.5,4.32a.51.51,0,0,1-.44.56Z" style="fill:#fff"/><path d="M44.26,125a.51.51,0,0,1-.5-.47l-.33-5.83a.5.5,0,0,1,.47-.52.47.47,0,0,1,.53.47l.33,5.82a.5.5,0,0,1-.47.53Z" style="fill:#fff"/><path d="M41.1,133.32a.49.49,0,0,1-.49-.47l-.34-5.15a.5.5,0,0,1,1-.07l.33,5.16a.5.5,0,0,1-.46.53Z" style="fill:#fff"/><path d="M37.11,119.35a.5.5,0,0,1-.49-.4l-1-5.16a.48.48,0,0,1,.39-.58.51.51,0,0,1,.59.39l1,5.16a.48.48,0,0,1-.39.58Z" style="fill:#fff"/><path d="M48.75,131.32a.5.5,0,0,1-.5-.48l-.16-4.15a.5.5,0,0,1,.48-.52.52.52,0,0,1,.52.48l.16,4.15a.5.5,0,0,1-.48.52Z" style="fill:#fff"/><path d="M45.93,134a.51.51,0,0,1-.5-.49l-.17-4.82a.5.5,0,0,1,.48-.52.52.52,0,0,1,.52.49l.17,4.82a.52.52,0,0,1-.49.52Z" style="fill:#fff"/><path d="M52.36,127.56a.5.5,0,0,1-.5-.5v-3.55a.5.5,0,0,1,.5-.5.5.5,0,0,1,.5.5v3.55A.51.51,0,0,1,52.36,127.56Z" style="fill:#fff"/><path d="M59,101.1a.49.49,0,0,1-.41-.21L54.81,95.8a.5.5,0,0,1,.8-.6l3.77,5.1a.5.5,0,0,1-.11.7A.53.53,0,0,1,59,101.1Z" style="fill:#fff"/><path d="M60.09,93.56a.51.51,0,0,1-.36-.15l-3.55-3.54a.51.51,0,0,1,0-.71.5.5,0,0,1,.71,0l3.55,3.55a.5.5,0,0,1-.35.85Z" style="fill:#fff"/><path d="M66.07,102.21a.52.52,0,0,1-.41-.22L63,98.22a.5.5,0,0,1,.82-.57l2.66,3.77a.49.49,0,0,1-.12.69A.46.46,0,0,1,66.07,102.21Z" style="fill:#fff"/><path d="M67.18,94.45a.49.49,0,0,1-.4-.21L63.67,90a.51.51,0,0,1,.11-.7.5.5,0,0,1,.7.11l3.1,4.21a.5.5,0,0,1-.1.7A.49.49,0,0,1,67.18,94.45Z" style="fill:#fff"/><path d="M66.74,86a.49.49,0,0,1-.38-.17l-3.77-4.44a.49.49,0,0,1,0-.7.5.5,0,0,1,.71.05l3.77,4.44a.5.5,0,0,1-.38.82Z" style="fill:#fff"/><path d="M74.05,93.78a.48.48,0,0,1-.38-.18l-3.11-3.77a.5.5,0,0,1,.07-.7.49.49,0,0,1,.7.07L74.44,93a.52.52,0,0,1-.07.71A.54.54,0,0,1,74.05,93.78Z" style="fill:#fff"/><path d="M59.86,85.8a.52.52,0,0,1-.39-.19l-3.1-4a.5.5,0,0,1,.78-.62l3.11,4a.49.49,0,0,1-.09.7A.45.45,0,0,1,59.86,85.8Z" style="fill:#fff"/><path d="M115.07,175.59a.52.52,0,0,1-.46-.29l-2.43-5.1a.49.49,0,0,1,.23-.66.5.5,0,0,1,.67.23l2.44,5.1a.5.5,0,0,1-.24.67A.54.54,0,0,1,115.07,175.59Z" style="fill:#fff"/><path d="M117.73,169.6a.51.51,0,0,1-.46-.28l-2.21-4.66a.5.5,0,1,1,.9-.43l2.22,4.66a.5.5,0,0,1-.24.66A.41.41,0,0,1,117.73,169.6Z" style="fill:#fff"/><path d="M125.26,176.25a.5.5,0,0,1-.45-.28l-2.44-5.1a.51.51,0,0,1,.24-.67.5.5,0,0,1,.67.24l2.44,5.1a.5.5,0,0,1-.24.66A.42.42,0,0,1,125.26,176.25Z" style="fill:#fff"/><path d="M121.49,179.8a.51.51,0,0,1-.46-.3l-2-4.66a.5.5,0,1,1,.92-.39l2,4.65a.49.49,0,0,1-.26.66A.45.45,0,0,1,121.49,179.8Z" style="fill:#fff"/></g></g></svg>