<svg xmlns="http://www.w3.org/2000/svg" viewBox="0 0 196.72 155.47"><title>Recurso 4</title><g id="Capa_2" data-name="Capa 2"><g id="Capa_1-2" data-name="Capa 1"><path d="M25.64,31.06s-7.85,15.62-8.7,26.46C15.7,73.42,4.15,84.85,4.15,84.85s.49,12.3,8.69,12.54,22.24-1,31.18,3.73,15.91,14.41,17.4,19.13,2,27.83,2,27.83l7,.75S69.62,124,72.6,122.74s5-1.49,6.21,3,2,23.35,2,23.35h7.45L88,126.46s23.85,3.48,38.51.75a130.45,130.45,0,0,0,28.57-9.44l3.48,28.57,7.21.75s-1.24-26.34,3.48-28.82,6.95,4.72,7.2,9.44,1,22.36,1,22.36l7.45-.25s4.47-47.95,5-63.36S187.14,49,185.4,44.72s-8-15.65-15.16-18.38-45.72-12.43-69.07-12.67-30.06-1.25-30.06-1.25L67.63,0S57.69,7,55,9.69l-2.74,2.73L42,14.66A118.18,118.18,0,0,0,31.6,7c-5.71-3.73-8-4.48-8-4.48s-1.49,12.43-1,18.14A30.62,30.62,0,0,0,25.64,31.06Z" style="fill:#5b422f"/><path d="M43.87,50l-.38,0a4.5,4.5,0,0,1-4.18-3.64.5.5,0,1,1,1-.17h0a3.51,3.51,0,0,0,3.28,2.81c2.84.2,4.16-2.8,4.22-2.93a.51.51,0,0,1,.66-.26.51.51,0,0,1,.26.66C48.64,46.56,47.15,50,43.87,50Z"/><path d="M27.77,48.22l-.43,0a5.53,5.53,0,0,1-4.66-3.83.5.5,0,0,1,.95-.29,4.56,4.56,0,0,0,3.79,3.13,4.63,4.63,0,0,0,4.23-2.46.5.5,0,0,1,.9.44A5.65,5.65,0,0,1,27.77,48.22Z"/><path d="M33.09,98.39a.5.5,0,0,1,0-1s5.21-.44,10-5.67a.5.5,0,1,1,.74.67c-5,5.55-10.42,6-10.64,6Z"/><path d="M7.25,83.23S2.41,84.48.92,87.83s-1.49,8,2.48,9.81,9,1.49,10.69-1.36,3.1-6.21.12-9.57A10.61,10.61,0,0,0,7.25,83.23Z" style="fill:#f4d9df"/><path d="M9.49,93.3a.5.5,0,0,1-.5-.5V89a.5.5,0,0,1,1,0V92.8A.5.5,0,0,1,9.49,93.3Z"/><path d="M4.27,93.42a.5.5,0,0,1-.5-.5V88.57a.5.5,0,0,1,1,0v4.35A.5.5,0,0,1,4.27,93.42Z"/><path d="M44.82,88.6a1.91,1.91,0,0,0-2.72-1.43,11.31,11.31,0,0,1-5.16,1.16,26,26,0,0,1-8.2-2s4.6,6.09,9.57,6.58C42.37,93.33,45.35,91.91,44.82,88.6Z" style="fill:#fff"/><path d="M35.33,17.89s-3.11,4.1-4.72,6.33a28.09,28.09,0,0,1-2.24,2.86s-.37-9.81-.12-11.55S35.33,17.89,35.33,17.89Z"/><path d="M57.57,17.27l7.57,6.08s2.36-7.7,1.87-9.81l-.5-2.11Z"/><path d="M176.76,31.43S187,42.8,191.3,49.5a33.85,33.85,0,0,1,5.4,19c-.19,5.22-2,10.81-2,14.72s2,10.81.37,8.57a28.35,28.35,0,0,1-4.47-15.09c0-6.71,1.68-16.21-.37-21.8s-7.64-13.42-7.64-13.42Z" style="fill:#5b422f"/><path d="M79.12,19.07a.49.49,0,0,1-.5-.46.51.51,0,0,1,.46-.54l8.76-.74a.53.53,0,0,1,.54.45.5.5,0,0,1-.46.54l-8.76.75Z" style="fill:#fff"/><path d="M81.73,23.92a.51.51,0,0,1-.5-.49.5.5,0,0,1,.48-.51l6.52-.19a.5.5,0,1,1,0,1l-6.52.19Z" style="fill:#fff"/><path d="M88.06,20.56a.5.5,0,0,1-.5-.47.52.52,0,0,1,.47-.53l6.15-.37a.48.48,0,0,1,.53.47.5.5,0,0,1-.47.53l-6.15.37Z" style="fill:#fff"/><path d="M87.13,28.76a.5.5,0,0,1-.5-.46.51.51,0,0,1,.46-.54l6.71-.55a.51.51,0,0,1,.54.45.5.5,0,0,1-.46.54l-6.71.56Z" style="fill:#fff"/><path d="M93.65,24.1a.5.5,0,0,1-.5-.48.51.51,0,0,1,.49-.52l6.52-.18a.52.52,0,0,1,.52.48.51.51,0,0,1-.49.52l-6.52.18Z" style="fill:#fff"/><path d="M104.65,16.09h-8a.5.5,0,0,1,0-1h8a.5.5,0,0,1,0,1Z" style="fill:#fff"/><path d="M101.48,19.63a.5.5,0,0,1,0-1l7.45-.19h0a.5.5,0,0,1,.5.49.49.49,0,0,1-.48.51l-7.46.19Z" style="fill:#fff"/><path d="M103.34,30.07a.51.51,0,0,1-.5-.48.5.5,0,0,1,.48-.52l7.64-.38a.47.47,0,0,1,.52.48.49.49,0,0,1-.47.52l-7.64.38Z" style="fill:#fff"/><path d="M100.73,37a.45.45,0,0,1-.2,0l-6.9-3.17a.5.5,0,0,1-.24-.67.49.49,0,0,1,.66-.24L100.94,36a.5.5,0,0,1-.21,1Z" style="fill:#fff"/><path d="M111.92,36.4h-.11l-6.9-1.49a.49.49,0,0,1-.38-.59.52.52,0,0,1,.6-.39L112,35.41a.5.5,0,0,1,.38.6A.49.49,0,0,1,111.92,36.4Z" style="fill:#fff"/><path d="M108.75,24.48a.5.5,0,0,1,0-1l8.57-.38a.5.5,0,0,1,.52.48.5.5,0,0,1-.48.52l-8.57.38Z" style="fill:#fff"/><path d="M125.89,36l-.14,0-7.82-2.24a.5.5,0,1,1,.27-1L126,35.05a.5.5,0,0,1-.14,1Z" style="fill:#fff"/><path d="M131.48,29h0l-7.83-.19a.5.5,0,0,1-.49-.51.51.51,0,0,1,.52-.49l7.82.19a.5.5,0,0,1,.49.51A.51.51,0,0,1,131.48,29Z" style="fill:#fff"/><path d="M88.06,38.26a.5.5,0,0,1-.31-.1l-5.59-4.48a.49.49,0,0,1-.08-.7.52.52,0,0,1,.71-.08l5.59,4.47a.51.51,0,0,1,.07.71A.48.48,0,0,1,88.06,38.26Z" style="fill:#fff"/><path d="M101.85,42.74a.46.46,0,0,1-.23-.06l-6.34-3.36a.5.5,0,0,1,.47-.88l6.34,3.36a.49.49,0,0,1,.2.67A.49.49,0,0,1,101.85,42.74Z" style="fill:#fff"/><path d="M126.45,42.18a.45.45,0,0,1-.16,0l-8.2-2.79a.51.51,0,0,1-.31-.64.5.5,0,0,1,.63-.31l8.2,2.8a.5.5,0,0,1-.16,1Z" style="fill:#fff"/><path d="M127.94,19.26h0l-8.39-.75a.49.49,0,0,1-.45-.54.52.52,0,0,1,.54-.46l8.38.75a.5.5,0,0,1,0,1Z" style="fill:#fff"/><path d="M124.59,23.73a.49.49,0,0,1-.5-.49.5.5,0,0,1,.49-.51l8.75-.19h0a.49.49,0,0,1,.5.49.49.49,0,0,1-.48.51l-8.76.19Z" style="fill:#fff"/><path d="M138,36h-.08l-5.22-.93a.5.5,0,1,1,.17-1l5.22.93a.5.5,0,0,1-.09,1Z" style="fill:#fff"/><path d="M146.39,31.93a.41.41,0,0,1-.21-.05l-6.9-3.16a.5.5,0,0,1-.24-.67.49.49,0,0,1,.66-.24L146.6,31a.5.5,0,0,1-.21.95Z" style="fill:#fff"/><path d="M148.25,23.73h-.1l-9.31-1.86a.51.51,0,0,1-.4-.59.5.5,0,0,1,.59-.39l9.32,1.86a.5.5,0,0,1-.1,1Z" style="fill:#fff"/><path d="M152.35,29.88a.43.43,0,0,1-.19,0l-8.39-3.54a.5.5,0,0,1-.26-.66.49.49,0,0,1,.65-.26l8.39,3.54a.5.5,0,0,1,.26.65A.48.48,0,0,1,152.35,29.88Z" style="fill:#fff"/><path d="M149.93,39.94a.52.52,0,0,1-.21,0l-7.64-3.54a.52.52,0,0,1-.25-.67.5.5,0,0,1,.67-.24L150.14,39a.49.49,0,0,1,.24.66A.48.48,0,0,1,149.93,39.94Z" style="fill:#fff"/><path d="M141.17,42.18h-.11l-6.34-1.5a.5.5,0,0,1,.23-1l6.33,1.49a.5.5,0,0,1-.11,1Z" style="fill:#fff"/><path d="M160.74,38.64a.54.54,0,0,1-.22,0l-8.39-4.1a.5.5,0,1,1,.44-.9l8.39,4.1a.5.5,0,0,1-.22,1Z" style="fill:#fff"/><path d="M164.28,27.09h-.06L155.09,26a.5.5,0,0,1-.44-.55.5.5,0,0,1,.56-.44l9.13,1.12a.5.5,0,0,1-.06,1Z" style="fill:#fff"/><path d="M166.7,32.68h0l-7.45-.55a.51.51,0,0,1-.46-.54.49.49,0,0,1,.53-.46l7.46.56a.5.5,0,0,1,.46.53A.51.51,0,0,1,166.7,32.68Z" style="fill:#fff"/><path d="M173.22,41.06A.48.48,0,0,1,173,41l-6.15-3.73a.5.5,0,0,1-.16-.69.49.49,0,0,1,.68-.16l6.15,3.72a.5.5,0,0,1-.26.93Z" style="fill:#fff"/><path d="M174.9,34.72a.52.52,0,0,1-.33-.12l-5.78-5a.49.49,0,0,1,0-.7.48.48,0,0,1,.7-.05l5.78,5a.49.49,0,0,1,.05.7A.48.48,0,0,1,174.9,34.72Z" style="fill:#fff"/><path d="M63.4,148.08a7,7,0,0,0,.44,4.1c.93,1.86,3.35-.37,3.35-.37s.56,2.79,2,2.05,1.12-5,1.12-5Z"/><path d="M80.8,149.07a12.86,12.86,0,0,0,.37,4.23c.56,1.3,3.54,0,3.54,0s2.24,1.12,3,.93.56-5.16.56-5.16Z"/><path d="M158.56,146.34s-1,3.79.31,5.09,3.54-.55,3.54-.55.56,1.86,1.87,1.49,1.49-5.28,1.49-5.28Z"/><path d="M177.45,150.07s-1.06,3.6.43,4.16,3.54-1.12,3.54-1.12,1.68,3,2.8,2.24.68-5.53.68-5.53Z"/></g></g></svg>