<?xml version="1.0" encoding="utf-8"?>
<!-- Generator: Adobe Illustrator 23.0.5, SVG Export Plug-In . SVG Version: 6.00 Build 0)  -->
<svg version="1.1" id="Capa_1" xmlns="http://www.w3.org/2000/svg" xmlns:xlink="http://www.w3.org/1999/xlink" x="0px" y="0px"
	 viewBox="0 0 494.5 445.1" style="enable-background:new 0 0 494.5 445.1;" xml:space="preserve">
<style type="text/css">
	.st0{fill:none;stroke:#000000;stroke-width:14;stroke-linecap:round;stroke-linejoin:round;}
</style>
<circle class="st0" cx="74.8" cy="82.4" r="44.5"/>
<circle class="st0" cx="427.5" cy="81.3" r="44.5"/>
<path class="st0" d="M80.8,295.7h-12c-21.3,0-38.5-17.2-38.5-38.5v-81.7c0-10.9,8.8-19.7,19.7-19.7h49.6c10.9,0,19.7,8.8,19.7,19.7
	v81.7C119.3,278.5,102.1,295.7,80.8,295.7z"/>
<polyline class="st0" points="43,287.6 43,421.7 9.5,433.3 "/>
<polyline class="st0" points="105.4,288.8 105.4,420.5 136.7,434.4 "/>
<line class="st0" x1="34.9" y1="251.2" x2="114.7" y2="251.2"/>
<path class="st0" d="M467.7,244.8h-85.3v-65.7c0-11.6,9.4-21,21-21H449c11.6,0,21,9.4,18.7,21V244.8z"/>
<path class="st0" d="M388.9,245.8h74.9c12.2,0,22.1,9.9,22.1,22.1v25.5H366.8v-25.5C366.8,255.7,376.7,245.8,388.9,245.8z"/>
<polyline class="st0" points="394.6,296.9 394.6,419.4 365.7,433.3 "/>
<polyline class="st0" points="454.7,296.9 454.7,419.4 483.6,432.1 "/>
<path class="st0" d="M189.2,99.2h-18.4c-6.7,0-12.2-5.4-12.2-12.2v-3.8c0-6.7,5.4-12.2,12.2-12.2h18.4c6.7,0,12.2,5.4,12.2,12.2V87
	C201.4,93.7,195.9,99.2,189.2,99.2z"/>
<line class="st0" x1="180.9" y1="174.1" x2="180.9" y2="102.7"/>
<line class="st0" x1="123.6" y1="175.5" x2="180.9" y2="175.5"/>
<path class="st0" d="M196.6,175.6h-15.1V147h15.1c6.8,0,12.3,5.5,12.3,12.3v4.1C208.8,170.1,203.3,175.6,196.6,175.6z"/>
<path class="st0" d="M316.7,98.5h18.4c6.7,0,12.2-5.4,12.2-12.2v-3.8c0-6.7-5.4-12.2-12.2-12.2h-18.4c-6.7,0-12.2,5.4-12.2,12.2v3.8
	C304.6,93.1,310,98.5,316.7,98.5z"/>
<line class="st0" x1="325" y1="173.5" x2="325" y2="102"/>
<line class="st0" x1="382.3" y1="174.9" x2="325" y2="174.9"/>
<path class="st0" d="M309.4,175h15.1v-28.6h-15.1c-6.8,0-12.3,5.5-12.3,12.3v4.1C297.1,169.5,302.6,175,309.4,175z"/>
<path class="st0" d="M328.2,433.9H172.5c-14.7,0-26.6-11.9-26.6-26.6V399c0-14.7,11.9-26.6,26.6-26.6h155.7
	c14.7,0,26.6,11.9,26.6,26.6v8.3C354.9,422,342.9,433.9,328.2,433.9z"/>
<path class="st0" d="M181,433.7h-8.3c-14.6,0-26.5-11.9-26.5-26.5v-8.3c0-14.6,11.9-26.5,26.5-26.5h8.3c14.6,0,26.5,11.9,26.5,26.5
	v8.3C207.5,421.8,195.7,433.7,181,433.7z"/>
<line class="st0" x1="207.5" y1="403" x2="294.3" y2="403"/>
<line class="st0" x1="324.6" y1="402.7" x2="354.9" y2="402.7"/>
<path class="st0" d="M280,315.4c0,16-13,29-29,29s-29-13-29-29s28.6-41,28.6-41S280,299.4,280,315.4z"/>
<path class="st0" d="M319.1,305.4c0,36.9-30.3,66.7-67.7,66.7s-67.7-29.9-67.7-66.7c0-20.3,28-81.4,28-81.4l15.6,10.4l23.8-23.8
	l21,23l17.6-11.1C289.6,222.6,319.1,282.1,319.1,305.4z"/>
</svg>
