<?xml version="1.0" encoding="iso-8859-1"?>
<!-- Generator: Adobe Illustrator 19.0.0, SVG Export Plug-In . SVG Version: 6.00 Build 0)  -->
<svg version="1.1" id="Capa_1" xmlns="http://www.w3.org/2000/svg" xmlns:xlink="http://www.w3.org/1999/xlink" x="0px" y="0px"
	 viewBox="0 0 512 512" style="enable-background:new 0 0 512 512;" xml:space="preserve">
<g>
	<g>
		<path d="M407.5,303c-18.113,0-35.163,4.635-50.031,12.777l-18.219-28.35v-58.812h23.25c12.407,0,22.5,10.094,22.5,22.5
			c0,4.143,3.358,7.5,7.5,7.5c4.142,0,7.5-3.357,7.5-7.5c0-20.678-16.822-37.5-37.5-37.5h-29.263l-77.617-32.15l2.529-6.106
			c5.803-14.009-0.874-30.128-14.883-35.931l-46.193-19.134c-3.362-1.393-6.9-2.1-10.517-2.1c-11.166,0-21.141,6.666-25.415,16.981
			l-38.268,92.389c-5.366,12.956-5.366,27.226,0,40.182c5.366,12.956,15.457,23.046,28.413,28.412l72.345,29.967L224,377.554
			c0.03,4.124,3.382,7.446,7.499,7.446h0.055c4.142-0.03,7.476-3.412,7.446-7.554l-0.405-56.4c-0.022-3.014-1.845-5.722-4.63-6.875
			l-42.962-17.796c12.834-5.158,23.354-15.292,28.878-28.628l29.999-72.424l74.37,30.805v56.002h-90.712c-4.142,0-7.5,3.357-7.5,7.5
			s3.358,7.5,7.5,7.5h84.477L251.905,400h-43.177c-2.381-33.41-20.538-62.523-47.044-79.921c-0.216-0.176-0.442-0.344-0.682-0.498
			c-0.231-0.148-0.467-0.28-0.706-0.4C144.141,308.939,125.002,303,104.5,303C46.878,303,0,349.879,0,407.5
			C0,465.121,46.878,512,104.5,512c55.099,0,100.37-42.866,104.228-97H256c2.552,0,4.93-1.298,6.31-3.445l69.44-108.052
			l13.112,20.403C319.461,342.987,303,373.357,303,407.5c0,57.621,46.878,104.5,104.5,104.5S512,465.121,512,407.5
			C512,349.879,465.122,303,407.5,303z M171.359,285.168c-4.919,0-9.742-0.965-14.333-2.866
			c-9.254-3.834-16.461-11.041-20.294-20.295c-2.858-6.899-3.582-14.321-2.179-21.486l67.887,28.12
			C195.561,278.86,184.031,285.168,171.359,285.168z M244.291,169.619l-2.529,6.106l-18.704-7.748
			c-3.828-1.589-8.214,0.232-9.799,4.059c-1.585,3.827,0.232,8.214,4.059,9.799l18.704,7.748l-27.13,65.495l-69.291-28.701
			L175,140.917c1.943-4.69,6.479-7.722,11.556-7.722c1.636,0,3.243,0.322,4.776,0.957l46.193,19.134
			C243.893,155.925,246.928,163.251,244.291,169.619z M104.5,497C55.149,497,15,456.851,15,407.5S55.149,318,104.5,318
			c15.129,0,29.39,3.778,41.898,10.433L98.19,403.445c-1.483,2.308-1.588,5.241-0.273,7.649c1.314,2.407,3.839,3.905,6.583,3.905
			h59.011c-3.701,29.278-28.744,52-59.011,52C71.691,467,45,440.309,45,407.5c0-32.809,26.691-59.5,59.5-59.5
			c2.081,0,4.219,0.115,6.357,0.343c4.123,0.441,7.813-2.545,8.251-6.665c0.438-4.118-2.546-7.812-6.665-8.251
			c-2.663-0.283-5.335-0.427-7.944-0.427C63.42,333,30,366.421,30,407.5c0,41.079,33.42,74.5,74.5,74.5
			c38.548,0,70.35-29.43,74.123-67h15.06C189.86,460.854,151.325,497,104.5,497z M163.531,400h-45.295l24.479-38.091
			C154.249,371.557,161.657,385.113,163.531,400z M178.621,400c-2.002-20.017-11.965-38.252-27.747-50.787l8.13-12.651
			c19.404,14.944,32.529,37.655,34.679,63.438H178.621z M413.81,403.445l-31.907-49.648c7.758-3.713,16.438-5.797,25.597-5.797
			c32.809,0,59.5,26.691,59.5,59.5c0,32.809-26.691,59.5-59.5,59.5c-32.809,0-59.5-26.691-59.5-59.5
			c0-18.276,8.289-34.647,21.298-45.571l31.892,49.625c1.433,2.23,3.849,3.446,6.317,3.446c1.388,0,2.793-0.386,4.047-1.191
			C415.04,411.57,416.049,406.93,413.81,403.445z M407.5,497c-49.351,0-89.5-40.149-89.5-89.5c0-28.855,13.73-54.56,34.996-70.938
			l8.149,12.68C344.011,362.904,333,383.934,333,407.5c0,41.079,33.42,74.5,74.5,74.5s74.5-33.421,74.5-74.5
			c0-41.079-33.42-74.5-74.5-74.5c-12.144,0-23.607,2.939-33.747,8.115l-8.15-12.682C378.11,321.778,392.371,318,407.5,318
			c49.351,0,89.5,40.149,89.5,89.5S456.851,497,407.5,497z"/>
	</g>
</g>
<g>
	<g>
		<path d="M331,45h-23.044C304.304,19.593,282.402,0,256,0c-28.949,0-52.5,23.552-52.5,52.5v15c0,28.948,23.551,52.5,52.5,52.5
			c28.949,0,52.5-23.552,52.5-52.5V60H331c4.142,0,7.5-3.357,7.5-7.5S335.142,45,331,45z M256,15c18.11,0,33.261,12.904,36.745,30
			h-73.491C222.739,27.904,237.89,15,256,15z M293.5,67.5c0,20.678-16.822,37.5-37.5,37.5c-20.678,0-37.5-16.822-37.5-37.5V60h75
			V67.5z"/>
	</g>
</g>
<g>
</g>
<g>
</g>
<g>
</g>
<g>
</g>
<g>
</g>
<g>
</g>
<g>
</g>
<g>
</g>
<g>
</g>
<g>
</g>
<g>
</g>
<g>
</g>
<g>
</g>
<g>
</g>
<g>
</g>
</svg>
