<?xml version="1.0" encoding="utf-8"?>
<!-- Generator: Adobe Illustrator 23.0.5, SVG Export Plug-In . SVG Version: 6.00 Build 0)  -->
<svg version="1.1" id="Capa_1" xmlns="http://www.w3.org/2000/svg" xmlns:xlink="http://www.w3.org/1999/xlink" x="0px" y="0px"
	 viewBox="0 0 278.4 454.8" style="enable-background:new 0 0 278.4 454.8;" xml:space="preserve">
<style type="text/css">
	.st0{fill:none;stroke:#000000;stroke-width:14;stroke-linecap:round;stroke-linejoin:round;}
</style>
<g id="hiker">
	<line class="st0" x1="186.7" y1="243.5" x2="111.9" y2="243.5"/>
	<line class="st0" x1="230.1" y1="137.8" x2="230.1" y2="426.2"/>
	<line class="st0" x1="188.1" y1="203.9" x2="228.6" y2="203.9"/>
	<path class="st0" d="M230.4,179.3h13.5c6.7,0,12.1,5.4,12.1,12.1l0,0c0,6.7-5.4,12.1-12.1,12.1h-13.5l0,0L230.4,179.3L230.4,179.3z
		"/>
	<path class="st0" d="M126.8,137.1h44.5c8.6,0,15.5,7,15.5,15.5l0,0v93.5c0,19.4-15.7,35.2-35.2,35.2l0,0h-5.3
		c-19.4,0-35.2-15.7-35.2-35.2l0,0v-93.6C111.2,143.9,118.2,137.1,126.8,137.1z"/>
	<circle class="st0" cx="147.8" cy="71.8" r="38.5"/>
	<polyline class="st0" points="174.4,275.1 174.4,412.5 203.2,424.1 	"/>
	<polyline class="st0" points="122.2,272.7 122.2,348.4 85.9,397.2 85.9,426.8 	"/>
	<path class="st0" d="M110.8,158.2C38.4,155.2,20,97.9,20,67.7"/>
</g>
</svg>
