<svg viewBox="-33 0 512 512.001" xmlns="http://www.w3.org/2000/svg"><path d="m131 259.859375v-67.359375c0-15.164062-12.335938-27.5-27.5-27.5h-50c-15.164062 0-27.5 12.335938-27.5 27.5v67.359375c-5.761719 7.574219-22.664062 33.21875-25.9765625 77.074219-.2148435 2.804687 1.1601565 5.492187 3.5585935 6.960937.75.457031 13.503907 8.09375 37.417969 12.683594v132.515625l-24.871094 8.289062c-3.929687 1.3125-6.054687 5.558594-4.742187 9.488282 1.046875 3.144531 3.972656 5.128906 7.113281 5.128906.785156 0 1.585938-.125 2.371094-.386719l30-10c3.0625-1.019531 5.128906-3.886719 5.128906-7.113281v-135.695312c6.859375.742187 14.351562 1.195312 22.5 1.195312 8.152344 0 15.644531-.453125 22.5-1.195312v135.695312c0 3.226562 2.066406 6.09375 5.128906 7.113281l30 10c.785156.261719 1.585938.386719 2.371094.386719 3.140625 0 6.066406-1.988281 7.117188-5.128906 1.308593-3.929688-.816407-8.179688-4.746094-9.488282l-24.871094-8.289062v-132.515625c23.917969-4.589844 36.667969-12.226563 37.417969-12.683594 2.398437-1.46875 3.773437-4.15625 3.5625-6.960937-3.3125-43.855469-20.21875-69.5-25.980469-77.074219zm-77.5-79.859375h50c6.894531 0 12.5 5.605469 12.5 12.5v62.5h-75v-62.5c0-6.894531 5.609375-12.5 12.5-12.5zm25 165c-33.167969 0-54.648438-8.015625-63.074219-11.878906 3.652344-35.011719 16.777344-56.199219 21.75-63.121094h82.671875c4.988282 6.871094 18.066406 27.859375 21.730469 63.121094-8.421875 3.863281-29.90625 11.878906-63.078125 11.878906zm0 0"/><path d="m440.871094 497.382812-24.871094-8.289062v-155.558594h22.5c4.140625 0 7.5-3.359375 7.5-7.5v-133.535156c0-15.164062-12.335938-27.5-27.5-27.5h-80c-15.164062 0-27.5 12.335938-27.5 27.5v133.535156c0 4.140625 3.359375 7.5 7.5 7.5h22.5v155.558594l-24.871094 8.289062c-3.929687 1.308594-6.054687 5.558594-4.746094 9.488282 1.050782 3.140625 3.976563 5.128906 7.113282 5.128906.789062 0 1.585937-.125 2.375-.386719l30-10c3.0625-1.019531 5.128906-3.886719 5.128906-7.113281v-154.574219c6.96875 3.3125 14.636719 5.074219 22.5 5.074219 7.859375 0 15.527344-1.765625 22.5-5.074219v154.574219c0 3.226562 2.0625 6.09375 5.125 7.113281l30 10c.789062.261719 1.585938.386719 2.375.386719 3.140625 0 6.066406-1.988281 7.113281-5.128906 1.3125-3.929688-.8125-8.179688-4.742187-9.488282zm-9.871094-304.882812v126.035156h-15v-138.535156h2.5c6.890625 0 12.5 5.605469 12.5 12.5zm-75-12.5h45v105h-45zm-30 138.535156v-126.035156c0-6.894531 5.605469-12.5 12.5-12.5h2.5v138.535156zm52.5 11.464844c-8.160156 0-16.035156-2.648438-22.5-7.503906v-22.496094h45v22.496094c-6.46875 4.855468-14.339844 7.503906-22.5 7.503906zm0 0"/><path d="m228.5 205c28.949219 0 52.5-23.550781 52.5-52.5s-23.550781-52.5-52.5-52.5-52.5 23.550781-52.5 52.5 23.550781 52.5 52.5 52.5zm36.652344-60.421875c-20.15625-2-38.582032-11.210937-52.296875-26.144531 4.765625-2.199219 10.0625-3.433594 15.644531-3.433594 17.960938 0 33.003906 12.695312 36.652344 29.578125zm-64.453125-17.21875c16.691406 18.804687 39.574219 30.246094 64.605469 32.300781-3.351563 17.261719-18.574219 30.339844-36.804688 30.339844-20.679688 0-37.5-16.824219-37.5-37.5 0-9.664062 3.675781-18.484375 9.699219-25.140625zm0 0"/><path d="m290.871094 497.382812-24.871094-8.289062v-129.902344c9.269531-9.472656 15-22.421875 15-36.691406v-75c0-15.164062-12.335938-27.5-27.5-27.5h-50c-15.164062 0-27.5 12.335938-27.5 27.5v75c0 14.269531 5.730469 27.21875 15 36.691406v129.902344l-24.871094 8.289062c-3.929687 1.308594-6.054687 5.558594-4.746094 9.488282 1.050782 3.140625 3.976563 5.128906 7.117188 5.128906.785156 0 1.585938-.125 2.371094-.386719l30-10c3.0625-1.019531 5.128906-3.886719 5.128906-7.113281v-124.578125c6.824219 3.25 14.449219 5.078125 22.5 5.078125 8.046875 0 15.675781-1.828125 22.5-5.078125v124.578125c0 3.226562 2.066406 6.09375 5.125 7.113281l30 10c.789062.261719 1.585938.386719 2.375.386719 3.140625 0 6.066406-1.988281 7.113281-5.128906 1.3125-3.929688-.8125-8.179688-4.742187-9.488282zm-87.371094-262.382812h50c6.894531 0 12.5 5.605469 12.5 12.5v67.5h-75v-67.5c0-6.894531 5.605469-12.5 12.5-12.5zm-11.746094 95h73.492188c-3.484375 17.09375-18.636719 30-36.746094 30s-33.261719-12.90625-36.746094-30zm0 0"/><path d="m378.5 150c28.949219 0 52.5-23.550781 52.5-52.5s-23.550781-52.5-52.5-52.5-52.5 23.550781-52.5 52.5 23.550781 52.5 52.5 52.5zm0-90c20.675781 0 37.5 16.820312 37.5 37.5 0 20.675781-16.824219 37.5-37.5 37.5-20.679688 0-37.5-16.824219-37.5-37.5 0-20.679688 16.820312-37.5 37.5-37.5zm0 0"/><path d="m26 97.5c0 28.949219 23.550781 52.5 52.5 52.5s52.5-23.550781 52.5-52.5c0-20.171875-11.441406-37.710938-28.167969-46.5 8.050781-6.882812 13.167969-17.101562 13.167969-28.5 0-12.40625-10.09375-22.5-22.5-22.5h-30c-12.40625 0-22.5 10.09375-22.5 22.5 0 11.398438 5.117188 21.617188 13.167969 28.5-16.726563 8.789062-28.167969 26.328125-28.167969 46.5zm52.5 37.5c-20.675781 0-37.5-16.824219-37.5-37.5 0-9.664062 3.675781-18.484375 9.699219-25.140625 16.691406 18.804687 39.578125 30.246094 64.605469 32.300781-3.351563 17.261719-18.574219 30.339844-36.804688 30.339844zm-22.5-112.5c0-4.136719 3.363281-7.5 7.5-7.5h30c4.136719 0 7.5 3.363281 7.5 7.5 0 12.40625-10.09375 22.5-22.5 22.5s-22.5-10.09375-22.5-22.5zm59.152344 67.078125c-20.15625-2-38.582032-11.210937-52.296875-26.144531 4.765625-2.199219 10.0625-3.433594 15.644531-3.433594 17.960938 0 33.003906 12.695312 36.652344 29.578125zm0 0"/></svg>
