<?xml version="1.0" encoding="utf-8"?>
<!-- Generator: Adobe Illustrator 23.0.5, SVG Export Plug-In . SVG Version: 6.00 Build 0)  -->
<svg version="1.1" id="Capa_1" xmlns="http://www.w3.org/2000/svg" xmlns:xlink="http://www.w3.org/1999/xlink" x="0px" y="0px"
	 viewBox="0 0 512 512" style="enable-background:new 0 0 512 512;" xml:space="preserve">
<g>
	<g>
		<path d="M504.5,400H462l-22.5,0h-222c-4.1,0-7.5,3.4-7.5,7.5s3.4,7.5,7.5,7.5h287c4.1,0,7.5-3.4,7.5-7.5S508.6,400,504.5,400z
			 M446,400c5,1,11,0,16,0C457,400,451,401,446,400z"/>
	</g>
</g>
<g>
	<g>
		<path d="M387.8,321.8l-12.9-12.9c-1-14.2-8.3-27.2-19.9-35.5v-97c0-65.8-25.6-127.7-72.2-174.3c-2.1-2.1-5.4-2.8-8.2-1.6
			c-2.8,1.2-4.6,3.9-4.6,6.9V185h-46c-3.3-11.5-13.9-20-26.5-20h-80c-12.5,0-23,8.3-26.4,19.7C48.6,181.5,15,145.8,15,102.5
			c0-4.1-3.4-7.5-7.5-7.5S0,98.4,0,102.5c0,51.2,39.7,93.4,90,97.2v72.8c0,10.7,6.2,20.1,15.2,24.6c1.1,12.4,6.5,23.7,14.8,32.1V400
			H7.5c-4.1,0-7.5,3.4-7.5,7.5s3.4,7.5,7.5,7.5H120v17H97.5c-4.1,0-7.5,3.4-7.5,7.5v54.6l-9.9,3.3c-3.9,1.3-6.1,5.6-4.7,9.5
			c1,3.1,4,5.1,7.1,5.1c0.8,0,1.6-0.1,2.4-0.4l14.9-5c0,0,30.1-10,30.1-10c3.1-1,5.1-3.9,5.1-7.1V415h45v74.5c0,3.2,2.1,6.1,5.1,7.1
			l30.1,10c0,0,14.9,5,14.9,5c0.8,0.3,1.6,0.4,2.4,0.4c3.1,0,6.1-2,7.1-5.1c1.3-3.9-0.8-8.2-4.7-9.5l-9.9-3.3v-54.6
			c0-4.1-3.4-7.5-7.5-7.5H195V329.2c8.3-8.4,13.7-19.7,14.8-32.1c9-4.5,15.2-13.8,15.2-24.6V200h45v107.5c0,4.1,3.4,7.5,7.5,7.5
			s7.5-3.4,7.5-7.5V230h7.5c12.4,0,22.5-10.1,22.5-22.5S304.9,185,292.5,185H285V26.7c35.6,41.8,55,94.3,55,149.8v97
			c-11.6,8.2-18.9,21.3-19.9,35.5l-12.9,12.9c-2.9,2.9-2.9,7.7,0,10.6c1.5,1.5,3.4,2.2,5.3,2.2s3.8-0.7,5.3-2.2l4.8-4.8
			c2.2,6.4,5.8,12.3,10.5,17.2c-8.3,8.8-13.1,20.4-13.1,32.7c0,4.1,3.4,7.5,7.5,7.5h40c4.1,0,7.5-3.4,7.5-7.5
			c0-12.2-4.8-23.9-13.1-32.7c4.7-4.9,8.2-10.8,10.5-17.2l4.8,4.8c1.5,1.5,3.4,2.2,5.3,2.2s3.8-0.7,5.3-2.2
			C390.7,329.5,390.7,324.8,387.8,321.8z M120,484.1l-15,5V447h15V484.1z M117.5,285c-6.9,0-12.5-5.6-12.5-12.5v-80
			c0-6.9,5.6-12.5,12.5-12.5H150v105H117.5z M180,400h-45v-60.1c6.8,3.3,14.5,5.1,22.5,5.1s15.7-1.8,22.5-5.1V400z M157.5,330
			c-18.1,0-33.3-12.9-36.7-30H150v7.5c0,4.1,3.4,7.5,7.5,7.5s7.5-3.4,7.5-7.5V300h29.2C190.8,317.1,175.6,330,157.5,330z M210,447
			v42.1l-15-5V447H210z M210,272.5c0,6.9-5.6,12.5-12.5,12.5H165V180h32.5c6.9,0,12.5,5.6,12.5,12.5V272.5z M292.5,200
			c4.1,0,7.5,3.4,7.5,7.5s-3.4,7.5-7.5,7.5H285v-15H292.5z M335.9,370c1.7-7.1,5.8-13.5,11.6-18.1c5.9,4.6,9.9,11,11.6,18.1H335.9z
			 M347.5,337.7c-7.9-6.1-12.5-15.6-12.5-25.6c0-10,4.7-19.5,12.5-25.6c7.8,6.1,12.5,15.6,12.5,25.6
			C360,322.1,355.4,331.6,347.5,337.7z"/>
	</g>
</g>
<g>
	<g>
		<path d="M392.5,442h-90c-12.4,0-22.5,10.1-22.5,22.5s10.1,22.5,22.5,22.5c4.1,0,7.5-3.4,7.5-7.5s-3.4-7.5-7.5-7.5
			c-4.1,0-7.5-3.4-7.5-7.5s3.4-7.5,7.5-7.5h90c4.1,0,7.5,3.4,7.5,7.5s-3.4,7.5-7.5,7.5h-60c-4.1,0-7.5,3.4-7.5,7.5s3.4,7.5,7.5,7.5
			h60c12.4,0,22.5-10.1,22.5-22.5S404.9,442,392.5,442z"/>
	</g>
</g>
<g>
	<g>
		<path d="M177,33.8c1.9-3.3,3-7.2,3-11.3C180,10.1,169.9,0,157.5,0S135,10.1,135,22.5c0,4.1,1.1,7.9,3,11.3
			c-19.3,7.8-33,26.7-33,48.7v15c0,28.9,23.6,52.5,52.5,52.5S210,126.4,210,97.5v-15C210,60.4,196.3,41.5,177,33.8z M157.5,15
			c4.1,0,7.5,3.4,7.5,7.5s-3.4,7.5-7.5,7.5s-7.5-3.4-7.5-7.5S153.4,15,157.5,15z M157.5,45c18.1,0,33.3,12.9,36.7,30h-73.5
			C124.2,57.9,139.4,45,157.5,45z M195,97.5c0,20.7-16.8,37.5-37.5,37.5S120,118.2,120,97.5V90h75V97.5z"/>
	</g>
</g>
</svg>
