<?xml version="1.0" encoding="iso-8859-1"?>
<!-- Generator: Adobe Illustrator 19.0.0, SVG Export Plug-In . SVG Version: 6.00 Build 0)  -->
<svg version="1.1" id="Capa_1" xmlns="http://www.w3.org/2000/svg" xmlns:xlink="http://www.w3.org/1999/xlink" x="0px" y="0px"
	 viewBox="0 0 512.002 512.002" style="enable-background:new 0 0 512.002 512.002;" xml:space="preserve">
<g>
	<g>
		<path d="M436.001,285h-75c-4.143,0-7.5,3.357-7.5,7.5v20c0,12.406,10.094,22.5,22.5,22.5h7.5v26.146l-75,12.5V327.5
			c0-4.143-3.357-7.5-7.5-7.5s-7.5,3.357-7.5,7.5v177c0,4.143,3.357,7.5,7.5,7.5s7.5-3.357,7.5-7.5v-33.263
			c14.67-2.991,26.256-14.567,29.247-29.237h15.753v62.5c0,4.143,3.357,7.5,7.5,7.5s7.5-3.357,7.5-7.5V442h45v62.5
			c0,4.143,3.357,7.5,7.5,7.5s7.5-3.357,7.5-7.5V442h15v62.5c0,4.143,3.357,7.5,7.5,7.5s7.5-3.357,7.5-7.5v-197
			C458.501,295.094,448.407,285,436.001,285z M376.001,320c-4.136,0-7.5-3.364-7.5-7.5V300h46.29c-0.833,2.347-1.29,4.871-1.29,7.5
			V320H376.001z M443.501,427h-112.5c-4.143,0-7.5,3.357-7.5,7.5c0,9.777-6.271,18.114-15,21.21v-66.857l83.733-13.956
			c3.616-0.603,6.267-3.731,6.267-7.397V335h15v17.5c0,12.406,10.094,22.5,22.5,22.5c2.629,0,5.153-0.458,7.5-1.29V427z
			 M443.501,352.5c0,4.136-3.364,7.5-7.5,7.5s-7.5-3.364-7.5-7.5v-45c0-4.136,3.364-7.5,7.5-7.5s7.5,3.364,7.5,7.5V352.5z"/>
	</g>
</g>
<g>
	<g>
		<path d="M258.747,314.289c2.348,0.462,4.772,0.71,7.254,0.71h5c4.143,0,7.5-3.357,7.5-7.5V199.714
			c50.271-3.842,90-45.976,90-97.214c0-4.143-3.357-7.5-7.5-7.5s-7.5,3.357-7.5,7.5c0,43.343-33.605,78.961-76.125,82.229
			c-3.362-11.39-13.91-19.729-26.375-19.729h-80c-15.163,0-27.5,12.337-27.5,27.5V215h-15V7.5c0-4.143-3.357-7.5-7.5-7.5
			s-7.5,3.357-7.5,7.5V135h-22.5c-4.143,0-7.5,3.357-7.5,7.5V185h-7.5c-12.406,0-22.5,10.094-22.5,22.5s10.094,22.5,22.5,22.5
			c-4.699,6.272-7.5,14.064-7.5,22.5v45c0,4.143,3.357,7.5,7.5,7.5h30c4.143,0,7.5-3.357,7.5-7.5V230h7.481
			c0.039,0,22.519,0,22.519,0v77.5c0,4.143,3.357,7.5,7.5,7.5h5c2.482,0,4.906-0.248,7.254-0.71
			c2.554,5.571,6.042,10.586,10.246,14.868v159.937l-24.872,8.29c-3.93,1.31-6.053,5.558-4.743,9.487
			c1.048,3.143,3.974,5.13,7.114,5.13c0.786,0,1.586-0.125,2.373-0.387l30-10c3.062-1.021,5.128-3.887,5.128-7.115V339.878
			c6.894,3.295,14.552,5.122,22.5,5.122s15.606-1.827,22.5-5.122V494.5c0,3.229,2.065,6.095,5.128,7.115l30,10
			c0.787,0.262,1.587,0.387,2.373,0.387c3.141,0,6.066-1.987,7.114-5.13c1.31-3.93-0.813-8.178-4.743-9.487l-24.872-8.29V329.157
			C252.705,324.875,256.193,319.86,258.747,314.289z M68.501,207.5c0-4.136,3.364-7.5,7.5-7.5h7.5v15h-7.5
			C71.865,215,68.501,211.636,68.501,207.5z M98.501,290h-15v-37.5c0-9.778,6.27-18.119,15-21.215V290z M113.501,215h-15v-15h15V215
			z M113.501,185h-15v-35h15V185z M243.501,180h7.5c6.893,0,12.5,5.607,12.5,12.5v7.5h-20V180z M243.501,215h20v30h-20V215z
			 M193.502,277.5V180h34.999v97.5c0,2.568,0.261,5.076,0.755,7.5h-36.509C193.241,282.576,193.502,280.068,193.502,277.5z
			 M158.501,192.5c0-6.893,5.607-12.5,12.5-12.5h7.5v20h-20V192.5z M158.501,215h20v30h-20V215z M158.501,299.862V260h20v17.5
			C178.501,289.062,169.735,298.614,158.501,299.862z M211.001,330c-14.585,0-27.799-8.606-33.911-21.511
			c3.407-2.326,6.413-5.197,8.89-8.489h50.041c2.477,3.292,5.483,6.163,8.89,8.489C238.8,321.394,225.586,330,211.001,330z
			 M243.501,277.5V260h20v39.862C252.267,298.614,243.501,289.062,243.501,277.5z"/>
	</g>
</g>
<g>
	<g>
		<path d="M286.001,75h-23.044c-3.652-25.407-25.554-45-51.956-45c-28.948,0-52.5,23.552-52.5,52.5v15
			c0,28.948,23.552,52.5,52.5,52.5c28.948,0,52.5-23.552,52.5-52.5V90h22.5c4.143,0,7.5-3.357,7.5-7.5S290.144,75,286.001,75z
			 M211.001,45c18.11,0,33.261,12.904,36.745,30h-73.491C177.74,57.904,192.891,45,211.001,45z M248.501,97.5
			c0,20.678-16.822,37.5-37.5,37.5c-20.678,0-37.5-16.822-37.5-37.5V90h75V97.5z"/>
	</g>
</g>
<g>
</g>
<g>
</g>
<g>
</g>
<g>
</g>
<g>
</g>
<g>
</g>
<g>
</g>
<g>
</g>
<g>
</g>
<g>
</g>
<g>
</g>
<g>
</g>
<g>
</g>
<g>
</g>
<g>
</g>
</svg>
