<?xml version="1.0" encoding="utf-8"?>
<!-- Generator: Adobe Illustrator 23.0.5, SVG Export Plug-In . SVG Version: 6.00 Build 0)  -->
<svg version="1.1" id="Capa_1" xmlns="http://www.w3.org/2000/svg" xmlns:xlink="http://www.w3.org/1999/xlink" x="0px" y="0px"
	 viewBox="0 0 512 512" style="enable-background:new 0 0 512 512;" xml:space="preserve">
<g>
	<circle cx="368.5" cy="57.5" r="7.5"/>
	<path d="M383.5,20h-30C341.1,20,331,30.1,331,42.5v75c0,12.4,10.1,22.5,22.5,22.5h30c12.4,0,22.5-10.1,22.5-22.5v-75
		C406,30.1,395.9,20,383.5,20z M391,117.5c0,4.1-3.4,7.5-7.5,7.5h-30c-4.1,0-7.5-3.4-7.5-7.5v-75c0-4.1,3.4-7.5,7.5-7.5h30
		c4.1,0,7.5,3.4,7.5,7.5V117.5z"/>
	<path d="M368.5,155h-15c-4.1,0-7.5,3.4-7.5,7.5s3.4,7.5,7.5,7.5h15c4.1,0,7.5,3.4,7.5,7.5s-3.4,7.5-7.5,7.5H300
		c-3.3-11.5-13.9-20-26.5-20h-50c-12.5,0-23,8.3-26.4,19.7c-42.5-3.3-76.1-38.9-76.1-82.2c0-4.1-3.4-7.5-7.5-7.5s-7.5,3.4-7.5,7.5
		c0,51.2,39.7,93.4,90,97.2v92.8c0,14.3,5.7,27.2,15,36.7v159.9l-24.9,8.3c-3.9,1.3-6.1,5.6-4.7,9.5c1,3.1,4,5.1,7.1,5.1
		c0.8,0,1.6-0.1,2.4-0.4l30-10c3.1-1,5.1-3.9,5.1-7.1V339.9c6.8,3.3,14.5,5.1,22.5,5.1c8,0,15.7-1.8,22.5-5.1v154.6
		c0,3.2,2.1,6.1,5.1,7.1l30,10c0.8,0.3,1.6,0.4,2.4,0.4c3.1,0,6.1-2,7.1-5.1c1.3-3.9-0.8-8.2-4.7-9.5l-24.9-8.3V329.2
		c9.3-9.5,15-22.4,15-36.7V200h67.5c12.4,0,22.5-10.1,22.5-22.5S380.9,155,368.5,155L368.5,155z M223.5,180h50
		c6.9,0,12.5,5.6,12.5,12.5V285h-75v-92.5C211,185.6,216.6,180,223.5,180L223.5,180z M211.8,300h73.5c-3.5,17.1-18.6,30-36.7,30
		S215.2,317.1,211.8,300z"/>
</g>
<g>
	<g>
		<path d="M314.7,85.3h-20.9c-3.3-23.1-23.2-40.8-47.1-40.8c-26.3,0-47.6,21.4-47.6,47.6v13.6c0,26.3,21.4,47.6,47.6,47.6
			s47.6-21.4,47.6-47.6v-6.8h20.4c3.8,0,6.8-3,6.8-6.8S318.5,85.3,314.7,85.3z M246.6,58.1c16.4,0,30.2,11.7,33.3,27.2h-66.7
			C216.5,69.8,230.2,58.1,246.6,58.1z M280.7,105.8c0,18.8-15.3,34-34,34s-34-15.3-34-34v-6.8h68.1V105.8z"/>
	</g>
</g>
</svg>
