<?xml version="1.0" encoding="utf-8"?>
<!-- Generator: Adobe Illustrator 23.0.5, SVG Export Plug-In . SVG Version: 6.00 Build 0)  -->
<svg version="1.1" id="Capa_1" xmlns="http://www.w3.org/2000/svg" xmlns:xlink="http://www.w3.org/1999/xlink" x="0px" y="0px"
	 viewBox="0 0 494.5 445.1" style="enable-background:new 0 0 494.5 445.1;" xml:space="preserve">
<style type="text/css">
	.st0{fill:none;stroke:#000000;stroke-width:14;stroke-linecap:round;stroke-linejoin:round;}
</style>
<title>trekker</title>
<line class="st0" x1="278.2" y1="275.5" x2="199.1" y2="241"/>
<path class="st0" d="M264.9,136l44.6,19.4c9.7,4.2,14.2,15.5,10,25.2c0,0,0,0,0,0l-41.3,94.8c-9.6,22-35.2,32.2-57.2,22.6
	c0,0,0,0-0.1,0l0,0c-22-9.6-32.1-35.2-22.5-57.3c0,0,0,0,0,0l41.3-94.9C243.9,136.2,255.2,131.7,264.9,136z"/>
<circle class="st0" cx="316" cy="76.2" r="44.3"/>
<polyline class="st0" points="252.1,299.5 339.9,308.7 312.1,397.4 353.3,408.9 "/>
<polyline class="st0" points="198,273.3 174.3,364.1 89.3,335.2 70.9,377.3 "/>
<path class="st0" d="M255.6,158c-32.1-43.1-96.1-45.2-132.6-1.1"/>
<path class="st0" d="M312,202.2c0,33.6,40.5,60.8,90.6,60.8"/>
<line class="st0" x1="226.8" y1="179" x2="302" y2="211"/>
<line class="st0" x1="275.5" y1="67.4" x2="354" y2="58.5"/>
<line class="st0" x1="221.3" y1="205.5" x2="288.7" y2="234.3"/>
</svg>
