<?xml version="1.0" encoding="iso-8859-1"?>
<!-- Generator: Adobe Illustrator 19.0.0, SVG Export Plug-In . SVG Version: 6.00 Build 0)  -->
<svg version="1.1" id="Capa_1" xmlns="http://www.w3.org/2000/svg" xmlns:xlink="http://www.w3.org/1999/xlink" x="0px" y="0px"
	 viewBox="0 0 512 512" style="enable-background:new 0 0 512 512;" xml:space="preserve">
<g>
	<g>
		<path d="M310.526,99.384c-4.161-2.826-9.015-4.32-14.037-4.32H278.5V82.5c0-22.071-13.697-40.991-33.032-48.742
			c1.924-3.314,3.032-7.158,3.032-11.258C248.5,10.094,238.406,0,226,0s-22.5,10.094-22.5,22.5c0,4.1,1.108,7.944,3.032,11.258
			C187.197,41.509,173.5,60.429,173.5,82.5v12.564h-17.989c-5.022,0-9.877,1.494-14.036,4.321
			c-11.402,7.747-14.375,23.325-6.628,34.728c4.658,6.858,12.394,10.951,20.692,10.951c5.019,0,9.872-1.495,14.036-4.324
			c4.207-2.859,7.403-6.872,9.226-11.562l1.992-5.03C189.94,139.606,206.775,150,226,150c19.225,0,36.06-10.394,45.207-25.851
			l1.975,4.986c1.84,4.733,5.036,8.746,9.244,11.605c4.163,2.829,9.016,4.324,14.035,4.324c8.298,0,16.034-4.094,20.692-10.951
			C324.901,122.711,321.927,107.132,310.526,99.384z M164.838,123.699c-0.734,1.889-2.012,3.491-3.693,4.635
			c-1.667,1.132-3.604,1.73-5.605,1.73c-3.324,0-6.422-1.638-8.286-4.381c-1.502-2.209-2.053-4.871-1.552-7.495
			c0.501-2.623,1.993-4.895,4.203-6.396c1.663-1.131,3.602-1.728,5.605-1.728h14.728L164.838,123.699z M226,15
			c4.136,0,7.5,3.364,7.5,7.5S230.136,30,226,30s-7.5-3.364-7.5-7.5S221.864,15,226,15z M226,45c18.11,0,33.261,12.904,36.745,30
			h-73.491C192.739,57.904,207.89,45,226,45z M263.5,97.5c0,20.678-16.822,37.5-37.5,37.5s-37.5-16.822-37.5-37.5V90h75V97.5z
			 M304.746,125.684c-1.864,2.743-4.962,4.381-8.286,4.381c-2.001,0-3.939-0.599-5.604-1.73c-1.683-1.144-2.96-2.746-3.712-4.679
			l-5.383-13.591h14.728v-0.001c2.004,0,3.943,0.598,5.607,1.728C306.657,114.891,307.845,121.122,304.746,125.684z"/>
	</g>
</g>
<g>
	<g>
		<path d="M466,467c-4.143,0-7.5,3.357-7.5,7.5c0,12.406-10.094,22.5-22.5,22.5h-10c-4.143,0-7.5,3.357-7.5,7.5s3.357,7.5,7.5,7.5
			h10c20.678,0,37.5-16.822,37.5-37.5C473.5,470.357,470.143,467,466,467z"/>
	</g>
</g>
<g>
	<g>
		<path d="M406,467c-4.143,0-7.5,3.357-7.5,7.5c0,12.406-10.094,22.5-22.5,22.5h-82.5v-52.5c0-4.143-3.357-7.5-7.5-7.5h-22.5
			V329.192c8.264-8.445,13.703-19.656,14.787-32.101c9.01-4.521,15.213-13.843,15.213-24.591V260h45v177H331
			c-4.143,0-7.5,3.357-7.5,7.5s3.357,7.5,7.5,7.5h7.5v22.5c0,4.143,3.357,7.5,7.5,7.5s7.5-3.357,7.5-7.5V452h7.5
			c4.143,0,7.5-3.357,7.5-7.5s-3.357-7.5-7.5-7.5h-7.5V260h7.5c12.406,0,22.5-10.094,22.5-22.5S373.406,215,361,215h-7.5v-42.5
			c0-4.143-3.357-7.5-7.5-7.5s-7.5,3.357-7.5,7.5V245h-45v-52.5c0-15.163-12.337-27.5-27.5-27.5h-80
			c-12.563,0-23.178,8.472-26.452,20H113.5v-72.5c0-4.143-3.357-7.5-7.5-7.5s-7.5,3.357-7.5,7.5V155H91
			c-12.406,0-22.5,10.094-22.5,22.5S78.594,200,91,200h7.5v177H91c-4.143,0-7.5,3.357-7.5,7.5s3.357,7.5,7.5,7.5h7.5v22.5
			c0,4.143,3.357,7.5,7.5,7.5s7.5-3.357,7.5-7.5V392h7.5c4.143,0,7.5-3.357,7.5-7.5s-3.357-7.5-7.5-7.5h-7.5V200h45v72.5
			c0,10.749,6.203,20.071,15.213,24.591c1.084,12.445,6.523,23.656,14.787,32.101V497H46c-4.143,0-7.5,3.357-7.5,7.5
			s3.357,7.5,7.5,7.5h330c20.678,0,37.5-16.822,37.5-37.5C413.5,470.357,410.143,467,406,467z M353.5,230h7.5
			c4.136,0,7.5,3.364,7.5,7.5s-3.364,7.5-7.5,7.5h-7.5V230z M98.5,185H91c-4.136,0-7.5-3.364-7.5-7.5s3.364-7.5,7.5-7.5h7.5V185z
			 M233.5,180H266c6.893,0,12.5,5.607,12.5,12.5v80c0,6.893-5.607,12.5-12.5,12.5h-32.5V180z M186,285
			c-6.893,0-12.5-5.607-12.5-12.5v-80c0-6.893,5.607-12.5,12.5-12.5h32.5v105H186z M218.5,497h-15v-45h15V497z M248.5,497h-15v-52.5
			c0-4.143-3.357-7.5-7.5-7.5h-22.5v-97.076c6.824,3.251,14.452,5.076,22.5,5.076c8.048,0,15.676-1.825,22.5-5.076V497z M226,330
			c-18.11,0-33.261-12.904-36.745-30H218.5v7.5c0,4.143,3.357,7.5,7.5,7.5s7.5-3.357,7.5-7.5V300h29.245
			C259.261,317.096,244.11,330,226,330z M278.5,497h-15v-45h15V497z"/>
	</g>
</g>
<g>
</g>
<g>
</g>
<g>
</g>
<g>
</g>
<g>
</g>
<g>
</g>
<g>
</g>
<g>
</g>
<g>
</g>
<g>
</g>
<g>
</g>
<g>
</g>
<g>
</g>
<g>
</g>
<g>
</g>
</svg>
