<svg id="Capa_1" data-name="Capa 1"
	xmlns="http://www.w3.org/2000/svg" viewBox="0 0 494.54 445.08">
	<title>trekker</title>
	<line x1="158.73" y1="244.61" x2="80.72" y2="244.61" style="fill:none;stroke:currentColor;stroke-linecap:round;stroke-linejoin:round;stroke-width:14px"/>
	<path d="M111.75,202.15c49.39,48.67,100.2,40.08,122.39,40.08" transform="translate(-6.7 -42.71)" style="fill:none;stroke:currentColor;stroke-linecap:round;stroke-linejoin:round;stroke-width:14px"/>
	<line x1="228.15" y1="174.47" x2="228.15" y2="437.85" style="fill:none;stroke:currentColor;stroke-linecap:round;stroke-linejoin:round;stroke-width:14px"/>
	<path d="M97.35,133.68h44A17.35,17.35,0,0,1,158.73,151v93.58A39.36,39.36,0,0,1,119.36,284h0A39.36,39.36,0,0,1,80,244.61V151A17.35,17.35,0,0,1,97.35,133.68Z" style="fill:none;stroke:currentColor;stroke-linecap:round;stroke-linejoin:round;stroke-width:14px"/>
	<circle cx="118.12" cy="65.66" r="40.08" style="fill:none;stroke:currentColor;stroke-linecap:round;stroke-linejoin:round;stroke-width:14px"/>
	<polyline points="145.84 273.95 145.84 435.7 185.21 435.7" style="fill:none;stroke:currentColor;stroke-linecap:round;stroke-linejoin:round;stroke-width:14px"/>
	<polyline points="91.45 271.81 91.45 350.53 18.45 375.58 18.45 417.09" style="fill:none;stroke:currentColor;stroke-linecap:round;stroke-linejoin:round;stroke-width:14px"/>
	<path d="M43.5,99.92h0A36.5,36.5,0,0,1,80,136.42V244.61a0,0,0,0,1,0,0H30.06A23.06,23.06,0,0,1,7,221.55V136.42a36.5,36.5,0,0,1,36.5-36.5Z" style="fill:none;stroke:currentColor;stroke-linecap:round;stroke-linejoin:round;stroke-width:14px"/>
	<line x1="7" y1="135.93" x2="80" y2="135.93" style="fill:none;stroke:currentColor;stroke-linecap:round;stroke-linejoin:round;stroke-width:14px"/>
	<line x1="7" y1="174.93" x2="32.77" y2="174.93" style="fill:none;stroke:currentColor;stroke-linecap:round;stroke-linejoin:round;stroke-width:14px"/>
	<line x1="418.12" y1="244.84" x2="340.11" y2="244.84" style="fill:none;stroke:currentColor;stroke-linecap:round;stroke-linejoin:round;stroke-width:14px"/>
	<path d="M371.15,202.39c49.38,48.66,100.19,40.07,122.38,40.07" transform="translate(-6.7 -42.71)" style="fill:none;stroke:currentColor;stroke-linecap:round;stroke-linejoin:round;stroke-width:14px"/>
	<line x1="487.54" y1="174.71" x2="487.54" y2="438.08" style="fill:none;stroke:currentColor;stroke-linecap:round;stroke-linejoin:round;stroke-width:14px"/>
	<rect x="340.67" y="7" width="77.69" height="99.99" rx="38.85" style="fill:none;stroke:currentColor;stroke-linecap:round;stroke-linejoin:round;stroke-width:14px"/>
	<line x1="341.74" y1="48.35" x2="444.08" y2="48.35" style="fill:none;stroke:currentColor;stroke-linecap:round;stroke-linejoin:round;stroke-width:14px"/>
	<path
		d="M356.74,133.91h44a17.35,17.35,0,0,1,17.35,17.35v93.58a39.36,39.36,0,0,1-39.36,39.36h0a39.36,39.36,0,0,1-39.36-39.36V151.26A17.35,17.35,0,0,1,356.74,133.91Z"
		style="fill:none;stroke:currentColor;stroke-linecap:round;stroke-linejoin:round;stroke-width:14px"/>
	<polyline points="405.24 274.19 405.24 435.94 444.6 435.94" style="fill:none;stroke:currentColor;stroke-linecap:round;stroke-linejoin:round;stroke-width:14px"/>
	<polyline points="350.85 272.04 350.85 350.77 277.84 375.82 277.84 417.33" style="fill:none;stroke:currentColor;stroke-linecap:round;stroke-linejoin:round;stroke-width:14px"/>
	<path d="M302.89,100.16h0a36.5,36.5,0,0,1,36.5,36.5V244.84a0,0,0,0,1,0,0H289.53a23.14,23.14,0,0,1-23.14-23.14v-85A36.5,36.5,0,0,1,302.89,100.16Z" style="fill:none;stroke:currentColor;stroke-linecap:round;stroke-linejoin:round;stroke-width:14px"/>
	<line x1="266.39" y1="136.17" x2="339.39" y2="136.17" style="fill:none;stroke:currentColor;stroke-linecap:round;stroke-linejoin:round;stroke-width:14px"/>
	<line x1="274.42" y1="201.09" x2="300.19" y2="201.09" style="fill:none;stroke:currentColor;stroke-linecap:round;stroke-linejoin:round;stroke-width:14px"/>
</svg>
