<?xml version="1.0" encoding="utf-8"?>
<!-- Generator: Adobe Illustrator 23.0.5, SVG Export Plug-In . SVG Version: 6.00 Build 0)  -->
<svg version="1.1" id="Capa_1" xmlns="http://www.w3.org/2000/svg" xmlns:xlink="http://www.w3.org/1999/xlink" x="0px" y="0px"
	 viewBox="0 0 340.1 491.4" style="enable-background:new 0 0 340.1 491.4;" xml:space="preserve">
<path fill="currentColor" d="M40.9,235.2c11.8-18.5,5.5-31.2,17.7-44.5c4.5-11.3,9.9-53.5,29.2-67.5c-1.1-5.2,11.3-26.2,23-35.3
	c11.8-9.2,36.9-15.2,43.7-16.1c6.8-0.9,17.6-7,22.3-6.1c4.7,0.8,14,12.6,16.9,6.9c1.6-9.5,10-51.4,51.4-49.1s43,30.7,46,38.4
	c3.1,7.7,3.1,28.4,0.8,30.7c-2.3,2.3-2.8,15.4-2.3,19.2c5,21.4,14.5,28.8,15.3,33.8c0.8,4.9,0,22.3,0,22.3s-0.6,20.6-1.2,26.1
	c-0.6,5.5-7.9,39.2-12.6,42.2c5.6,0.8,5.4,3.2,12.2,12.3c6.8,9.1,5.4,20.8,3.9,29.3c-1.5,8.4-11.8,18.6-16.2,23.7
	c-4.3,5.1-75.4,86.9-78.3,89.8c-2.9,2.9-4.3,2.6-8.4,1.5c-5.5,1.3-9.3,14.9-8.5,17.7c0.8,2.8,5.2,14.4,21.5,14.6s19.6,9.6,17.7,14.6
	c-2,5-11.7,4.3-26.5,4.2c-14.8-0.1-24.3-0.2-31.9-5.7c-7.5-5.5-26.7-16-34.5-17.7c-7.9-1.6-20.4-8.3-21.5-12.3
	c-1-4,16.8-35.4,18.9-37.1c2.1-1.8,4.7-1.2,8-1.2c14-24,36.3-38.6,43.7-50.7c-24.5,8.5-30.5,11.5-35.6,11.5
	c-11.4-0.1-12.4,2.4-15.1,10.6c-2.8,8.2,4.3,26.8-1.8,36.2c-6.1,9.4-15.4,16-18.4,23.8c-3,7.8-3.1,22.3-3.1,22.3s0.1,8.2,1.5,19.2
	c3.5,16-3,19.7-12.3,22.3c-9.3,2.6-17.6,2.7-23,1.9c-5.4-0.8-16.7-6.2-7.7-31.1c3.2-11,7.6-24.8,7.7-31.5c-6.4-10-16.9-20-6.9-35.3
	c4.9-7.6-0.1-10.3,2.7-15.3c2.8-5,0.9-15.8,3.7-20.8c-0.9-5.3-33-11-37.6-16c-4.6-5-15.1-20.3-12.3-33.8c-2.6-8.1-3.8-16.1-3.8-16.1
	S26.2,244.7,40.9,235.2z M281.8,152.4c-2.6-3.2-12.9-6.9-17.3-18c-1.4,26.6,6.7,27.4,14.5,42.4C280.2,165.3,284.4,155.6,281.8,152.4
	z M187.3,245.6c7.3-1.8,30.3-9.8,82.5-9.2c-14.9-9.1-24.5-49.1-43.4-76.2c-5.1,11.9-14.2,23.6-27.4,35.9
	c-13.2,12.3-15.8,12.3-18.5,23.4c-1.2,6.7-2.1,9.1-13.2,9.1c2.9,2.6,6.2,12.3-0.6,18.2C173,247,180,247.3,187.3,245.6z"/>
</svg>
